<?xml version="1.0" encoding="UTF-8"?>
<svg version="1.1" xmlns="http://www.w3.org/2000/svg" width="870" height="820">

<path d="M0 0 C0.66 0 1.32 0 2 0 C4.24526199 8.82498048 6.48865136 17.6504345 8.72985268 26.47644711 C9.7713472 30.57769914 10.81341193 34.67880426 11.85693359 38.77954102 C13.06527147 43.52835368 14.27172945 48.27764068 15.4765625 53.02734375 C15.67305641 53.80172161 15.86955032 54.57609947 16.0719986 55.37394333 C18.89289507 66.50173543 21.64007876 77.64364684 24.25601196 88.82176208 C24.4749411 89.75142288 24.69387024 90.68108368 24.91943359 91.63891602 C25.10589447 92.43991226 25.29235535 93.24090851 25.48446655 94.06617737 C25.94682605 96.06175633 25.94682605 96.06175633 27 98 C29.12066934 98.6548259 29.12066934 98.6548259 31.71484375 99.078125 C33.19573486 99.36006714 33.19573486 99.36006714 34.70654297 99.64770508 C35.77275879 99.8464624 36.83897461 100.04521973 37.9375 100.25 C61.4311705 104.91155287 82.42000331 113.85324992 103 126 C103.9075 126.5259375 104.815 127.051875 105.75 127.59375 C107.7509468 128.84434175 109.43625286 130.11632969 111.1875 131.6875 C114.13961107 134.27059718 117.13958463 136.78029211 120.1875 139.25 C121.00605469 139.91515625 121.82460938 140.5803125 122.66796875 141.265625 C124.87689398 143.02156955 124.87689398 143.02156955 127.10546875 144.01953125 C129.35853845 145.18555289 130.510787 146.48665464 132.125 148.4375 C134.9093459 151.74317023 137.78927923 154.91379696 140.75 158.0625 C146.73772105 164.61786433 151.91645799 171.73041084 157 179 C157.39864258 179.56509277 157.79728516 180.13018555 158.20800781 180.71240234 C161 184.75821719 161 184.75821719 161 187 C161.66 187.33 162.32 187.66 163 188 C164.2908296 190.27258733 165.47675444 192.53106988 166.625 194.875 C166.97328857 195.57955322 167.32157715 196.28410645 167.68041992 197.01000977 C170.3937953 202.5809143 172.8994529 208.23073996 175.3125 213.9375 C175.80000732 215.08871338 175.80000732 215.08871338 176.29736328 216.26318359 C183.89698646 234.55039308 188.78762637 254.22956855 190 274 C190.06558105 274.97743164 190.13116211 275.95486328 190.19873047 276.96191406 C192.85275161 318.70069255 186.66462938 361.01372359 168.08496094 398.79345703 C167.04754128 400.90331275 166.04038377 403.02517141 165.0390625 405.15234375 C155.45857631 425.22050357 143.0372332 443.66102151 128.41552734 460.37963867 C127.40502065 461.53637081 126.40081614 462.69862093 125.40087891 463.86450195 C115.34226898 475.52614028 104.33486522 486.75291395 92 496 C91.38141113 496.47324707 90.76282227 496.94649414 90.12548828 497.43408203 C78.35748452 506.40589424 66.06585561 514.06166916 53 521 C52.27490234 521.38526855 51.54980469 521.77053711 50.80273438 522.16748047 C33.16326357 531.36615635 13.59482663 537.63842711 -6 541 C-7.00184326 541.17587646 -8.00368652 541.35175293 -9.03588867 541.53295898 C-18.42197114 543.03936728 -27.58446872 543.36059747 -37.0625 543.3125 C-37.83001587 543.31034485 -38.59753174 543.3081897 -39.38830566 543.30596924 C-58.44619116 543.22037253 -75.75065066 540.4068648 -94.12109375 535.3046875 C-97.72925837 534.30909498 -101.28512328 533.5085474 -105 533 C-105 532.34 -105 531.68 -105 531 C-105.64839844 530.91105469 -106.29679688 530.82210937 -106.96484375 530.73046875 C-111.06928807 529.74265525 -114.72828487 528.05660079 -118.5625 526.3125 C-119.36969482 525.94656738 -120.17688965 525.58063477 -121.00854492 525.20361328 C-122.61979226 524.46951657 -124.22961476 523.73228325 -125.83789062 522.99169922 C-127.5881591 522.18889992 -129.34746718 521.40582792 -131.109375 520.62890625 C-146.51032894 513.48482212 -160.89273432 502.70877119 -174 492 C-174.82757813 491.32469238 -174.82757813 491.32469238 -175.671875 490.63574219 C-187.78847157 480.68184894 -199.22400022 469.94405742 -208.9453125 457.60546875 C-210.27994324 455.91307577 -211.64850018 454.24670417 -213.0546875 452.61328125 C-238.45675493 422.97753591 -271.45555553 367.68036986 -269 327 C-268.34 327 -267.68 327 -267 327 C-266.79955078 327.69335449 -266.59910156 328.38670898 -266.39257812 329.10107422 C-262.17986329 343.54705611 -257.72356745 357.51675219 -251 371 C-250.505 371.99845947 -250.505 371.99845947 -250 373.01708984 C-242.85881299 387.45460036 -242.85881299 387.45460036 -233 400 C-232.19635096 401.26329003 -231.40679415 402.53556955 -230.625 403.8125 C-226.5553311 410.01199562 -221.4258127 415.18555755 -216.34667969 420.55175781 C-214.72677234 422.29383367 -213.20477151 424.10576807 -211.6875 425.9375 C-201.57598716 437.53887342 -189.51970355 447.14997326 -177 456 C-176.4028418 456.42732422 -175.80568359 456.85464844 -175.19042969 457.29492188 C-130.05278028 489.38946794 -73.26609399 506.2044103 -18.0625 496.96875 C17.07188442 490.47827593 47.93298595 474.06569945 74.45703125 450.37548828 C75.90898194 449.08113857 77.37590633 447.80364189 78.84375 446.52734375 C84.01236946 441.98923359 88.6303899 437.30415099 93 432 C93.97775239 430.84625907 94.95562864 429.69262311 95.93359375 428.5390625 C128.96557676 389.18412565 157.5394124 335.23585738 157.3125 282.875 C157.31067719 282.20257263 157.30885437 281.53014526 157.30697632 280.83734131 C157.11189838 237.85283841 139.95350831 199.02201796 109.71630859 168.64599609 C104.83856717 163.96808248 99.4970634 159.91630966 94 156 C93.45827148 155.61005859 92.91654297 155.22011719 92.35839844 154.81835938 C67.94989983 137.50381112 38.77966763 128.34978664 9 127 C8.11054688 126.95875 7.22109375 126.9175 6.3046875 126.875 C-33.43266854 125.98948789 -73.72066932 140.61017789 -102.7421875 167.90332031 C-104.16552091 169.26464523 -105.5828384 170.63225129 -107 172 C-107.85207031 172.78890625 -108.70414063 173.5778125 -109.58203125 174.390625 C-136.32737572 199.83029124 -151.98045368 238.95654729 -153.21875 275.5234375 C-153.65878981 295.96619245 -150.63973093 314.47930254 -144.58886719 333.9609375 C-144 336 -144 336 -143.4453125 339.03125 C-143.29835938 339.6809375 -143.15140625 340.330625 -143 341 C-142.34 341.33 -141.68 341.66 -141 342 C-140.33333333 344 -139.66666667 346 -139 348 C-138.23273771 349.67804126 -137.43831707 351.3437907 -136.625 353 C-136.20476562 353.86625 -135.78453125 354.7325 -135.3515625 355.625 C-134.08625716 357.84842672 -132.83002565 359.25199231 -131 361 C-130.32558869 362.6635479 -129.6599679 364.33066942 -129 366 C-127.15703362 368.93722767 -125.4524619 371.5475381 -123 374 C-122.09119599 375.19860839 -121.19707773 376.40840268 -120.3125 377.625 C-117.07875859 381.95479319 -113.66557044 386.0295562 -110 390 C-109.22011719 390.845625 -108.44023437 391.69125 -107.63671875 392.5625 C-96.71445731 403.95401415 -83.99458207 412.75023889 -70 420 C-69.35337402 420.33628418 -68.70674805 420.67256836 -68.04052734 421.01904297 C-31.28500426 439.85237838 10.56786709 443.03977003 49.95703125 430.734375 C57.90707305 428.09300297 65.47852944 424.66853888 73 421 C73.70431152 420.65694824 74.40862305 420.31389648 75.13427734 419.96044922 C79.10994836 418.01289829 83.06325123 416.02533699 87 414 C84.33131943 420.33625274 78.67598764 425.07821037 74 430 C73.50032715 430.53367187 73.0006543 431.06734375 72.48583984 431.6171875 C54.64121053 450.60206721 33.85227393 466.55766634 7 468 C-41.22011655 469.04400794 -88.0175563 451.19153362 -123 418 C-124.24231905 416.94918468 -125.49140814 415.9062691 -126.75 414.875 C-129.91704008 412.1905565 -132.58957194 409.20022961 -135.26953125 406.03515625 C-136.34500867 404.77031711 -137.44309289 403.52392252 -138.57421875 402.30859375 C-171.46161139 366.71376443 -184.36320426 319.24005067 -183.18359375 271.83740234 C-181.16188085 229.58037668 -163.03360941 188.55901796 -134 158 C-132.82666277 156.63068782 -131.65946034 155.25608213 -130.5 153.875 C-103.0441279 122.56012283 -63.11875889 105.88105697 -23.09692383 98.46142578 C-20.95609938 98.07994354 -20.95609938 98.07994354 -19 97 C-18.59491684 94.9518903 -18.59491684 94.9518903 -18.48536682 92.50759888 C-18.07888871 87.5257837 -17.26895906 82.76338791 -16.23413086 77.87841797 C-15.97056541 76.60338661 -15.97056541 76.60338661 -15.70167542 75.30259705 C-15.12759287 72.53142491 -14.54629299 69.76182241 -13.96484375 66.9921875 C-13.56225909 65.05601177 -13.16013106 63.11974105 -12.75843811 61.18338013 C-11.70591124 56.1157845 -10.64723107 51.04949395 -9.58721924 45.98345947 C-8.50426195 40.80225407 -7.42719131 35.61982552 -6.34960938 30.4375 C-4.23879889 20.29046802 -2.12147907 10.14480642 0 0 Z " fill="#DCA05D" transform="translate(424,32)"/>
<path d="M0 0 C0.93585938 0.79083984 0.93585938 0.79083984 1.890625 1.59765625 C3.57707621 2.93231589 5.26463878 4.26557206 6.953125 5.59765625 C20.41580905 16.42993895 20.41580905 16.42993895 24.765625 22.47265625 C26.60631866 24.9802017 28.30973122 26.99726916 30.578125 29.16015625 C32.87184374 31.57785978 33.7874751 33.61061996 35.03149414 36.65063477 C35.90063772 38.62034776 36.89254187 40.43761242 37.9765625 42.296875 C54.23731557 70.39582338 54.54374505 103.41917709 47.203125 134.34765625 C38.84573635 163.61440508 16.48753443 189.00342937 -9.64624023 203.90917969 C-38.13799341 219.42467816 -71.1098328 222.66829942 -102.24194336 214.00561523 C-115.60021513 210.01335634 -127.43729794 203.50816446 -138.6328125 195.28515625 C-140.88536681 193.40995821 -140.88536681 193.40995821 -143.109375 193.59765625 C-144.31787597 192.15416898 -145.52178281 190.70643417 -146.6953125 189.234375 C-148.43399857 187.22191792 -150.45744818 185.64902452 -152.51953125 183.98046875 C-159.71347607 177.72332755 -164.87829102 169.47787633 -170.109375 161.59765625 C-170.65722656 160.79714844 -171.20507812 159.99664062 -171.76953125 159.171875 C-188.06381544 134.0135002 -191.15830576 101.24587232 -185.10546875 72.45703125 C-179.90520704 50.31699486 -169.19580797 32.37841169 -154.109375 15.59765625 C-153.53960937 14.94410156 -152.96984375 14.29054687 -152.3828125 13.6171875 C-116.25979655 -25.3771451 -42.23095976 -34.42741284 0 0 Z " fill="#DCA05D" transform="translate(494.109375,215.40234375)"/>
<path d="M0 0 C0.99 0.33 1.98 0.66 3 1 C2.80229004 1.66209473 2.60458008 2.32418945 2.40087891 3.00634766 C0.45803016 9.77011981 -0.7880755 16.39428885 -1.625 23.375 C-1.74617187 24.3134375 -1.86734375 25.251875 -1.9921875 26.21875 C-3.49926345 38.24259508 -4.12871743 50.2377422 -4.38842773 62.34350586 C-4.65911982 74.58390585 -5.12389405 86.7869058 -6 99 C-6.08306396 100.17377197 -6.16612793 101.34754395 -6.25170898 102.55688477 C-6.86466234 110.59398702 -6.86466234 110.59398702 -8 114 C-8.38386441 115.42767564 -8.75922839 116.85764786 -9.12890625 118.2890625 C-15.23291244 141.25682643 -25.08148885 159.36353907 -41 177 C-41.94359375 178.05380859 -41.94359375 178.05380859 -42.90625 179.12890625 C-60.02992969 197.21789141 -83.73715413 206.2689928 -106.546875 214.6796875 C-117.8339691 218.89705739 -127.40910736 223.93616605 -133 235 C-133.598125 235.99 -134.19625 236.98 -134.8125 238 C-135.4003125 238.99 -135.4003125 238.99 -136 240 C-137.13241293 236.60621369 -136.85213161 234.33490517 -136.03125 230.87890625 C-135.79365967 229.87174561 -135.55606934 228.86458496 -135.3112793 227.8269043 C-135.04355713 226.74965088 -134.77583496 225.67239746 -134.5 224.5625 C-134.22518799 223.44593018 -133.95037598 222.32936035 -133.66723633 221.17895508 C-123.25599121 179.88306962 -102.68181665 141.79843618 -77 108 C-75.6623067 106.14897638 -74.32869715 104.29499177 -73 102.4375 C-66.38816535 93.3360239 -59.43742398 84.44248127 -52 76 C-52.33 75.67 -52.66 75.34 -53 75 C-69.2597153 87.73802581 -85.10963486 101.09780702 -97.94140625 117.390625 C-99.28771967 119.09714751 -100.66979041 120.77620571 -102.08984375 122.421875 C-119.10663282 142.23889518 -132.10395269 166.52760219 -141 191 C-141.66082968 192.66898962 -142.32537418 194.33653908 -143 196 C-143.66 196 -144.32 196 -145 196 C-156.24918993 161.45151701 -158.88557773 126.40375993 -142.08203125 93.0703125 C-137.95077202 85.32420145 -132.89364932 78.48666357 -127 72 C-126.5349707 71.4858252 -126.06994141 70.97165039 -125.59082031 70.44189453 C-103.96519755 46.83805906 -73.88193075 35.23559034 -45 23 C-34.66292961 18.60460779 -24.59687978 13.86662135 -14.625 8.6875 C-13.63056885 8.1711499 -12.6361377 7.6547998 -11.61157227 7.12280273 C-6.54036015 4.52317289 -6.54036015 4.52317289 -1.88818359 1.27270508 C-1.26508301 0.8527124 -0.64198242 0.43271973 0 0 Z " fill="#DCA05D" transform="translate(778,95)"/>
<path d="M0 0 C2.46417463 23.28321069 4.62473288 46.588671 6.58041763 69.91966248 C6.74949746 71.93152035 6.92002522 73.94325091 7.09091187 75.95495605 C7.41380855 79.77041173 7.73126682 83.586279 8.046875 87.40234375 C8.14355972 88.54152756 8.24024445 89.68071136 8.33985901 90.85441589 C8.83428144 96.92800332 9.09777392 102.9063607 9 109 C5.112721 107.17369854 2.09485724 104.67832052 -1.125 101.875 C-2.27640559 100.8856259 -3.42876071 99.89735583 -4.58203125 98.91015625 C-5.1538916 98.42047363 -5.72575195 97.93079102 -6.31494141 97.42626953 C-10.13534571 94.19259785 -14.06872387 91.09710016 -18 88 C-18.26554687 88.63808594 -18.53109375 89.27617187 -18.8046875 89.93359375 C-19.33449219 91.17302734 -19.33449219 91.17302734 -19.875 92.4375 C-20.22304688 93.26121094 -20.57109375 94.08492188 -20.9296875 94.93359375 C-22 97 -22 97 -24 98 C-24.695896 99.99001839 -25.35517 101.99285309 -26 104 C-27.17384937 106.78612441 -28.45949521 109.51629711 -29.75 112.25 C-30.07226562 112.94996094 -30.39453125 113.64992188 -30.7265625 114.37109375 C-39.20696677 132.41660516 -51.39548312 149.61190396 -64 165 C-64.44005371 165.54156738 -64.88010742 166.08313477 -65.33349609 166.64111328 C-72.45492153 175.34065256 -80.20302729 183.40691471 -88.125 191.375 C-89.48383301 192.74773071 -89.48383301 192.74773071 -90.87011719 194.14819336 C-96.93890582 200.18899752 -103.27710232 205.70065252 -110 211 C-110.67417969 211.53882813 -111.34835937 212.07765625 -112.04296875 212.6328125 C-122.75604107 221.12544034 -134.10277048 228.28902158 -146 235 C-146.88010742 235.50031738 -147.76021484 236.00063477 -148.66699219 236.51611328 C-188.09058085 258.69455529 -234.60266368 271.58611584 -280 271 C-280 270.34 -280 269.68 -280 269 C-279.30664551 268.79955078 -278.61329102 268.59910156 -277.89892578 268.39257812 C-263.42573058 264.17192738 -249.55822412 259.60345369 -236 253 C-234.63569605 252.35617847 -233.27111364 251.71294667 -231.90625 251.0703125 C-211.39149384 241.26299296 -193.29114346 227.94567936 -175.83056641 213.51025391 C-174.16784445 212.13847503 -172.49845856 210.77564836 -170.82421875 209.41796875 C-166.8133799 206.16158921 -162.8456808 202.88775798 -159 199.4375 C-155.1542929 196.03040715 -151.03200188 193.08880728 -146.859375 190.09765625 C-128.46997071 176.60706868 -110.82150677 160.17828608 -97 142 C-96.07355701 140.82501566 -95.14642576 139.65057379 -94.21875 138.4765625 C-86.19868385 128.19623647 -79.44957523 117.31946843 -73 106 C-72.61859863 105.33645508 -72.23719727 104.67291016 -71.84423828 103.98925781 C-65.62082276 93.08034781 -60.7960794 81.58996701 -56 70 C-65.96151759 67.45140394 -75.92773184 65.07740531 -86 63 C-86 62.34 -86 61.68 -86 61 C-84.64916992 59.80175781 -84.64916992 59.80175781 -82.73046875 58.453125 C-82.01640869 57.94531494 -81.30234863 57.43750488 -80.56665039 56.91430664 C-79.38897095 56.09047485 -79.38897095 56.09047485 -78.1875 55.25 C-76.52279522 54.06730977 -74.85875337 52.88368598 -73.1953125 51.69921875 C-72.33325195 51.08739746 -71.47119141 50.47557617 -70.58300781 49.84521484 C-66.54458897 46.96030278 -62.55266701 44.01361737 -58.5625 41.0625 C-57.77641357 40.48209961 -56.99032715 39.90169922 -56.18041992 39.30371094 C-54.58376301 38.12481147 -52.98732735 36.94561228 -51.39111328 35.76611328 C-47.43008833 32.84043894 -43.46482285 29.92052413 -39.5 27 C-37.93097738 25.84376656 -36.36196699 24.68751652 -34.79296875 23.53125 C-31.48376085 21.09281451 -28.17374918 18.65547455 -24.86328125 16.21875 C-24.01765625 15.59613281 -23.17203125 14.97351563 -22.30078125 14.33203125 C-20.69812842 13.15205609 -19.09527917 11.97234764 -17.4921875 10.79296875 C-16.75871094 10.25285156 -16.02523438 9.71273438 -15.26953125 9.15625 C-14.20726318 8.37701172 -14.20726318 8.37701172 -13.12353516 7.58203125 C-11.66184927 6.49307694 -10.21423143 5.38506571 -8.77880859 4.26171875 C-8.07191895 3.71128906 -7.3650293 3.16085937 -6.63671875 2.59375 C-5.69445435 1.84641602 -5.69445435 1.84641602 -4.7331543 1.08398438 C-3 0 -3 0 0 0 Z " fill="#DCA05D" transform="translate(713,316)"/>
<path d="M0 0 C1.97457328 2.04979512 3.80459635 4.14754866 5.58984375 6.36328125 C6.92120073 8.12131121 6.92120073 8.12131121 9 9 C10.09662452 11.28264777 11.07527871 13.52326432 12 15.875 C12.4014624 16.89557495 12.4014624 16.89557495 12.81103516 17.93676758 C18.69354716 33.37699906 18.84053568 50.30724694 12.24609375 65.59765625 C5.40528005 78.78605884 -6.05124902 87.29034089 -19.84765625 91.96484375 C-37.34783289 96.86489321 -57.64899455 95.27976461 -73.6640625 86.52734375 C-84.90620505 79.17671208 -92.75510619 68.90682303 -96.33984375 55.91796875 C-99.31178715 38.27974847 -97.41556748 21.82316278 -87 7 C-86.56042969 6.36449219 -86.12085938 5.72898437 -85.66796875 5.07421875 C-77.88734982 -5.03834361 -64.5126058 -10.74881816 -52.171875 -12.68359375 C-33.49543647 -14.5466375 -15.01829179 -12.06387374 0 0 Z " fill="#DCA05D" transform="translate(720,684)"/>
<path d="M0 0 C3.91573823 0.8087073 5.49004654 2.19627241 8.25 5.125 C10.90649799 7.92692672 13.61160898 10.55197102 16.546875 13.0546875 C22.89399239 18.54869772 28.68833026 24.63243825 34.58203125 30.60253906 C36.13585998 32.17468215 37.69286677 33.74363084 39.25 35.3125 C40.16265625 36.23675781 41.0753125 37.16101563 42.015625 38.11328125 C44.18846573 40.26274613 46.44814624 42.27332037 48.765625 44.265625 C53.57267953 48.42987572 58.02856939 52.91873339 62.5 57.4375 C63.32242188 58.26443359 64.14484375 59.09136719 64.9921875 59.94335938 C66.99712113 61.95994959 68.99966253 63.97885236 71 66 C71.06949924 58.75038346 71.12281062 51.5008387 71.15543652 44.25095654 C71.17109511 40.88455123 71.19233621 37.51837377 71.22631836 34.15209961 C71.26261749 30.28232751 71.2797075 26.41287974 71.29296875 22.54296875 C71.30845261 21.33352097 71.32393646 20.12407318 71.33988953 18.87797546 C71.34011612 17.75703995 71.34034271 16.63610443 71.34057617 15.48120117 C71.34723801 14.49302902 71.35389984 13.50485687 71.36076355 12.48674011 C71.19451414 9.96919118 71.19451414 9.96919118 69.67793274 8.20039368 C67.26471022 6.47397343 64.90442722 6.32271414 62 6 C61.67 5.01 61.34 4.02 61 3 C62 2 62 2 63.75270081 1.87974548 C64.51437057 1.88196609 65.27604034 1.88418671 66.06079102 1.88647461 C66.92160782 1.88655014 67.78242462 1.88662567 68.66932678 1.88670349 C69.60473801 1.89186478 70.54014923 1.89702606 71.50390625 1.90234375 C72.45692123 1.9037587 73.40993622 1.90517365 74.39183044 1.90663147 C77.44875165 1.91224848 80.50560077 1.92480384 83.5625 1.9375 C85.62955624 1.94251281 87.69661362 1.94707609 89.76367188 1.95117188 C94.84247588 1.96222344 99.9212257 1.97949945 105 2 C105 3.32 105 4.64 105 6 C103.906875 6.061875 102.81375 6.12375 101.6875 6.1875 C97.96668241 6.6116873 97.96668241 6.6116873 96.29180908 9.05773926 C94.68080678 12.72700348 94.59381235 15.9569072 94.64355469 19.88867188 C94.64048813 21.05813354 94.64048813 21.05813354 94.63735962 22.2512207 C94.63435688 24.82397077 94.65282731 27.39607617 94.671875 29.96875 C94.67493632 31.76891929 94.6768096 33.56909096 94.67755127 35.3692627 C94.68215272 39.1453558 94.69656249 42.92123548 94.71875 46.69726562 C94.74686935 51.50385382 94.75794625 56.3102731 94.7624321 61.11693573 C94.76763012 65.7342283 94.78214894 70.35147984 94.796875 74.96875 C94.79875572 75.83451157 94.80063644 76.70027313 94.80257416 77.5922699 C94.83019806 87.44604893 95.04490658 97.18460384 96 107 C92 107 92 107 89.74511719 105.18334961 C88.93719727 104.34811768 88.12927734 103.51288574 87.296875 102.65234375 C86.39839844 101.73646484 85.49992188 100.82058594 84.57421875 99.87695312 C83.63228832 98.89763932 82.69088491 97.91781834 81.75 96.9375 C76.28072459 91.31053099 70.86180137 85.75523223 64.88964844 80.66040039 C61.5114034 77.69199671 58.39610941 74.46044702 55.25 71.25 C53.96596124 69.94033172 52.67957737 68.63295769 51.390625 67.328125 C50.83407227 66.7599707 50.27751953 66.19181641 49.70410156 65.60644531 C47.98753993 63.91619571 47.98753993 63.91619571 45.78808594 62.41699219 C45.19801758 61.94938477 44.60794922 61.48177734 44 61 C44 60.34 44 59.68 44 59 C43.42475586 58.75072754 42.84951172 58.50145508 42.25683594 58.24462891 C39.67589928 56.82126077 37.95787763 55.18451214 35.890625 53.0859375 C35.13652344 52.32539062 34.38242187 51.56484375 33.60546875 50.78125 C32.82816406 49.9871875 32.05085937 49.193125 31.25 48.375 C30.45722656 47.57320312 29.66445313 46.77140625 28.84765625 45.9453125 C26.89385507 43.96797154 24.94487897 41.98611091 23 40 C22.94922981 47.43812135 22.91423682 54.87619788 22.89013672 62.31445312 C22.88008818 64.84409251 22.86644712 67.37372031 22.84912109 69.90332031 C22.8248228 73.54234683 22.81350525 77.18121957 22.8046875 80.8203125 C22.79436493 81.94865509 22.78404236 83.07699768 22.77340698 84.23953247 C22.72856163 91.82508408 22.72856163 91.82508408 25 99 C26.89471006 100.33852137 26.89471006 100.33852137 29.125 100.875 C29.84945312 101.09929687 30.57390625 101.32359375 31.3203125 101.5546875 C31.87460937 101.70164062 32.42890625 101.84859375 33 102 C33 102.99 33 103.98 33 105 C24.58470337 105.093153 16.1696263 105.16399237 7.75393963 105.20724869 C3.84513169 105.22802168 -0.06332054 105.25614768 -3.97192383 105.30175781 C-7.75209682 105.34558743 -11.53193016 105.36921422 -15.31233788 105.37950897 C-16.74629237 105.38683447 -18.18023071 105.40113733 -19.61403847 105.42292023 C-30.88231632 105.58712379 -41.37249512 104.54813476 -49.859375 96.40625 C-57.75003328 87.53645894 -64.38452539 77.56098795 -71.125 67.8125 C-71.68147217 67.01102539 -72.23794434 66.20955078 -72.8112793 65.38378906 C-75.32569965 61.70102456 -77.61010592 58.28121696 -79 54 C-78.24976563 53.06800781 -77.49953125 52.13601563 -76.7265625 51.17578125 C-70.88995562 43.91121136 -65.10663283 36.61423402 -59.45703125 29.203125 C-57.74918945 26.96464467 -56.01448026 24.75034661 -54.26171875 22.546875 C-53.81006348 21.97404785 -53.3584082 21.4012207 -52.89306641 20.81103516 C-51.64305074 19.22707035 -50.38620869 17.64849951 -49.12890625 16.0703125 C-46.83832119 12.76682652 -45.45405345 9.7309796 -44 6 C-45.65 6 -47.3 6 -49 6 C-49 4.68 -49 3.36 -49 2 C-38.11 2 -27.22 2 -16 2 C-16 2.99 -16 3.98 -16 5 C-18.39257812 5.5859375 -18.39257812 5.5859375 -20.78515625 6.171875 C-27.46293531 8.66868128 -31.53234591 12.19048052 -35.9375 17.625 C-36.71226685 18.5543335 -36.71226685 18.5543335 -37.50268555 19.50244141 C-41.12515168 23.86564855 -44.67962231 28.28587707 -48.171875 32.75390625 C-50.56764156 35.69742285 -53.17646717 38.41871196 -55.84765625 41.11328125 C-57.18565028 42.94724778 -57.18565028 42.94724778 -57.04296875 45.21875 C-55.47903734 49.38923377 -52.91293107 52.6444444 -50.25 56.1875 C-49.06088924 57.79925148 -47.87209619 59.41123739 -46.68359375 61.0234375 C-46.07241699 61.84682617 -45.46124023 62.67021484 -44.83154297 63.51855469 C-42.50574168 66.66964031 -40.2242083 69.85114805 -37.94482422 73.03588867 C-35.81316769 76.00892144 -33.66347435 78.96856516 -31.50927734 81.92529297 C-30.52679828 83.27584409 -29.54776965 84.62891426 -28.57275391 85.98486328 C-27.269955 87.79164088 -25.95043861 89.58479386 -24.625 91.375 C-23.89539063 92.37273437 -23.16578125 93.37046875 -22.4140625 94.3984375 C-19.08779054 97.98306068 -15.57135198 100.35493765 -10.7421875 101.56640625 C-7.15709462 101.55890606 -5.20938375 101.15076144 -2.29328918 99.05110168 C0.87041476 94.84195854 0.67248512 91.75122627 0.56762695 86.61987305 C0.56835709 85.68280014 0.56908722 84.74572723 0.56983948 83.78025818 C0.56636255 80.69015141 0.52749563 77.60156142 0.48828125 74.51171875 C0.47895352 72.36652958 0.47183722 70.22132974 0.46684265 68.0761261 C0.44776987 62.4353586 0.39866589 56.79523683 0.34332275 51.15472412 C0.29213677 45.39685806 0.26932995 39.63888747 0.24414062 33.88085938 C0.19054806 22.58695618 0.10523125 11.29353183 0 0 Z " fill="#DCA05D" transform="translate(510,671)"/>
<path d="M0 0 C-0.46920411 9.59441508 -1.94194229 18.6416621 -4 28 C-4.6305127 28.07927734 -5.26102539 28.15855469 -5.91064453 28.24023438 C-57.64413134 34.958628 -107.01957749 54.87016868 -145.5234375 90.7109375 C-147.61682183 92.64583216 -149.75082207 94.48576906 -151.9375 96.3125 C-174.16778693 115.84275208 -190.70350652 142.32719071 -203 169 C-203.3619043 169.77891602 -203.72380859 170.55783203 -204.09667969 171.36035156 C-229.07940859 225.69192994 -234.30285938 291.02551461 -213.59179688 347.65820312 C-212.34555031 351.24344618 -211.87268116 353.39109965 -213 357 C-239.74197839 301.03166319 -242.24073462 234.39145261 -222 176 C-221.59523437 174.7934375 -221.19046875 173.586875 -220.7734375 172.34375 C-204.97626439 126.8348261 -173.81318363 82.65781503 -134.68310547 54.22998047 C-132.91660161 52.93905409 -131.17847151 51.61538378 -129.44140625 50.28515625 C-95.22065944 24.30020251 -44.20698992 -1.88732633 0 0 Z " fill="#DCA05D" transform="translate(404,49)"/>
<path d="M0 0 C7.18580222 -0.07661597 14.3714975 -0.12883556 21.55761719 -0.16479492 C23.9977614 -0.17979978 26.43787902 -0.20021015 28.87792969 -0.22631836 C32.40306192 -0.26306851 35.92783488 -0.27981002 39.453125 -0.29296875 C41.06637665 -0.31619453 41.06637665 -0.31619453 42.71221924 -0.33988953 C54.48950986 -0.34245511 66.04496288 1.86876527 75 10 C78.82724744 15.7456196 79.97583745 22.21673967 79 29 C77.67222065 35.14863978 75.51205404 39.59799606 71 44 C68.6875 44.875 68.6875 44.875 67 45 C67 45.99 67 46.98 67 48 C67.721875 48.103125 68.44375 48.20625 69.1875 48.3125 C72.27746686 49.06782523 74.39558686 50.19137976 77 52 C77.33 52.66 77.66 53.32 78 54 C78.66 54 79.32 54 80 54 C80.81498562 55.6029053 81.62689927 57.20737278 82.4375 58.8125 C82.88996094 59.70582031 83.34242188 60.59914063 83.80859375 61.51953125 C87.12217025 68.41828887 87.01170608 76.50999274 84.875 83.8125 C81.66889936 92.02071135 75.88510693 96.50176365 68 100 C59.79955155 102.95776698 52.1115667 103.40557552 43.45703125 103.29296875 C42.20742111 103.28872391 40.95781097 103.28447906 39.67033386 103.28010559 C36.38723578 103.26626728 33.1046007 103.23943162 29.82165527 103.20599365 C26.4560302 103.17501412 23.09033667 103.16154142 19.72460938 103.14648438 C13.1495623 103.11358191 6.57481892 103.06350882 0 103 C0 102.01 0 101.02 0 100 C1.670625 99.319375 1.670625 99.319375 3.375 98.625 C6.96199008 97.27534014 6.96199008 97.27534014 9 95 C9.20383907 92.24521965 9.28317676 89.5905535 9.2746582 86.83422852 C9.27976913 85.9901947 9.28488007 85.14616089 9.29014587 84.27655029 C9.30408365 81.47726414 9.30308196 78.67822304 9.30078125 75.87890625 C9.30466594 73.93838916 9.30900013 71.99787292 9.31376648 70.05735779 C9.32123774 65.9860458 9.32093091 61.91482051 9.31567383 57.84350586 C9.30987857 52.61984755 9.32680718 47.39654374 9.3500185 42.17294407 C9.36473318 38.16413794 9.36563063 34.15541763 9.36250877 30.14658928 C9.36302315 28.22042069 9.36828254 26.29424744 9.37832069 24.36810493 C9.39062374 21.6768894 9.38393049 18.98636997 9.37231445 16.29516602 C9.37995819 15.49557968 9.38760193 14.69599335 9.39547729 13.87217712 C9.38281355 9.71510694 9.38281355 9.71510694 7.6759491 6.02452087 C5.23030608 4.52948005 2.81586368 4.31287374 0 4 C0 2.68 0 1.36 0 0 Z " fill="#DCA05D" transform="translate(745,673)"/>
<path d="M0 0 C51.53956573 -0.94088457 102.34411782 21.7840819 143.78955078 50.59228516 C146.03019223 52.14499093 146.03019223 52.14499093 149 53 C150.69165872 54.6412941 152.35319337 56.31370718 154 58 C156.40121393 60.16717068 158.85710585 62.26958354 161.3125 64.375 C162.64600536 65.52323775 163.97934015 66.67167361 165.3125 67.8203125 C165.94800781 68.36719727 166.58351563 68.91408203 167.23828125 69.47753906 C170.04292228 71.90128372 172.81560153 74.36093381 175.58203125 76.828125 C177.01304659 78.10030145 177.01304659 78.10030145 179 79 C179 79.66 179 80.32 179 81 C179.66 81 180.32 81 181 81 C181 81.66 181 82.32 181 83 C181.66 83 182.32 83 183 83 C183.37125 83.66 183.7425 84.32 184.125 85 C186.80290859 89.28465375 190.3740994 92.51266885 194 96 C194.66 96.66 195.32 97.32 196 98 C195.69900804 101.61942834 193.95755074 103.39705568 191.5 105.9375 C185.51197419 112.44434393 179.70820125 119.9395415 176 128 C171.95237032 126.4719061 170.2713745 123.97556759 167.8125 120.5 C164.1819458 115.4786666 160.30743771 110.84154065 156.09765625 106.28515625 C154.27160799 104.2958858 152.5400992 102.261485 150.8125 100.1875 C135.43341346 82.70648819 115.98709979 69.63051156 96 58 C95.39865234 57.64196289 94.79730469 57.28392578 94.17773438 56.91503906 C90.23192844 54.59539675 86.22059021 52.75974003 82 51 C80.76134073 50.41907712 79.52575653 49.83156236 78.29296875 49.23828125 C57.18775212 39.23875009 34.94501642 33.85536892 12 30 C10.76765625 29.79246094 9.5353125 29.58492187 8.265625 29.37109375 C7.51796875 29.24863281 6.7703125 29.12617187 6 29 C0 5.76595745 0 5.76595745 0 0 Z " fill="#DCA05D" transform="translate(448,48)"/>
<path d="M0 0 C9.99248998 8.94524212 13.47075243 22.4055748 14.4453125 35.33203125 C14.81270477 50.10426225 11.72050591 63.978527 2.8515625 76.0390625 C-3.88433236 82.46165993 -11.02341498 84.95655552 -20.18359375 84.80859375 C-29.4166371 84.08789964 -35.23750951 79.68918496 -41.3046875 72.9765625 C-49.31643118 62.81532662 -52.08749422 47.27116743 -50.8359375 34.6015625 C-48.78809391 20.22181407 -46.01988762 8.68001508 -34.8359375 -1.3984375 C-24.05704169 -8.81259633 -10.22966445 -7.79195718 0 0 Z " fill="#FFFFFF" transform="translate(697.8359375,685.3984375)"/>
<path d="M0 0 C0 8.58 0 17.16 0 26 C-0.99 26 -1.98 26 -3 26 C-3.15855469 25.32453125 -3.31710937 24.6490625 -3.48046875 23.953125 C-4.97179203 18.1817276 -4.97179203 18.1817276 -8.4375 13.4375 C-12.48886288 11.16478424 -16.03124097 10.85521975 -20.640625 10.68359375 C-21.60516602 10.64548584 -22.56970703 10.60737793 -23.56347656 10.56811523 C-24.7800293 10.52501221 -25.99658203 10.48190918 -27.25 10.4375 C-31.1275 10.293125 -35.005 10.14875 -39 10 C-39 23.2 -39 36.4 -39 50 C-22.49434586 50.11317234 -22.49434586 50.11317234 -14 46 C-12.35334637 43.81460805 -12.35334637 43.81460805 -11.5625 41.3125 C-11.25441406 40.50425781 -10.94632812 39.69601562 -10.62890625 38.86328125 C-10.42136719 38.24839844 -10.21382813 37.63351562 -10 37 C-9.01 37 -8.02 37 -7 37 C-7 48.22 -7 59.44 -7 71 C-7.99 71 -8.98 71 -10 71 C-10.17015625 70.38511719 -10.3403125 69.77023437 -10.515625 69.13671875 C-10.75796875 68.32847656 -11.0003125 67.52023437 -11.25 66.6875 C-11.59804688 65.48673828 -11.59804688 65.48673828 -11.953125 64.26171875 C-13.23855169 61.48462154 -14.40413997 60.59745232 -17 59 C-19.50359737 58.50142674 -19.50359737 58.50142674 -22.203125 58.48828125 C-23.08645508 58.45516846 -23.96978516 58.42205566 -24.87988281 58.38793945 C-25.99202148 58.36304443 -27.10416016 58.33814941 -28.25 58.3125 C-31.7975 58.209375 -35.345 58.10625 -39 58 C-39 70.87 -39 83.74 -39 97 C-35.37 96.896875 -31.74 96.79375 -28 96.6875 C-26.87207031 96.66260498 -25.74414062 96.63770996 -24.58203125 96.61206055 C-16.19357814 96.3081418 -9.13694416 94.86965924 -2.7421875 89.09375 C0.98971324 84.60877512 3.45330702 79.21723729 6 74 C7.485 74.495 7.485 74.495 9 75 C7.02 84.9 5.04 94.8 3 105 C-21.75 105 -46.5 105 -72 105 C-72 104.01 -72 103.02 -72 102 C-70.88625 101.566875 -69.7725 101.13375 -68.625 100.6875 C-64.82487666 99.30088881 -64.82487666 99.30088881 -63 96 C-62.79521547 93.27329032 -62.70629382 90.6478688 -62.70947266 87.92016602 C-62.70275543 87.09709961 -62.69603821 86.2740332 -62.68911743 85.42602539 C-62.67010047 82.70192448 -62.66621151 79.97806942 -62.6640625 77.25390625 C-62.65763758 75.36205442 -62.65090945 73.4702036 -62.64389038 71.57835388 C-62.63190868 67.61137589 -62.62821052 63.64448505 -62.62939453 59.67749023 C-62.62959787 54.59175024 -62.60228419 49.50656812 -62.56785011 44.42096043 C-62.5456249 40.51333545 -62.54155563 36.60584571 -62.54261398 32.69816399 C-62.54025186 30.82304904 -62.53139406 28.94793071 -62.51594925 27.07287788 C-62.49637575 24.45126254 -62.50209261 21.830863 -62.51416016 19.20922852 C-62.50292114 18.43350998 -62.49168213 17.65779144 -62.48010254 16.85856628 C-62.52113034 13.35504785 -62.70286417 11.38930067 -64.85848999 8.56504822 C-67.15465537 6.88697549 -69.30811412 5.89729529 -72 5 C-72 4.01 -72 3.02 -72 2 C-70.83275139 1.9845388 -70.83275139 1.9845388 -69.641922 1.96876526 C-62.30005012 1.87069238 -54.95826025 1.76816424 -47.61652088 1.66066074 C-43.84227645 1.60555169 -40.06802412 1.55215136 -36.29370117 1.50268555 C-32.6496854 1.45486416 -29.00575994 1.40251577 -25.36185265 1.34705925 C-23.97325586 1.32671598 -22.58463438 1.30799003 -21.19599342 1.29092598 C-19.24754726 1.26670363 -17.29918307 1.23614106 -15.35083008 1.20532227 C-14.2427449 1.18977798 -13.13465973 1.1742337 -11.99299622 1.15821838 C-7.89002783 0.94132368 -4.12973301 0 0 0 Z " fill="#DCA05D" transform="translate(344,671)"/>
<path d="M0 0 C0 8.58 0 17.16 0 26 C-1.32 26 -2.64 26 -4 26 C-4.12955078 25.11248047 -4.12955078 25.11248047 -4.26171875 24.20703125 C-5.23913885 18.71016408 -6.32885006 15.47620461 -11 12 C-14.57563709 11.0629026 -18.05339645 10.82153061 -21.73828125 10.68359375 C-22.70032471 10.64548584 -23.66236816 10.60737793 -24.65356445 10.56811523 C-26.46473755 10.50346069 -26.46473755 10.50346069 -28.3125 10.4375 C-32.169375 10.293125 -36.02625 10.14875 -40 10 C-40 23.2 -40 36.4 -40 50 C-22.64711334 50.18242494 -22.64711334 50.18242494 -14 46 C-12.35334637 43.81460805 -12.35334637 43.81460805 -11.5625 41.3125 C-11.25441406 40.50425781 -10.94632813 39.69601562 -10.62890625 38.86328125 C-10.42136719 38.24839844 -10.21382812 37.63351562 -10 37 C-9.01 37 -8.02 37 -7 37 C-7 47.89 -7 58.78 -7 70 C-8.98 69.505 -8.98 69.505 -11 69 C-11.2475 67.906875 -11.495 66.81375 -11.75 65.6875 C-13.08212481 61.7577318 -13.54166973 60.99096746 -17 59 C-19.60162971 58.50051541 -19.60162971 58.50051541 -22.421875 58.48828125 C-23.44667969 58.45283203 -24.47148437 58.41738281 -25.52734375 58.38085938 C-26.59082031 58.35830078 -27.65429688 58.33574219 -28.75 58.3125 C-30.36841797 58.26125977 -30.36841797 58.26125977 -32.01953125 58.20898438 C-34.67958377 58.12659337 -37.33931035 58.05741355 -40 58 C-39.93101715 63.17828686 -39.84299943 68.3557744 -39.73754883 73.53344727 C-39.70435346 75.29377355 -39.67630476 77.05420488 -39.65356445 78.81469727 C-39.6199188 81.34957525 -39.5675994 83.88349523 -39.51171875 86.41796875 C-39.50532883 87.20149216 -39.4989389 87.98501556 -39.49235535 88.7922821 C-39.37120057 93.32401321 -38.93580523 96.46412074 -36 100 C-32.42003741 101.36900354 -32.42003741 101.36900354 -29 102 C-29 102.99 -29 103.98 -29 105 C-43.52 105 -58.04 105 -73 105 C-73 104.01 -73 103.02 -73 102 C-72.15115234 101.83564453 -72.15115234 101.83564453 -71.28515625 101.66796875 C-70.55167969 101.50941406 -69.81820312 101.35085938 -69.0625 101.1875 C-68.33160156 101.03667969 -67.60070312 100.88585937 -66.84765625 100.73046875 C-65.93306641 100.36888672 -65.93306641 100.36888672 -65 100 C-63.73702948 96.21108845 -63.86059397 92.66754939 -63.87060547 88.72070312 C-63.86885315 87.87652328 -63.86710083 87.03234344 -63.86529541 86.1625824 C-63.86088986 83.36878409 -63.86381034 80.57504896 -63.8671875 77.78125 C-63.86651409 75.84216296 -63.86554375 73.90307601 -63.86428833 71.96398926 C-63.86281312 67.89867347 -63.86496028 63.83337964 -63.86962891 59.76806641 C-63.87532608 54.55240379 -63.87204614 49.33679263 -63.86605644 44.1211319 C-63.86244609 40.11663423 -63.86359161 36.11214879 -63.86618423 32.10765076 C-63.86685219 30.18428033 -63.86602966 28.26090881 -63.86370468 26.33753967 C-63.86117042 23.65142872 -63.86502975 20.96540157 -63.87060547 18.27929688 C-63.86756912 17.08227394 -63.86756912 17.08227394 -63.86447144 15.86106873 C-63.87687099 12.64305144 -63.97484951 10.07545148 -65 7 C-67.64 6.67 -70.28 6.34 -73 6 C-73 4.68 -73 3.36 -73 2 C-71.81395927 1.9845388 -71.81395927 1.9845388 -70.60395813 1.96876526 C-63.1443581 1.87069765 -55.6848389 1.76817024 -48.22536945 1.66066074 C-44.39059044 1.60554864 -40.55580365 1.55214779 -36.72094727 1.50268555 C-33.01857775 1.4548687 -29.31629727 1.40252041 -25.61403465 1.34705925 C-24.20310884 1.32671394 -22.79215868 1.3079883 -21.38118935 1.29092598 C-19.40161103 1.2667082 -17.42211346 1.23614414 -15.44262695 1.20532227 C-14.31677689 1.18977798 -13.19092682 1.1742337 -12.03096008 1.15821838 C-7.91536389 0.94338118 -4.14116227 0 0 0 Z " fill="#DCA05D" transform="translate(261,671)"/>
<path d="M0 0 C14.52 0 29.04 0 44 0 C44 1.32 44 2.64 44 4 C42.906875 4.0825 41.81375 4.165 40.6875 4.25 C37.09384004 4.65761394 37.09384004 4.65761394 35.29655457 6.52508545 C33.44296316 10.06329392 33.56053705 13.44679617 33.56762695 17.34863281 C33.5574353 18.18802399 33.54724365 19.02741516 33.53674316 19.89224243 C33.50658481 22.66260427 33.49734292 25.43262049 33.48828125 28.203125 C33.47143667 30.12556103 33.45328672 32.04798604 33.43388367 33.97039795 C33.38635361 39.02722731 33.35656365 44.08401197 33.33044434 49.14099121 C33.30065402 54.30241731 33.25411843 59.4636893 33.20898438 64.625 C33.12291704 74.74991944 33.05558696 84.87487056 33 95 C36.45921449 94.91785387 39.91682505 94.8051401 43.375 94.6875 C44.34050781 94.66494141 45.30601563 94.64238281 46.30078125 94.61914062 C54.71296239 94.30862387 63.93213192 93.4146034 70 87 C73.41178849 82.30751012 75.87049124 77.37981162 78 72 C78.99 72 79.98 72 81 72 C80.43092514 78.96274328 79.40580795 85.72192001 78 92.5625 C77.73316406 93.91311523 77.73316406 93.91311523 77.4609375 95.29101562 C76.13030688 101.86969312 76.13030688 101.86969312 75 103 C72.65746218 103.09492722 70.34453896 103.12559791 68.00170898 103.11352539 C66.90421326 103.11374443 66.90421326 103.11374443 65.7845459 103.1139679 C63.35503216 103.11326867 60.92559417 103.10547585 58.49609375 103.09765625 C56.81600486 103.0957921 55.13591543 103.09436819 53.45582581 103.09336853 C49.02526357 103.08954307 44.5947339 103.07971256 40.16418457 103.06866455 C35.64657024 103.05845103 31.12895066 103.05387104 26.61132812 103.04882812 C17.74087107 103.03809031 8.87043824 103.02101356 0 103 C0 102.01 0 101.02 0 100 C1.11375 99.566875 2.2275 99.13375 3.375 98.6875 C7.17512334 97.30088881 7.17512334 97.30088881 9 94 C9.19965653 91.27295002 9.28334677 88.64779355 9.2746582 85.92016602 C9.27976913 85.09709961 9.28488007 84.2740332 9.29014587 83.42602539 C9.30406002 80.70191196 9.30308375 77.97805102 9.30078125 75.25390625 C9.30466719 73.3620545 9.30900164 71.47020362 9.31376648 69.57835388 C9.32123261 65.61137058 9.32093457 61.64447626 9.31567383 57.67749023 C9.30987874 52.59183885 9.32680925 47.5065516 9.3500185 42.42096043 C9.36474464 38.51333992 9.36562907 34.60580733 9.36250877 30.69816399 C9.36302255 28.82306128 9.36827087 26.94795373 9.37832069 25.07287788 C9.3906461 22.45142019 9.38391703 19.83067466 9.37231445 17.20922852 C9.37995819 16.43350998 9.38760193 15.65779144 9.39547729 14.85856628 C9.36427445 11.67184463 9.19692714 9.36680014 7.6759491 6.53379822 C5.30961562 4.36817274 3.12822254 4.27806423 0 4 C0 2.68 0 1.36 0 0 Z " fill="#DCA05D" transform="translate(47,673)"/>
<path d="M0 0 C6.2295758 -0.07589768 12.45903295 -0.12853504 18.68896484 -0.16479492 C20.80945288 -0.17990645 22.92990954 -0.2003964 25.05029297 -0.22631836 C28.09350311 -0.26259786 31.13630103 -0.27970242 34.1796875 -0.29296875 C35.13181122 -0.30845261 36.08393494 -0.32393646 37.06491089 -0.33988953 C38.38605392 -0.34022942 38.38605392 -0.34022942 39.73388672 -0.34057617 C40.51110077 -0.34723801 41.28831482 -0.35389984 42.08908081 -0.36076355 C42.71968414 -0.24171158 43.35028748 -0.12265961 44 0 C44.66 0.99 45.32 1.98 46 3 C45.29875 3.103125 44.5975 3.20625 43.875 3.3125 C40.55790773 4.10571772 37.93461621 5.2659086 35 7 C33.77674906 10.66975282 33.84450724 14.05862769 33.83886719 17.88037109 C33.83390228 18.68232407 33.82893738 19.48427704 33.82382202 20.31053162 C33.80921099 22.96484229 33.80240041 25.61909321 33.796875 28.2734375 C33.79112298 30.11805218 33.78536525 31.96266685 33.77960205 33.80728149 C33.76909529 37.67588581 33.7632504 41.54446936 33.75976562 45.41308594 C33.7542795 50.36858121 33.73024759 55.32380191 33.70179367 60.27921104 C33.68316485 64.08992311 33.67796158 67.90056903 33.67642975 71.71132278 C33.67340359 73.53815844 33.66537628 75.36499294 33.65224457 77.19178391 C33.63517779 79.74834818 33.63706566 82.30424161 33.64355469 84.86083984 C33.6343399 85.61426163 33.62512512 86.36768341 33.6156311 87.14393616 C33.65105752 91.60257196 34.24253209 94.4568482 37 98 C38.99693687 99.21143606 38.99693687 99.21143606 41.1875 99.8125 C42.445625 100.204375 43.70375 100.59625 45 101 C44.67 101.66 44.34 102.32 44 103 C29.48 103 14.96 103 0 103 C0 102.01 0 101.02 0 100 C0.56589844 99.80664062 1.13179687 99.61328125 1.71484375 99.4140625 C2.81505859 99.02347656 2.81505859 99.02347656 3.9375 98.625 C4.66839844 98.36976563 5.39929688 98.11453125 6.15234375 97.8515625 C8.18682116 97.14728587 8.18682116 97.14728587 9 95 C9.13268799 92.44446768 9.20666506 89.91393561 9.23706055 87.35668945 C9.25017273 86.56784866 9.26328491 85.77900787 9.27679443 84.96626282 C9.31869691 82.34865223 9.35315183 79.7310112 9.38671875 77.11328125 C9.41237447 75.29444706 9.43815848 73.47561468 9.46406555 71.65678406 C9.51709608 67.83771472 9.56600445 64.0186165 9.61254883 60.19946289 C9.67276835 55.3146862 9.74701956 50.43023482 9.82492352 45.54571247 C9.88265892 41.78561895 9.9308934 38.02544648 9.976511 34.26518822 C9.99985949 32.46509299 10.02659605 30.66503831 10.05682945 28.86504555 C10.09820153 26.34013628 10.1262543 23.81540183 10.15112305 21.2902832 C10.16609329 20.55183167 10.18106354 19.81338013 10.19648743 19.05255127 C10.22539404 14.27988987 9.48759396 10.47808932 8 6 C5.36 5.34 2.72 4.68 0 4 C0 2.68 0 1.36 0 0 Z " fill="#DCA05D" transform="translate(134,673)"/>
<path d="M0 0 C0.76166977 0.00222061 1.52333954 0.00444122 2.30809021 0.00672913 C3.16890701 0.00680466 4.02972382 0.00688019 4.91662598 0.00695801 C5.8520372 0.01211929 6.78744843 0.01728058 7.75120544 0.02259827 C8.70422043 0.02401321 9.65723541 0.02542816 10.63912964 0.02688599 C13.69605085 0.032503 16.75289996 0.04505836 19.80979919 0.05775452 C21.87685543 0.06276733 23.94391281 0.06733061 26.01097107 0.07142639 C31.08977507 0.08247795 36.16852489 0.09975397 41.24729919 0.12025452 C40.91729919 1.44025452 40.58729919 2.76025452 40.24729919 4.12025452 C39.11292419 4.40900452 37.97854919 4.69775452 36.80979919 4.99525452 C35.63417419 5.36650452 34.45854919 5.73775452 33.24729919 6.12025452 C31.65042487 9.31400316 32.09105882 12.77768438 32.08616638 16.286026 C32.08120148 17.13005981 32.07623657 17.97409363 32.07112122 18.84370422 C32.0564853 21.64292711 32.04969577 24.44209336 32.04417419 27.24134827 C32.0384246 29.18186444 32.03266685 31.1223806 32.02690125 33.06289673 C32.01638765 37.13418341 32.01054711 41.20545031 32.00706482 45.27674866 C32.0015746 50.50038312 31.97753684 55.72375763 31.94909286 60.94731045 C31.93049578 64.95610322 31.92526249 68.96483296 31.92372894 72.97366524 C31.92069603 74.89984117 31.91264613 76.82601583 31.89954376 78.75214958 C31.88254181 81.44333229 31.88434888 84.1338743 31.89085388 86.8250885 C31.8816391 87.62467484 31.87242432 88.42426117 31.8629303 89.24807739 C31.85943335 93.39355202 31.85943335 93.39355202 33.57035828 97.06448364 C35.98578722 98.58519287 38.51833141 99.33188605 41.24729919 100.12025452 C41.24729919 101.11025452 41.24729919 102.10025452 41.24729919 103.12025452 C26.72729919 103.12025452 12.20729919 103.12025452 -2.75270081 103.12025452 C-2.75270081 102.13025452 -2.75270081 101.14025452 -2.75270081 100.12025452 C-2.19840393 99.9384967 -1.64410706 99.75673889 -1.07301331 99.56947327 C-0.34856018 99.31810608 0.37589294 99.06673889 1.12229919 98.80775452 C1.84159607 98.5641217 2.56089294 98.32048889 3.30198669 98.06947327 C5.58724825 97.15689905 5.58724825 97.15689905 7.24729919 94.12025452 C7.44695573 91.39320454 7.53064597 88.76804807 7.5219574 86.04042053 C7.52706833 85.21735413 7.53217926 84.39428772 7.53744507 83.54627991 C7.55135921 80.82216648 7.55038294 78.09830553 7.54808044 75.37416077 C7.55196638 73.48230902 7.55630084 71.59045814 7.56106567 69.6986084 C7.56853181 65.73162509 7.56823376 61.76473078 7.56297302 57.79774475 C7.55717793 52.71209336 7.57410844 47.62680611 7.5973177 42.54121494 C7.61204384 38.63359443 7.61292826 34.72606184 7.60980797 30.8184185 C7.61032175 28.9433158 7.61557006 27.06820824 7.62561989 25.1931324 C7.6379453 22.57167471 7.63121622 19.95092918 7.61961365 17.32948303 C7.62725739 16.5537645 7.63490112 15.77804596 7.64277649 14.9788208 C7.61157365 11.79209915 7.44422633 9.48705466 5.92324829 6.65405273 C3.55691481 4.48842725 1.37552173 4.39831874 -1.75270081 4.12025452 C-2.08270081 3.13025452 -2.41270081 2.14025452 -2.75270081 1.12025452 C-1.75270081 0.12025452 -1.75270081 0.12025452 0 0 Z " fill="#DCA05D" transform="translate(397.75270080566406,672.8797454833984)"/>
<path d="M0 0 C11.8 0 11.8 0 17 4 C21.15442881 8.85083595 22.25500963 14.33220192 21.81640625 20.640625 C20.94894749 27.18680861 19.1818729 31.74788899 14 36 C10.71888148 37.88503476 7.74787401 38.48892627 4 39 C4 39.66 4 40.32 4 41 C4.73605469 41.10957031 5.47210937 41.21914063 6.23046875 41.33203125 C15.01923111 42.76006001 19.61415163 44.57626305 25 52 C27.93264416 59.30106202 28.29743809 67.87695759 25.9375 75.4375 C24.06545181 79.66528347 20.81761907 82.49251838 17 85 C11.61483519 86.79505494 5.67646212 86 0 86 C0 57.62 0 29.24 0 0 Z " fill="#FEFEFE" transform="translate(778,681)"/>
</svg>
