<?xml version="1.0" encoding="UTF-8"?>
<svg version="1.1" xmlns="http://www.w3.org/2000/svg" width="667" height="597">
<path d="M0 0 C0.66 0 1.32 0 2 0 C4.24526199 8.82498048 6.48865136 17.6504345 8.72985268 26.47644711 C9.7713472 30.57769914 10.81341193 34.67880426 11.85693359 38.77954102 C13.06527147 43.52835368 14.27172945 48.27764068 15.4765625 53.02734375 C15.67305641 53.80172161 15.86955032 54.57609947 16.0719986 55.37394333 C18.89289507 66.50173543 21.64007876 77.64364684 24.25601196 88.82176208 C24.4749411 89.75142288 24.69387024 90.68108368 24.91943359 91.63891602 C25.10589447 92.43991226 25.29235535 93.24090851 25.48446655 94.06617737 C25.94682605 96.06175633 25.94682605 96.06175633 27 98 C29.12066934 98.6548259 29.12066934 98.6548259 31.71484375 99.078125 C33.19573486 99.36006714 33.19573486 99.36006714 34.70654297 99.64770508 C35.77275879 99.8464624 36.83897461 100.04521973 37.9375 100.25 C61.4311705 104.91155287 82.42000331 113.85324992 103 126 C103.9075 126.5259375 104.815 127.051875 105.75 127.59375 C107.7509468 128.84434175 109.43625286 130.11632969 111.1875 131.6875 C114.13961107 134.27059718 117.13958463 136.78029211 120.1875 139.25 C121.00605469 139.91515625 121.82460938 140.5803125 122.66796875 141.265625 C124.87689398 143.02156955 124.87689398 143.02156955 127.10546875 144.01953125 C129.35853845 145.18555289 130.510787 146.48665464 132.125 148.4375 C134.9093459 151.74317023 137.78927923 154.91379696 140.75 158.0625 C146.73772105 164.61786433 151.91645799 171.73041084 157 179 C157.39864258 179.56509277 157.79728516 180.13018555 158.20800781 180.71240234 C161 184.75821719 161 184.75821719 161 187 C161.66 187.33 162.32 187.66 163 188 C164.2908296 190.27258733 165.47675444 192.53106988 166.625 194.875 C166.97328857 195.57955322 167.32157715 196.28410645 167.68041992 197.01000977 C170.3937953 202.5809143 172.8994529 208.23073996 175.3125 213.9375 C175.80000732 215.08871338 175.80000732 215.08871338 176.29736328 216.26318359 C183.89698646 234.55039308 188.78762637 254.22956855 190 274 C190.06558105 274.97743164 190.13116211 275.95486328 190.19873047 276.96191406 C192.85275161 318.70069255 186.66462938 361.01372359 168.08496094 398.79345703 C167.04754128 400.90331275 166.04038377 403.02517141 165.0390625 405.15234375 C155.45857631 425.22050357 143.0372332 443.66102151 128.41552734 460.37963867 C127.40502065 461.53637081 126.40081614 462.69862093 125.40087891 463.86450195 C115.34226898 475.52614028 104.33486522 486.75291395 92 496 C91.38141113 496.47324707 90.76282227 496.94649414 90.12548828 497.43408203 C78.35748452 506.40589424 66.06585561 514.06166916 53 521 C52.27490234 521.38526855 51.54980469 521.77053711 50.80273438 522.16748047 C33.16326357 531.36615635 13.59482663 537.63842711 -6 541 C-7.00184326 541.17587646 -8.00368652 541.35175293 -9.03588867 541.53295898 C-18.42197114 543.03936728 -27.58446872 543.36059747 -37.0625 543.3125 C-37.83001587 543.31034485 -38.59753174 543.3081897 -39.38830566 543.30596924 C-58.44619116 543.22037253 -75.75065066 540.4068648 -94.12109375 535.3046875 C-97.72925837 534.30909498 -101.28512328 533.5085474 -105 533 C-105 532.34 -105 531.68 -105 531 C-105.64839844 530.91105469 -106.29679688 530.82210937 -106.96484375 530.73046875 C-111.06928807 529.74265525 -114.72828487 528.05660079 -118.5625 526.3125 C-119.36969482 525.94656738 -120.17688965 525.58063477 -121.00854492 525.20361328 C-122.61979226 524.46951657 -124.22961476 523.73228325 -125.83789062 522.99169922 C-127.5881591 522.18889992 -129.34746718 521.40582792 -131.109375 520.62890625 C-146.51032894 513.48482212 -160.89273432 502.70877119 -174 492 C-174.82757813 491.32469238 -174.82757813 491.32469238 -175.671875 490.63574219 C-187.78847157 480.68184894 -199.22400022 469.94405742 -208.9453125 457.60546875 C-210.27994324 455.91307577 -211.64850018 454.24670417 -213.0546875 452.61328125 C-238.45675493 422.97753591 -271.45555553 367.68036986 -269 327 C-268.34 327 -267.68 327 -267 327 C-266.79955078 327.69335449 -266.59910156 328.38670898 -266.39257812 329.10107422 C-262.17986329 343.54705611 -257.72356745 357.51675219 -251 371 C-250.505 371.99845947 -250.505 371.99845947 -250 373.01708984 C-242.85881299 387.45460036 -242.85881299 387.45460036 -233 400 C-232.19635096 401.26329003 -231.40679415 402.53556955 -230.625 403.8125 C-226.5553311 410.01199562 -221.4258127 415.18555755 -216.34667969 420.55175781 C-214.72677234 422.29383367 -213.20477151 424.10576807 -211.6875 425.9375 C-201.57598716 437.53887342 -189.51970355 447.14997326 -177 456 C-176.4028418 456.42732422 -175.80568359 456.85464844 -175.19042969 457.29492188 C-130.05278028 489.38946794 -73.26609399 506.2044103 -18.0625 496.96875 C17.07188442 490.47827593 47.93298595 474.06569945 74.45703125 450.37548828 C75.90898194 449.08113857 77.37590633 447.80364189 78.84375 446.52734375 C84.01236946 441.98923359 88.6303899 437.30415099 93 432 C93.97775239 430.84625907 94.95562864 429.69262311 95.93359375 428.5390625 C128.96557676 389.18412565 157.5394124 335.23585738 157.3125 282.875 C157.31067719 282.20257263 157.30885437 281.53014526 157.30697632 280.83734131 C157.11189838 237.85283841 139.95350831 199.02201796 109.71630859 168.64599609 C104.83856717 163.96808248 99.4970634 159.91630966 94 156 C93.45827148 155.61005859 92.91654297 155.22011719 92.35839844 154.81835938 C67.94989983 137.50381112 38.77966763 128.34978664 9 127 C8.11054688 126.95875 7.22109375 126.9175 6.3046875 126.875 C-33.43266854 125.98948789 -73.72066932 140.61017789 -102.7421875 167.90332031 C-104.16552091 169.26464523 -105.5828384 170.63225129 -107 172 C-107.85207031 172.78890625 -108.70414063 173.5778125 -109.58203125 174.390625 C-136.32737572 199.83029124 -151.98045368 238.95654729 -153.21875 275.5234375 C-153.65878981 295.96619245 -150.63973093 314.47930254 -144.58886719 333.9609375 C-144 336 -144 336 -143.4453125 339.03125 C-143.29835938 339.6809375 -143.15140625 340.330625 -143 341 C-142.34 341.33 -141.68 341.66 -141 342 C-140.33333333 344 -139.66666667 346 -139 348 C-138.23273771 349.67804126 -137.43831707 351.3437907 -136.625 353 C-136.20476562 353.86625 -135.78453125 354.7325 -135.3515625 355.625 C-134.08625716 357.84842672 -132.83002565 359.25199231 -131 361 C-130.32558869 362.6635479 -129.6599679 364.33066942 -129 366 C-127.15703362 368.93722767 -125.4524619 371.5475381 -123 374 C-122.09119599 375.19860839 -121.19707773 376.40840268 -120.3125 377.625 C-117.07875859 381.95479319 -113.66557044 386.0295562 -110 390 C-109.22011719 390.845625 -108.44023437 391.69125 -107.63671875 392.5625 C-96.71445731 403.95401415 -83.99458207 412.75023889 -70 420 C-69.35337402 420.33628418 -68.70674805 420.67256836 -68.04052734 421.01904297 C-31.28500426 439.85237838 10.56786709 443.03977003 49.95703125 430.734375 C57.90707305 428.09300297 65.47852944 424.66853888 73 421 C73.70431152 420.65694824 74.40862305 420.31389648 75.13427734 419.96044922 C79.10994836 418.01289829 83.06325123 416.02533699 87 414 C84.33131943 420.33625274 78.67598764 425.07821037 74 430 C73.50032715 430.53367187 73.0006543 431.06734375 72.48583984 431.6171875 C54.64121053 450.60206721 33.85227393 466.55766634 7 468 C-41.22011655 469.04400794 -88.0175563 451.19153362 -123 418 C-124.24231905 416.94918468 -125.49140814 415.9062691 -126.75 414.875 C-129.91704008 412.1905565 -132.58957194 409.20022961 -135.26953125 406.03515625 C-136.34500867 404.77031711 -137.44309289 403.52392252 -138.57421875 402.30859375 C-171.46161139 366.71376443 -184.36320426 319.24005067 -183.18359375 271.83740234 C-181.16188085 229.58037668 -163.03360941 188.55901796 -134 158 C-132.82666277 156.63068782 -131.65946034 155.25608213 -130.5 153.875 C-103.0441279 122.56012283 -63.11875889 105.88105697 -23.09692383 98.46142578 C-20.95609938 98.07994354 -20.95609938 98.07994354 -19 97 C-18.59491684 94.9518903 -18.59491684 94.9518903 -18.48536682 92.50759888 C-18.07888871 87.5257837 -17.26895906 82.76338791 -16.23413086 77.87841797 C-15.97056541 76.60338661 -15.97056541 76.60338661 -15.70167542 75.30259705 C-15.12759287 72.53142491 -14.54629299 69.76182241 -13.96484375 66.9921875 C-13.56225909 65.05601177 -13.16013106 63.11974105 -12.75843811 61.18338013 C-11.70591124 56.1157845 -10.64723107 51.04949395 -9.58721924 45.98345947 C-8.50426195 40.80225407 -7.42719131 35.61982552 -6.34960938 30.4375 C-4.23879889 20.29046802 -2.12147907 10.14480642 0 0 Z " fill="#DCA05D" transform="translate(295,17)"/>
<path d="M0 0 C0.93585938 0.79083984 0.93585938 0.79083984 1.890625 1.59765625 C3.57707621 2.93231589 5.26463878 4.26557206 6.953125 5.59765625 C20.41580905 16.42993895 20.41580905 16.42993895 24.765625 22.47265625 C26.60631866 24.9802017 28.30973122 26.99726916 30.578125 29.16015625 C32.87184374 31.57785978 33.7874751 33.61061996 35.03149414 36.65063477 C35.90063772 38.62034776 36.89254187 40.43761242 37.9765625 42.296875 C54.23731557 70.39582338 54.54374505 103.41917709 47.203125 134.34765625 C38.84573635 163.61440508 16.48753443 189.00342937 -9.64624023 203.90917969 C-38.13799341 219.42467816 -71.1098328 222.66829942 -102.24194336 214.00561523 C-115.60021513 210.01335634 -127.43729794 203.50816446 -138.6328125 195.28515625 C-140.88536681 193.40995821 -140.88536681 193.40995821 -143.109375 193.59765625 C-144.31787597 192.15416898 -145.52178281 190.70643417 -146.6953125 189.234375 C-148.43399857 187.22191792 -150.45744818 185.64902452 -152.51953125 183.98046875 C-159.71347607 177.72332755 -164.87829102 169.47787633 -170.109375 161.59765625 C-170.65722656 160.79714844 -171.20507812 159.99664062 -171.76953125 159.171875 C-188.06381544 134.0135002 -191.15830576 101.24587232 -185.10546875 72.45703125 C-179.90520704 50.31699486 -169.19580797 32.37841169 -154.109375 15.59765625 C-153.53960937 14.94410156 -152.96984375 14.29054687 -152.3828125 13.6171875 C-116.25979655 -25.3771451 -42.23095976 -34.42741284 0 0 Z " fill="#DCA05D" transform="translate(365.109375,200.40234375)"/>
<path d="M0 0 C0.99 0.33 1.98 0.66 3 1 C2.80229004 1.66209473 2.60458008 2.32418945 2.40087891 3.00634766 C0.45803016 9.77011981 -0.7880755 16.39428885 -1.625 23.375 C-1.74617187 24.3134375 -1.86734375 25.251875 -1.9921875 26.21875 C-3.49926345 38.24259508 -4.12871743 50.2377422 -4.38842773 62.34350586 C-4.65911982 74.58390585 -5.12389405 86.7869058 -6 99 C-6.08306396 100.17377197 -6.16612793 101.34754395 -6.25170898 102.55688477 C-6.86466234 110.59398702 -6.86466234 110.59398702 -8 114 C-8.38386441 115.42767564 -8.75922839 116.85764786 -9.12890625 118.2890625 C-15.23291244 141.25682643 -25.08148885 159.36353907 -41 177 C-41.94359375 178.05380859 -41.94359375 178.05380859 -42.90625 179.12890625 C-60.02992969 197.21789141 -83.73715413 206.2689928 -106.546875 214.6796875 C-117.8339691 218.89705739 -127.40910736 223.93616605 -133 235 C-133.598125 235.99 -134.19625 236.98 -134.8125 238 C-135.4003125 238.99 -135.4003125 238.99 -136 240 C-137.13241293 236.60621369 -136.85213161 234.33490517 -136.03125 230.87890625 C-135.79365967 229.87174561 -135.55606934 228.86458496 -135.3112793 227.8269043 C-135.04355713 226.74965088 -134.77583496 225.67239746 -134.5 224.5625 C-134.22518799 223.44593018 -133.95037598 222.32936035 -133.66723633 221.17895508 C-123.25599121 179.88306962 -102.68181665 141.79843618 -77 108 C-75.6623067 106.14897638 -74.32869715 104.29499177 -73 102.4375 C-66.38816535 93.3360239 -59.43742398 84.44248127 -52 76 C-52.33 75.67 -52.66 75.34 -53 75 C-69.2597153 87.73802581 -85.10963486 101.09780702 -97.94140625 117.390625 C-99.28771967 119.09714751 -100.66979041 120.77620571 -102.08984375 122.421875 C-119.10663282 142.23889518 -132.10395269 166.52760219 -141 191 C-141.66082968 192.66898962 -142.32537418 194.33653908 -143 196 C-143.66 196 -144.32 196 -145 196 C-156.24918993 161.45151701 -158.88557773 126.40375993 -142.08203125 93.0703125 C-137.95077202 85.32420145 -132.89364932 78.48666357 -127 72 C-126.5349707 71.4858252 -126.06994141 70.97165039 -125.59082031 70.44189453 C-103.96519755 46.83805906 -73.88193075 35.23559034 -45 23 C-34.66292961 18.60460779 -24.59687978 13.86662135 -14.625 8.6875 C-13.63056885 8.1711499 -12.6361377 7.6547998 -11.61157227 7.12280273 C-6.54036015 4.52317289 -6.54036015 4.52317289 -1.88818359 1.27270508 C-1.26508301 0.8527124 -0.64198242 0.43271973 0 0 Z " fill="#DCA05D" transform="translate(649,80)"/>
<path d="M0 0 C2.46417463 23.28321069 4.62473288 46.588671 6.58041763 69.91966248 C6.74949746 71.93152035 6.92002522 73.94325091 7.09091187 75.95495605 C7.41380855 79.77041173 7.73126682 83.586279 8.046875 87.40234375 C8.14355972 88.54152756 8.24024445 89.68071136 8.33985901 90.85441589 C8.83428144 96.92800332 9.09777392 102.9063607 9 109 C5.112721 107.17369854 2.09485724 104.67832052 -1.125 101.875 C-2.27640559 100.8856259 -3.42876071 99.89735583 -4.58203125 98.91015625 C-5.1538916 98.42047363 -5.72575195 97.93079102 -6.31494141 97.42626953 C-10.13534571 94.19259785 -14.06872387 91.09710016 -18 88 C-18.26554687 88.63808594 -18.53109375 89.27617187 -18.8046875 89.93359375 C-19.33449219 91.17302734 -19.33449219 91.17302734 -19.875 92.4375 C-20.22304688 93.26121094 -20.57109375 94.08492188 -20.9296875 94.93359375 C-22 97 -22 97 -24 98 C-24.695896 99.99001839 -25.35517 101.99285309 -26 104 C-27.17384937 106.78612441 -28.45949521 109.51629711 -29.75 112.25 C-30.07226562 112.94996094 -30.39453125 113.64992188 -30.7265625 114.37109375 C-39.20696677 132.41660516 -51.39548312 149.61190396 -64 165 C-64.44005371 165.54156738 -64.88010742 166.08313477 -65.33349609 166.64111328 C-72.45492153 175.34065256 -80.20302729 183.40691471 -88.125 191.375 C-89.48383301 192.74773071 -89.48383301 192.74773071 -90.87011719 194.14819336 C-96.93890582 200.18899752 -103.27710232 205.70065252 -110 211 C-110.67417969 211.53882813 -111.34835937 212.07765625 -112.04296875 212.6328125 C-122.75604107 221.12544034 -134.10277048 228.28902158 -146 235 C-146.88010742 235.50031738 -147.76021484 236.00063477 -148.66699219 236.51611328 C-188.09058085 258.69455529 -234.60266368 271.58611584 -280 271 C-280 270.34 -280 269.68 -280 269 C-279.30664551 268.79955078 -278.61329102 268.59910156 -277.89892578 268.39257812 C-263.42573058 264.17192738 -249.55822412 259.60345369 -236 253 C-234.63569605 252.35617847 -233.27111364 251.71294667 -231.90625 251.0703125 C-211.39149384 241.26299296 -193.29114346 227.94567936 -175.83056641 213.51025391 C-174.16784445 212.13847503 -172.49845856 210.77564836 -170.82421875 209.41796875 C-166.8133799 206.16158921 -162.8456808 202.88775798 -159 199.4375 C-155.1542929 196.03040715 -151.03200188 193.08880728 -146.859375 190.09765625 C-128.46997071 176.60706868 -110.82150677 160.17828608 -97 142 C-96.07355701 140.82501566 -95.14642576 139.65057379 -94.21875 138.4765625 C-86.19868385 128.19623647 -79.44957523 117.31946843 -73 106 C-72.61859863 105.33645508 -72.23719727 104.67291016 -71.84423828 103.98925781 C-65.62082276 93.08034781 -60.7960794 81.58996701 -56 70 C-65.96151759 67.45140394 -75.92773184 65.07740531 -86 63 C-86 62.34 -86 61.68 -86 61 C-84.64916992 59.80175781 -84.64916992 59.80175781 -82.73046875 58.453125 C-82.01640869 57.94531494 -81.30234863 57.43750488 -80.56665039 56.91430664 C-79.38897095 56.09047485 -79.38897095 56.09047485 -78.1875 55.25 C-76.52279522 54.06730977 -74.85875337 52.88368598 -73.1953125 51.69921875 C-72.33325195 51.08739746 -71.47119141 50.47557617 -70.58300781 49.84521484 C-66.54458897 46.96030278 -62.55266701 44.01361737 -58.5625 41.0625 C-57.77641357 40.48209961 -56.99032715 39.90169922 -56.18041992 39.30371094 C-54.58376301 38.12481147 -52.98732735 36.94561228 -51.39111328 35.76611328 C-47.43008833 32.84043894 -43.46482285 29.92052413 -39.5 27 C-37.93097738 25.84376656 -36.36196699 24.68751652 -34.79296875 23.53125 C-31.48376085 21.09281451 -28.17374918 18.65547455 -24.86328125 16.21875 C-24.01765625 15.59613281 -23.17203125 14.97351563 -22.30078125 14.33203125 C-20.69812842 13.15205609 -19.09527917 11.97234764 -17.4921875 10.79296875 C-16.75871094 10.25285156 -16.02523438 9.71273438 -15.26953125 9.15625 C-14.20726318 8.37701172 -14.20726318 8.37701172 -13.12353516 7.58203125 C-11.66184927 6.49307694 -10.21423143 5.38506571 -8.77880859 4.26171875 C-8.07191895 3.71128906 -7.3650293 3.16085937 -6.63671875 2.59375 C-5.69445435 1.84641602 -5.69445435 1.84641602 -4.7331543 1.08398438 C-3 0 -3 0 0 0 Z " fill="#DCA05D" transform="translate(584,301)"/>
<path d="M0 0 C-0.46920411 9.59441508 -1.94194229 18.6416621 -4 28 C-4.6305127 28.07927734 -5.26102539 28.15855469 -5.91064453 28.24023438 C-57.64413134 34.958628 -107.01957749 54.87016868 -145.5234375 90.7109375 C-147.61682183 92.64583216 -149.75082207 94.48576906 -151.9375 96.3125 C-174.16778693 115.84275208 -190.70350652 142.32719071 -203 169 C-203.3619043 169.77891602 -203.72380859 170.55783203 -204.09667969 171.36035156 C-229.07940859 225.69192994 -234.30285938 291.02551461 -213.59179688 347.65820312 C-212.34555031 351.24344618 -211.87268116 353.39109965 -213 357 C-239.74197839 301.03166319 -242.24073462 234.39145261 -222 176 C-221.59523438 174.7934375 -221.19046875 173.586875 -220.7734375 172.34375 C-204.97626439 126.8348261 -173.81318363 82.65781503 -134.68310547 54.22998047 C-132.91660161 52.93905409 -131.17847151 51.61538378 -129.44140625 50.28515625 C-95.22065944 24.30020251 -44.20698992 -1.88732633 0 0 Z " fill="#DCA05D" transform="translate(275,34)"/>
<path d="M0 0 C51.53956573 -0.94088457 102.34411782 21.7840819 143.78955078 50.59228516 C146.03019223 52.14499093 146.03019223 52.14499093 149 53 C150.69165872 54.6412941 152.35319337 56.31370718 154 58 C156.40121393 60.16717068 158.85710585 62.26958354 161.3125 64.375 C162.64600536 65.52323775 163.97934015 66.67167361 165.3125 67.8203125 C165.94800781 68.36719727 166.58351563 68.91408203 167.23828125 69.47753906 C170.04292228 71.90128372 172.81560153 74.36093381 175.58203125 76.828125 C177.01304659 78.10030145 177.01304659 78.10030145 179 79 C179 79.66 179 80.32 179 81 C179.66 81 180.32 81 181 81 C181 81.66 181 82.32 181 83 C181.66 83 182.32 83 183 83 C183.37125 83.66 183.7425 84.32 184.125 85 C186.80290859 89.28465375 190.3740994 92.51266885 194 96 C194.66 96.66 195.32 97.32 196 98 C195.69900804 101.61942834 193.95755074 103.39705568 191.5 105.9375 C185.51197419 112.44434393 179.70820125 119.9395415 176 128 C171.95237032 126.4719061 170.2713745 123.97556759 167.8125 120.5 C164.1819458 115.4786666 160.30743771 110.84154065 156.09765625 106.28515625 C154.27160799 104.2958858 152.5400992 102.261485 150.8125 100.1875 C135.43341346 82.70648819 115.98709979 69.63051156 96 58 C95.39865234 57.64196289 94.79730469 57.28392578 94.17773438 56.91503906 C90.23192844 54.59539675 86.22059021 52.75974003 82 51 C80.76134073 50.41907712 79.52575653 49.83156236 78.29296875 49.23828125 C57.18775212 39.23875009 34.94501642 33.85536892 12 30 C10.76765625 29.79246094 9.5353125 29.58492187 8.265625 29.37109375 C7.51796875 29.24863281 6.7703125 29.12617187 6 29 C0 5.76595745 0 5.76595745 0 0 Z " fill="#DCA05D" transform="translate(319,33)"/>
<path d="M0 0 C2 1 2 1 2 1 Z " fill="#DDA15E" transform="translate(254,412)"/>
<path d="M0 0 C2 1 2 1 2 1 Z " fill="#DDA15E" transform="translate(210,76)"/>
<path d="" fill="#DDA15E" transform="translate(0,0)"/>
<path d="" fill="#DDA15E" transform="translate(0,0)"/>
<path d="" fill="#DDA15E" transform="translate(0,0)"/>
<path d="" fill="#DDA15E" transform="translate(0,0)"/>
<path d="" fill="#DDA15E" transform="translate(0,0)"/>
<path d="" fill="#DDA15E" transform="translate(0,0)"/>
<path d="" fill="#DDA15E" transform="translate(0,0)"/>
<path d="" fill="#DDA15E" transform="translate(0,0)"/>
<path d="" fill="#DDA15E" transform="translate(0,0)"/>
<path d="" fill="#DDA15E" transform="translate(0,0)"/>
<path d="" fill="#DDA15E" transform="translate(0,0)"/>
<path d="" fill="#DDA15E" transform="translate(0,0)"/>
<path d="" fill="#DDA15E" transform="translate(0,0)"/>
<path d="" fill="#DDA15E" transform="translate(0,0)"/>
<path d="" fill="#DDA15E" transform="translate(0,0)"/>
<path d="" fill="#DDA15E" transform="translate(0,0)"/>
<path d="" fill="#DDA15E" transform="translate(0,0)"/>
<path d="" fill="#DDA15E" transform="translate(0,0)"/>
<path d="" fill="#DDA15E" transform="translate(0,0)"/>
<path d="" fill="#DDA15E" transform="translate(0,0)"/>
<path d="" fill="#DDA15E" transform="translate(0,0)"/>
<path d="" fill="#DDA15E" transform="translate(0,0)"/>
<path d="" fill="#DDA15E" transform="translate(0,0)"/>
<path d="" fill="#DDA15E" transform="translate(0,0)"/>
<path d="" fill="#DDA15E" transform="translate(0,0)"/>
<path d="" fill="#DDA15E" transform="translate(0,0)"/>
<path d="" fill="#DDA15E" transform="translate(0,0)"/>
<path d="" fill="#DDA15E" transform="translate(0,0)"/>
<path d="" fill="#DDA15E" transform="translate(0,0)"/>
<path d="" fill="#DDA15E" transform="translate(0,0)"/>
<path d="" fill="#DDA15E" transform="translate(0,0)"/>
<path d="" fill="#DDA15E" transform="translate(0,0)"/>
<path d="" fill="#DDA15E" transform="translate(0,0)"/>
<path d="" fill="#DDA15E" transform="translate(0,0)"/>
<path d="" fill="#DDA15E" transform="translate(0,0)"/>
<path d="" fill="#DDA15E" transform="translate(0,0)"/>
<path d="" fill="#DDA15E" transform="translate(0,0)"/>
<path d="" fill="#DDA15E" transform="translate(0,0)"/>
<path d="" fill="#DDA15E" transform="translate(0,0)"/>
<path d="" fill="#DDA15E" transform="translate(0,0)"/>
<path d="" fill="#DDA15E" transform="translate(0,0)"/>
<path d="" fill="#DDA15E" transform="translate(0,0)"/>
<path d="" fill="#DDA15E" transform="translate(0,0)"/>
</svg>
