<?xml version="1.0" encoding="UTF-8"?>
<svg version="1.1" xmlns="http://www.w3.org/2000/svg" width="965" height="565">
<path d="M0 0 C0.99 0 1.98 0 3 0 C3.17128418 0.78238037 3.34256836 1.56476074 3.51904297 2.37084961 C4.29567228 5.89504763 5.08515087 9.41624239 5.875 12.9375 C6.14441406 14.16919922 6.41382813 15.40089844 6.69140625 16.66992188 C6.95566406 17.83974609 7.21992187 19.00957031 7.4921875 20.21484375 C7.85352783 21.84087524 7.85352783 21.84087524 8.22216797 23.49975586 C8.47885254 24.32483643 8.73553711 25.14991699 9 26 C9.66 26.33 10.32 26.66 11 27 C10.93304932 27.87688477 10.86609863 28.75376953 10.79711914 29.65722656 C10.80867179 35.76504313 12.71471678 41.61741467 14.24609375 47.484375 C14.58070276 48.78979856 14.91459926 50.09540495 15.24781799 51.40118408 C16.12278447 54.82139544 17.00794529 58.23888871 17.8951416 61.65594482 C18.61849853 64.44883846 19.33474233 67.2435324 20.05059719 70.03835678 C21.52956337 75.81229214 23.01412673 81.58478897 24.50952148 87.35449219 C24.77377426 88.37484558 25.03802704 89.39519897 25.31028748 90.44647217 C25.81484401 92.31449561 26.3881104 94.16433119 27 96 C27.67297119 96.0424585 28.34594238 96.08491699 29.03930664 96.12866211 C35.7462858 96.63301202 41.96824241 97.74600603 48.4375 99.5625 C49.374729 99.82208496 50.31195801 100.08166992 51.27758789 100.34912109 C63.71117277 103.9146881 75.83239323 108.44389254 87 115 C88.67697961 115.69610475 90.35408042 116.3919716 92.03515625 117.078125 C95.43737353 118.67439394 98.58115056 120.70748839 101.765625 122.6953125 C104.04603204 124.12939324 104.04603204 124.12939324 107 125 C107 125.66 107 126.32 107 127 C107.99 127 108.98 127 110 127 C111.76811934 128.61656626 113.37097596 130.2501532 115 132 C116.36760446 133.42380739 117.74302738 134.84013436 119.125 136.25 C119.78757812 136.93578125 120.45015625 137.6215625 121.1328125 138.328125 C122.99636642 140.21948202 122.99636642 140.21948202 126 141 C127.68359375 142.70703125 127.68359375 142.70703125 129.4375 144.8125 C131.37967334 147.11265868 133.2782916 149.27115592 135.4375 151.375 C137 153 137 153 137 155 C137.54785156 155.19335938 138.09570312 155.38671875 138.66015625 155.5859375 C142.01958172 157.61617459 144.09551488 160.54576037 146.4375 163.625 C146.92323486 164.25510986 147.40896973 164.88521973 147.90942383 165.53442383 C157 177.4414102 157 177.4414102 157 182 C157.66 182 158.32 182 159 182 C163.41735486 190.51750605 167.58525921 199.09321471 171.3125 207.9375 C171.63734375 208.70489502 171.9621875 209.47229004 172.296875 210.26293945 C175.69515639 218.43696951 178.31175923 226.75684503 180.5625 235.3125 C180.77068359 236.07755859 180.97886719 236.84261719 181.19335938 237.63085938 C188.90196935 266.79791969 188.22856817 297.92375815 183.62109375 327.515625 C183.08586384 331.04270934 182.86562085 334.42434599 183 338 C182.34 338 181.68 338 181 338 C180.89333008 338.58555664 180.78666016 339.17111328 180.67675781 339.77441406 C176.92245421 359.52127695 170.479241 378.07151502 160.82055664 395.67138672 C158.94500123 399.11238409 157.33204069 402.50375916 156 406.1875 C149.90873953 422.17705874 135.83509626 437.00552829 125 450 C124.17628906 451.0209375 123.35257813 452.041875 122.50390625 453.09375 C118.39323209 458.17113429 114.29475698 462.93666929 109.24609375 467.1015625 C106.88982625 469.09312077 104.65943325 471.18328224 102.41821289 473.30200195 C96.78950704 478.60944405 91.04220162 483.41699014 84.78125 487.97265625 C82.21839897 489.84080188 79.73066088 491.77481625 77.25 493.75 C71.72372684 498.05929604 66.29834277 501.46907529 59.82958984 504.18310547 C56.90379226 505.48944637 54.16110477 507.1087073 51.375 508.6875 C14.94735195 528.56301725 -29.51968818 535.53517608 -70.26953125 527.65625 C-73.61499567 527.06772851 -76.61541608 526.87248035 -80 527 C-80 526.34 -80 525.68 -80 525 C-81.65 525.33 -83.3 525.66 -85 526 C-85 525.34 -85 524.68 -85 524 C-86.87422152 523.51779737 -88.74941754 523.03938167 -90.625 522.5625 C-91.66914063 522.29566406 -92.71328125 522.02882813 -93.7890625 521.75390625 C-96.84891124 521.03547461 -99.8948051 520.48023284 -103 520 C-103 519.34 -103 518.68 -103 518 C-103.69738281 517.88785156 -104.39476562 517.77570312 -105.11328125 517.66015625 C-108.34434937 516.92125163 -111.15088351 515.76154023 -114.1875 514.4375 C-117.9666504 512.63354906 -117.9666504 512.63354906 -122 512 C-122.433125 511.525625 -122.86625 511.05125 -123.3125 510.5625 C-125.4462981 508.58676102 -127.18956072 508.5177125 -130 508 C-130.33 507.34 -130.66 506.68 -131 506 C-133.25498639 504.76311225 -135.49736687 503.61219461 -137.8125 502.5 C-138.44220703 502.19191406 -139.07191406 501.88382812 -139.72070312 501.56640625 C-142.24597426 500.33159371 -144.7743149 499.10562367 -147.3203125 497.9140625 C-149.38354917 496.79127789 -150.72964012 495.22312868 -152.33984375 493.5390625 C-154.46812404 491.56602148 -156.76329693 489.93645084 -159.125 488.25 C-170.10403185 480.39940196 -180.57440992 471.67363193 -190 462 C-190.76183594 461.27103516 -190.76183594 461.27103516 -191.5390625 460.52734375 C-195.95895849 456.25881406 -199.83799474 451.66410468 -203.68359375 446.875 C-205.17495378 445.0240034 -206.68661746 443.18909151 -208.22265625 441.375 C-219.67041487 427.80728608 -228.58730291 412.58326955 -237 397 C-237.4655127 396.14003418 -237.93102539 395.28006836 -238.41064453 394.39404297 C-245.07722809 381.85423482 -250.03611403 368.86567533 -254.5625 355.4375 C-254.95260254 354.29388504 -254.95260254 354.29388504 -255.35058594 353.12716675 C-259.27281741 341.54299975 -262.19554164 330.3561489 -262 318 C-261.34 318 -260.68 318 -260 318 C-259.82573486 318.64622314 -259.65146973 319.29244629 -259.47192383 319.95825195 C-255.78726213 333.35028604 -251.49685377 345.94199525 -245.4375 358.4375 C-244.64339722 360.07682495 -244.64339722 360.07682495 -243.83325195 361.74926758 C-238.61901695 373.90652284 -238.61901695 373.90652284 -230 383 C-230 384.32 -230 385.64 -230 387 C-229.071875 387.11601563 -229.071875 387.11601563 -228.125 387.234375 C-226 388 -226 388 -224.9375 389.828125 C-224.628125 390.62734375 -224.31875 391.4265625 -224 392.25 C-221.6726198 397.32324832 -218.59080472 401.03156307 -214.8125 405.0625 C-214.0090918 405.92053223 -214.0090918 405.92053223 -213.18945312 406.79589844 C-210.39337819 409.78202502 -210.39337819 409.78202502 -207 412 C-207 412.66 -207 413.32 -207 414 C-206.34 414 -205.68 414 -205 414 C-205 414.66 -205 415.32 -205 416 C-204.34 416 -203.68 416 -203 416 C-201.97388051 417.65071396 -200.97691857 419.31970006 -200 421 C-197.25950381 424.23876823 -193.77798615 426.26788806 -189.875 427.875 C-188 429 -188 429 -186.75 431.25 C-183.79198503 435.89830924 -179.21824417 439.26058528 -174 441 C-173.2471875 441.75667969 -172.494375 442.51335937 -171.71875 443.29296875 C-168.87832962 446.12114594 -165.88481727 448.21801696 -162.5 450.3125 C-161.88906494 450.69567383 -161.27812988 451.07884766 -160.64868164 451.47363281 C-159.38475192 452.26511567 -158.11920112 453.05401563 -156.85205078 453.84033203 C-155.10557829 454.93389179 -153.37823726 456.05783591 -151.65234375 457.18359375 C-144.35237811 461.87579523 -137.14731952 465.08421591 -129 468 C-126.42848584 468.9986528 -123.87060817 470.03007822 -121.3125 471.0625 C-120.66966064 471.31845947 -120.02682129 471.57441895 -119.36450195 471.83813477 C-116.73547102 472.88602282 -114.11901312 473.94727267 -111.53125 475.09375 C-76.69237616 490.30508928 -29.45675909 491.22133289 5.91552734 477.82177734 C13.70308895 474.75162832 21.37339407 471.4489449 29 468 C29.66805664 467.70367676 30.33611328 467.40735352 31.02441406 467.10205078 C46.53300144 460.16836113 59.7888051 449.65755494 72.3894043 438.41723633 C74.73856052 436.35010704 77.14513372 434.35166764 79.55249023 432.3527832 C81.17684032 430.96239802 81.17684032 430.96239802 82.4375 428.5625 C84.0140734 425.97691962 85.38492789 424.73892935 87.69921875 422.8359375 C91.83601284 419.27162338 95.11983436 415.43013241 98.375 411.0625 C98.92518799 410.33683838 99.47537598 409.61117676 100.04223633 408.86352539 C104.36664331 403.06950793 108.2645116 397.05696141 111.92919922 390.82641602 C112.90434903 389.18779008 113.94573631 387.58888017 115 386 C115.66 386 116.32 386 117 386 C117.51820313 384.20949219 117.51820313 384.20949219 118.046875 382.3828125 C120.11233923 376.19367555 123.18699554 370.53174308 126.23703003 364.78646851 C127.95324751 361.54797599 129.64048023 358.29439194 131.33203125 355.04296875 C131.98127126 353.7973574 132.63052211 352.55175169 133.27978516 351.30615234 C152.62830833 314.11942217 159.96176885 272.62920235 147.33325195 231.88208008 C143.81213706 221.07787464 139.55772892 210.90725589 134 201 C133.35804688 199.84757812 133.35804688 199.84757812 132.703125 198.671875 C129.5472496 193.35444111 125.66787247 188.52087483 121.890625 183.63671875 C120 181 120 181 119 178 C118.01 177.67 117.02 177.34 116 177 C115.06629731 175.33267377 114.13604187 173.66323873 113.23046875 171.98046875 C109.95248497 166.7044758 105.84341192 163.06238068 100 161 C99.67 160.01 99.34 159.02 99 158 C96.79242098 156.33067816 96.79242098 156.33067816 94.0625 154.75 C90.43506637 152.53657234 86.99809636 150.26764423 83.625 147.6875 C52.84670299 126.03050496 12.19320536 120.3478042 -24.265625 126.37451172 C-64.56840558 133.95886253 -98.11458083 157.2890339 -122 190 C-122.62003906 190.84691406 -123.24007812 191.69382813 -123.87890625 192.56640625 C-129.52284102 200.67091204 -134.41354838 209.81192733 -138 219 C-137.26362305 218.98952637 -136.52724609 218.97905273 -135.76855469 218.96826172 C-132.42907124 218.92666298 -129.08964235 218.90066136 -125.75 218.875 C-124.59113281 218.85824219 -123.43226563 218.84148437 -122.23828125 218.82421875 C-121.12324219 218.81777344 -120.00820313 218.81132812 -118.859375 218.8046875 C-117.31975098 218.78897705 -117.31975098 218.78897705 -115.74902344 218.77294922 C-111.38567944 219.13333198 -109.58511241 220.31736885 -106.75 223.625 C-106.1725 224.40875 -105.595 225.1925 -105 226 C-104.443125 224.96101562 -103.88625 223.92203125 -103.3125 222.8515625 C-98.82375838 214.60107317 -94.16915104 207.13093405 -88 200 C-87.236875 198.989375 -86.47375 197.97875 -85.6875 196.9375 C-82.34025612 193.27888459 -78.60869322 190.31106306 -74.71875 187.24609375 C-71.95534508 185.04422973 -71.95534508 185.04422973 -69.5234375 182.46484375 C-50.72912472 164.10693143 -20.18521558 157.61975167 4.91186523 157.69726562 C23.65027978 158.01285998 40.51553012 162.7614116 57.07421875 171.546875 C59.47883219 172.74115564 61.4319589 173.38133555 64 174 C64.598125 174.61875 65.19625 175.2375 65.8125 175.875 C67.9067698 177.90943352 69.05087672 178.54551673 71.6875 179.5625 C72.780625 180.036875 73.87375 180.51125 75 181 C75.33 181.99 75.66 182.98 76 184 C77.65002828 185.35386936 79.3174387 186.68678142 81 188 C81.66 188.99 82.32 189.98 83 191 C84.77130211 191.96616479 86.54298567 192.93168214 88.3203125 193.88671875 C90.70005843 195.46399222 91.71537628 197.49836433 93 200 C93.66 200.33 94.32 200.66 95 201 C95.7115625 202.4540625 95.7115625 202.4540625 96.4375 203.9375 C97.79632842 207.21743175 97.79632842 207.21743175 101 209 C101.68753301 210.65816784 102.35561283 212.32459336 103 214 C103.66 214.33 104.32 214.66 105 215 C105 215.99 105 216.98 105 218 C106.54107422 218.32871094 106.54107422 218.32871094 108.11328125 218.6640625 C120.44397281 221.42709224 131.67094749 224.94667352 139 236 C143.95470551 244.06614261 144.26206764 253.79488209 143 263 C142.11685213 265.67063915 141.15802534 267.85651474 139.6796875 270.23828125 C138.76607806 272.02419881 138.76607806 272.02419881 139.72265625 273.91796875 C140.14417969 274.60503906 140.56570313 275.29210937 141 276 C141.8567021 277.66536482 142.7107506 279.3320967 143.5625 281 C143.99691406 281.845625 144.43132812 282.69125 144.87890625 283.5625 C148.68514899 291.83809396 147.98845042 302.19471881 145.03515625 310.65625 C140.64504348 320.59612798 133.71164766 326.85598969 123.8203125 331.1640625 C121.43437957 331.87125038 119.38358563 332.24455999 116.9296875 332.5234375 C108.46751535 333.26950151 108.46751535 333.26950151 101.3359375 337.38671875 C99.36331724 340.17809066 97.6785903 343.02507264 96 346 C94.89102223 347.3641408 93.74894517 348.70267211 92.5625 350 C89.86563324 352.77692509 89.86563324 352.77692509 89 356 C88.236875 356.45375 87.47375 356.9075 86.6875 357.375 C83.91066874 358.83153029 83.91066874 358.83153029 82.2578125 361.26953125 C79.55520523 364.53790925 76.60688172 366.83724953 73.1875 369.3125 C72.53458984 369.78816406 71.88167969 370.26382812 71.20898438 370.75390625 C64.49781629 375.53200104 57.41332097 379.42812717 50 383 C48.40478516 383.76957031 48.40478516 383.76957031 46.77734375 384.5546875 C41.89775458 386.60452329 36.72488578 387.54936463 31.5625 388.625 C30.06493164 388.94984375 30.06493164 388.94984375 28.53710938 389.28125 C10.86712599 393.04527013 -6.28849299 392.99882326 -23.97607422 389.39257812 C-25.82940631 389.03308983 -27.69795832 388.75451205 -29.56640625 388.484375 C-45.71601911 385.86450733 -62.78952587 375.80049908 -74 364 C-75.28494995 362.88802408 -76.57731569 361.78458807 -77.875 360.6875 C-82.0026166 357.11074952 -85.49107694 353.17254918 -89 349 C-89.51433594 348.42378906 -90.02867187 347.84757812 -90.55859375 347.25390625 C-94.51754122 342.80137572 -97.79283169 338.01546533 -101 333 C-101.66 333.33 -102.32 333.66 -103 334 C-105.55106029 334.15644172 -108.07918663 334.25821389 -110.6328125 334.31640625 C-111.38464813 334.33718735 -112.13648376 334.35796844 -112.91110229 334.37937927 C-115.31564085 334.44482705 -117.72028967 334.50373738 -120.125 334.5625 C-121.75391771 334.60568977 -123.38282422 334.64930421 -125.01171875 334.69335938 C-129.00769915 334.80050351 -133.00379059 334.90178433 -137 335 C-136.34 335.33 -135.68 335.66 -135 336 C-134.32421875 337.85546875 -134.32421875 337.85546875 -133.6875 340.1875 C-132.6842151 343.41746311 -131.68585992 345.71728868 -129.4375 348.25 C-127.11946277 350.86522148 -126.19349571 352.78674233 -125 356 C-124.34 356.33 -123.68 356.66 -123 357 C-122.33333333 358.66666667 -121.66666667 360.33333333 -121 362 C-120.34 362.33 -119.68 362.66 -119 363 C-118.03952128 364.68911775 -117.08162121 366.37982663 -116.14453125 368.08203125 C-114.08195598 371.53842871 -111.65236286 375.17381857 -108 377 C-107.38125 378.11375 -107.38125 378.11375 -106.75 379.25 C-104.06970549 383.46189137 -100.8150295 386.39499017 -96 388 C-96 388.99 -96 389.98 -96 391 C-95.46890625 391.23589844 -94.9378125 391.47179687 -94.390625 391.71484375 C-91.92182511 393.04202539 -89.73111519 394.60421117 -87.484375 396.27441406 C-75.26542073 405.34918922 -62.213004 412.51875182 -48 418 C-46.21335937 418.69609375 -46.21335937 418.69609375 -44.390625 419.40625 C-34.93645091 422.83687857 -25.96241325 424.11582297 -16 425 C-14.52017763 425.20362356 -13.04084513 425.41091479 -11.5625 425.625 C20.09378658 428.94770184 50.90594701 421.97883118 78.296875 405.96484375 C80.44967938 404.74525044 82.67038796 403.82663653 85 403 C81.6701784 420.14101347 54.86173331 436.97060079 41.25 446.4375 C19.80732632 460.1011586 -7.46038684 458.8799926 -31.56640625 453.9296875 C-36.75354118 452.77262221 -41.88307015 451.43372914 -47 450 C-47.67047363 449.81598633 -48.34094727 449.63197266 -49.03173828 449.44238281 C-66.32112706 444.57960177 -82.37244698 435.93426786 -97.28808594 426.08154297 C-98.98077664 425.01214482 -100.74530948 424.05932095 -102.5078125 423.109375 C-106.53733106 420.8394617 -109.69382012 417.82786176 -113 414.625 C-114.16536674 413.51165857 -115.3320321 412.39967484 -116.5 411.2890625 C-117.35911987 410.4703064 -117.35911987 410.4703064 -118.2355957 409.63500977 C-120.02656074 407.97538712 -121.86474243 406.39123578 -123.73046875 404.81640625 C-126.12951209 402.78186768 -128.29307557 400.73472067 -130.3125 398.3125 C-133.95652885 394.00891841 -137.7983615 389.90976805 -141.66796875 385.80859375 C-143.78935893 383.25368665 -145.43179023 380.70350396 -147.01928711 377.79223633 C-148.29986986 375.45199287 -149.70215999 373.18925595 -151.09521484 370.91479492 C-154.85072765 364.76109255 -158.44806416 358.53020661 -161.875 352.1875 C-162.42837036 351.18517334 -162.42837036 351.18517334 -162.99291992 350.16259766 C-165.7577499 344.96860803 -167.4732132 339.67331808 -169 334 C-169.6705542 334.01047363 -170.3411084 334.02094727 -171.03198242 334.03173828 C-174.08378316 334.07343171 -177.13552384 334.09936853 -180.1875 334.125 C-181.24259766 334.14175781 -182.29769531 334.15851563 -183.38476562 334.17578125 C-184.40634766 334.18222656 -185.42792969 334.18867188 -186.48046875 334.1953125 C-187.41785889 334.20578613 -188.35524902 334.21625977 -189.32104492 334.22705078 C-192 334 -192 334 -194.5949707 332.86279297 C-196.93236427 331.70781608 -196.93236427 331.70781608 -198.85058594 332.84912109 C-199.55989258 333.22891113 -200.26919922 333.60870117 -201 334 C-203.49587111 334.23463919 -205.89211723 334.37157742 -208.390625 334.4140625 C-209.44754547 334.44311172 -209.44754547 334.44311172 -210.52581787 334.4727478 C-212.76709039 334.53232735 -215.00841489 334.57884123 -217.25 334.625 C-218.77345938 334.66319979 -220.29689762 334.70225269 -221.8203125 334.7421875 C-225.54668106 334.83801018 -229.27320835 334.92212107 -233 335 C-232.04549791 338.23031164 -231.08572035 341.45903277 -230.125 344.6875 C-229.85558594 345.59951172 -229.58617187 346.51152344 -229.30859375 347.45117188 C-228.91220703 348.78051758 -228.91220703 348.78051758 -228.5078125 350.13671875 C-228.26691895 350.94842529 -228.02602539 351.76013184 -227.77783203 352.59643555 C-227.01491456 355.06184018 -227.01491456 355.06184018 -225.91357422 357.62817383 C-224.90613138 360.2437022 -224.8412439 362.22176817 -225 365 C-228 364 -228 364 -229.13500977 361.87036133 C-229.48362061 360.9502124 -229.83223145 360.03006348 -230.19140625 359.08203125 C-230.57876953 358.07462891 -230.96613281 357.06722656 -231.36523438 356.02929688 C-231.76033203 354.96775391 -232.15542969 353.90621094 -232.5625 352.8125 C-232.96146484 351.77029297 -233.36042969 350.72808594 -233.77148438 349.65429688 C-235.32931896 345.56335564 -236.8487084 341.55336227 -238.00390625 337.328125 C-238.75455938 334.82691177 -238.75455938 334.82691177 -241.0234375 334.15234375 C-241.79945313 334.08144531 -242.57546875 334.01054687 -243.375 333.9375 C-246.58678537 333.63135992 -247.78152404 333.19045652 -250.25390625 331.03515625 C-252.68582554 326.80786031 -252.62491969 323.29530102 -252.5625 318.5 C-252.59827148 317.23736328 -252.59827148 317.23736328 -252.63476562 315.94921875 C-252.62414277 311.45221147 -252.61491874 309.66403668 -249.45703125 306.25390625 C-248.24080078 305.13822266 -248.24080078 305.13822266 -247 304 C-246.57406802 301.27428059 -246.57406802 301.27428059 -247.125 298.4375 C-248.32763765 289.58952297 -249.09677117 280.90816662 -248.9921875 271.96875 C-248.98438263 271.27801895 -248.97657776 270.5872879 -248.96853638 269.87562561 C-248.93184028 267.02164764 -248.88917853 264.16803249 -248.82861328 261.31445312 C-248.78632664 259.1991707 -248.76288964 257.08433858 -248.7421875 254.96875 C-248.7201123 253.72544922 -248.69803711 252.48214844 -248.67529297 251.20117188 C-249.0319578 247.68493933 -249.81855434 246.65305243 -252 244 C-252.59617814 240.87357701 -252.46399857 237.73991973 -252.4375 234.5625 C-252.4674707 233.2930957 -252.4674707 233.2930957 -252.49804688 231.99804688 C-252.49484116 227.90434514 -252.32676356 225.55801162 -250.22265625 221.96484375 C-248.03642328 220.03219844 -246.8651405 219.30697934 -244 219 C-243.87044922 217.99646484 -243.87044922 217.99646484 -243.73828125 216.97265625 C-238.68073266 182.4050076 -221.16150728 142.42787369 -198 116 C-197.34 116 -196.68 116 -196 116 C-195.74605469 115.43796875 -195.49210937 114.8759375 -195.23046875 114.296875 C-193.83156789 111.68559339 -192.1777572 109.55133894 -190.3125 107.25 C-189.66925781 106.45078125 -189.02601563 105.6515625 -188.36328125 104.828125 C-182.79890894 98.16927285 -177.00856886 91.82686619 -170.875 85.6875 C-170.18535156 84.98560547 -169.49570312 84.28371094 -168.78515625 83.56054688 C-165.37442994 80.14003837 -162.26072239 77.33907901 -158 75 C-156.35226677 73.69486477 -154.72868986 72.35888985 -153.125 71 C-119.01355232 42.83290647 -78.76229384 26.1257415 -35.5 17.625 C-34.64559326 17.45693848 -33.79118652 17.28887695 -32.91088867 17.11572266 C-28.19037096 16.24268879 -23.79972949 15.83226752 -19 16 C-18.7591169 22.44362304 -19.64700392 28.2103966 -21 34.5 C-21.19078125 35.4178125 -21.3815625 36.335625 -21.578125 37.28125 C-22.04503453 39.52241577 -22.51910692 41.76180083 -23 44 C-23.95531616 44.13462646 -23.95531616 44.13462646 -24.92993164 44.27197266 C-36.94994674 45.9981771 -48.81057709 47.96821029 -60.5625 51.0625 C-61.49392822 51.30758301 -62.42535645 51.55266602 -63.38500977 51.80517578 C-68.71527806 53.25628224 -73.90806012 54.84773675 -79 57 C-79.33 57.66 -79.66 58.32 -80 59 C-81.6106245 59.20051952 -83.22152919 59.39895328 -84.83349609 59.58837891 C-89.22226494 60.42221531 -93.24226942 62.39722289 -97.3125 64.1875 C-98.71689331 64.79706543 -98.71689331 64.79706543 -100.1496582 65.41894531 C-105.6357643 67.83932851 -110.85391979 70.41444185 -115.89453125 73.6796875 C-118.1561443 75.09791609 -120.46358747 76.23175575 -122.875 77.375 C-128.96195047 80.34658212 -134.44389568 84.14682596 -140 88 C-140.70640625 88.47824219 -141.4128125 88.95648438 -142.140625 89.44921875 C-145.8313683 91.99262229 -148.85076684 94.8274737 -152 98 C-166.987878 111.93491796 -166.987878 111.93491796 -173.44921875 116.87109375 C-176.14102476 119.1177006 -178.23293904 121.46421881 -180.4375 124.1875 C-181.15808594 125.06792969 -181.87867188 125.94835937 -182.62109375 126.85546875 C-185.0416166 130.05501045 -187.24024764 133.34547408 -189.44458008 136.69506836 C-190.9075204 138.86295717 -192.43040202 140.9574095 -194.0078125 143.04296875 C-208.77823238 162.60354073 -220.31506662 184.37612526 -227 208 C-227.99232126 211.33564917 -228.99522761 214.66808238 -230 218 C-228.66038208 218.03758423 -228.66038208 218.03758423 -227.29370117 218.07592773 C-223.97814546 218.17110186 -220.66276271 218.27033283 -217.34741211 218.37231445 C-215.91288997 218.41560793 -214.47831816 218.45728699 -213.04370117 218.49731445 C-210.9808048 218.55515267 -208.91815717 218.61880753 -206.85546875 218.68359375 C-204.99378052 218.73858032 -204.99378052 218.73858032 -203.09448242 218.79467773 C-200 219 -200 219 -197 220 C-196.34 219.67 -195.68 219.34 -195 219 C-193.11527141 218.84655791 -191.22572126 218.75040429 -189.3359375 218.68359375 C-187.65371094 218.62075195 -187.65371094 218.62075195 -185.9375 218.55664062 C-184.761875 218.51732422 -183.58625 218.47800781 -182.375 218.4375 C-181.19164062 218.39431641 -180.00828125 218.35113281 -178.7890625 218.30664062 C-175.85949672 218.20032574 -172.92984412 218.09829358 -170 218 C-169.53851563 216.83726562 -169.07703125 215.67453125 -168.6015625 214.4765625 C-162.9749938 200.56968706 -156.38430257 187.45874766 -148 175 C-147.443125 173.948125 -146.88625 172.89625 -146.3125 171.8125 C-142.13111291 164.36233014 -136.0568362 157.95305863 -130 152 C-129.23300781 151.20980469 -128.46601563 150.41960937 -127.67578125 149.60546875 C-122.81646639 144.63370693 -117.8553801 140.10137228 -112.32421875 135.88671875 C-109.91307816 134.00743902 -109.91307816 134.00743902 -107.67578125 131.58984375 C-104.52496211 128.5402188 -101.16888998 126.25069708 -97.5 123.875 C-96.52353516 123.23111328 -96.52353516 123.23111328 -95.52734375 122.57421875 C-85.75511539 116.15810922 -85.75511539 116.15810922 -80.3125 114.125 C-76.96077917 112.83023904 -73.83802051 111.4095587 -70.6875 109.6875 C-59.46129543 103.96849013 -46.77804215 100.48700375 -34.5625 97.5625 C-33.88372803 97.3987085 -33.20495605 97.23491699 -32.50561523 97.06616211 C-28.60609324 96.18689182 -24.99247857 95.84573112 -21 96 C-21 95.34 -21 94.68 -21 94 C-20.34 94 -19.68 94 -19 94 C-18.95400665 93.40542496 -18.90801331 92.81084991 -18.86062622 92.19825745 C-18.2907183 85.6752956 -17.16195104 79.41405046 -15.7421875 73.02734375 C-15.40603676 71.48244766 -15.40603676 71.48244766 -15.06309509 69.90634155 C-14.33877543 66.5822693 -13.60688976 63.25991279 -12.875 59.9375 C-12.37526559 57.6494701 -11.87616431 55.36130183 -11.37768555 53.07299805 C-10.62956951 49.63907741 -9.88107758 46.20524454 -9.13047791 42.77186584 C-6.98579399 32.96017834 -4.88762036 23.13910355 -2.8125 13.3125 C-2.51875547 11.9237387 -2.22497431 10.53498515 -1.93115234 9.14624023 C-1.28658967 6.09767084 -0.64278319 3.04894499 0 0 Z M-147 251 C-150.62008448 268.13075691 -149.55581488 285.79388914 -147 303 C-146.34 303 -145.68 303 -145 303 C-145 285.84 -145 268.68 -145 251 C-145.66 251 -146.32 251 -147 251 Z M-204 300 C-204 300.99 -204 301.98 -204 303 C-203.34 303 -202.68 303 -202 303 C-202.33 302.01 -202.66 301.02 -203 300 C-203.33 300 -203.66 300 -204 300 Z " fill="#FFFFFF" transform="translate(597,10)"/>
<path d="M0 0 C0.99 0 1.98 0 3 0 C3.17128418 0.78238037 3.34256836 1.56476074 3.51904297 2.37084961 C4.29567228 5.89504763 5.08515087 9.41624239 5.875 12.9375 C6.14441406 14.16919922 6.41382813 15.40089844 6.69140625 16.66992188 C6.95566406 17.83974609 7.21992187 19.00957031 7.4921875 20.21484375 C7.85352783 21.84087524 7.85352783 21.84087524 8.22216797 23.49975586 C8.47885254 24.32483643 8.73553711 25.14991699 9 26 C9.66 26.33 10.32 26.66 11 27 C10.93304932 27.87688477 10.86609863 28.75376953 10.79711914 29.65722656 C10.80867179 35.76504313 12.71471678 41.61741467 14.24609375 47.484375 C14.58070276 48.78979856 14.91459926 50.09540495 15.24781799 51.40118408 C16.12278447 54.82139544 17.00794529 58.23888871 17.8951416 61.65594482 C18.61849853 64.44883846 19.33474233 67.2435324 20.05059719 70.03835678 C21.52956337 75.81229214 23.01412673 81.58478897 24.50952148 87.35449219 C24.77377426 88.37484558 25.03802704 89.39519897 25.31028748 90.44647217 C25.81484401 92.31449561 26.3881104 94.16433119 27 96 C27.67297119 96.0424585 28.34594238 96.08491699 29.03930664 96.12866211 C35.7462858 96.63301202 41.96824241 97.74600603 48.4375 99.5625 C49.374729 99.82208496 50.31195801 100.08166992 51.27758789 100.34912109 C63.71117277 103.9146881 75.83239323 108.44389254 87 115 C88.67697961 115.69610475 90.35408042 116.3919716 92.03515625 117.078125 C95.43737353 118.67439394 98.58115056 120.70748839 101.765625 122.6953125 C104.04603204 124.12939324 104.04603204 124.12939324 107 125 C107 125.66 107 126.32 107 127 C107.99 127 108.98 127 110 127 C111.76811934 128.61656626 113.37097596 130.2501532 115 132 C116.36760446 133.42380739 117.74302738 134.84013436 119.125 136.25 C119.78757812 136.93578125 120.45015625 137.6215625 121.1328125 138.328125 C122.99636642 140.21948202 122.99636642 140.21948202 126 141 C127.68359375 142.70703125 127.68359375 142.70703125 129.4375 144.8125 C131.37967334 147.11265868 133.2782916 149.27115592 135.4375 151.375 C137 153 137 153 137 155 C137.54785156 155.19335938 138.09570312 155.38671875 138.66015625 155.5859375 C142.01958172 157.61617459 144.09551488 160.54576037 146.4375 163.625 C146.92323486 164.25510986 147.40896973 164.88521973 147.90942383 165.53442383 C157 177.4414102 157 177.4414102 157 182 C157.66 182 158.32 182 159 182 C163.41735486 190.51750605 167.58525921 199.09321471 171.3125 207.9375 C171.63734375 208.70489502 171.9621875 209.47229004 172.296875 210.26293945 C175.69515639 218.43696951 178.31175923 226.75684503 180.5625 235.3125 C180.77068359 236.07755859 180.97886719 236.84261719 181.19335938 237.63085938 C188.90196935 266.79791969 188.22856817 297.92375815 183.62109375 327.515625 C183.08586384 331.04270934 182.86562085 334.42434599 183 338 C182.34 338 181.68 338 181 338 C180.89333008 338.58555664 180.78666016 339.17111328 180.67675781 339.77441406 C176.92245421 359.52127695 170.479241 378.07151502 160.82055664 395.67138672 C158.94500123 399.11238409 157.33204069 402.50375916 156 406.1875 C149.90873953 422.17705874 135.83509626 437.00552829 125 450 C124.17628906 451.0209375 123.35257813 452.041875 122.50390625 453.09375 C118.39323209 458.17113429 114.29475698 462.93666929 109.24609375 467.1015625 C106.88982625 469.09312077 104.65943325 471.18328224 102.41821289 473.30200195 C96.78950704 478.60944405 91.04220162 483.41699014 84.78125 487.97265625 C82.21839897 489.84080188 79.73066088 491.77481625 77.25 493.75 C71.72372684 498.05929604 66.29834277 501.46907529 59.82958984 504.18310547 C56.90379226 505.48944637 54.16110477 507.1087073 51.375 508.6875 C14.94735195 528.56301725 -29.51968818 535.53517608 -70.26953125 527.65625 C-73.61499567 527.06772851 -76.61541608 526.87248035 -80 527 C-80 526.34 -80 525.68 -80 525 C-81.65 525.33 -83.3 525.66 -85 526 C-85 525.34 -85 524.68 -85 524 C-86.87422152 523.51779737 -88.74941754 523.03938167 -90.625 522.5625 C-91.66914063 522.29566406 -92.71328125 522.02882813 -93.7890625 521.75390625 C-96.84891124 521.03547461 -99.8948051 520.48023284 -103 520 C-103 519.34 -103 518.68 -103 518 C-103.69738281 517.88785156 -104.39476562 517.77570312 -105.11328125 517.66015625 C-108.34434937 516.92125163 -111.15088351 515.76154023 -114.1875 514.4375 C-117.9666504 512.63354906 -117.9666504 512.63354906 -122 512 C-122.433125 511.525625 -122.86625 511.05125 -123.3125 510.5625 C-125.4462981 508.58676102 -127.18956072 508.5177125 -130 508 C-130.33 507.34 -130.66 506.68 -131 506 C-133.25498639 504.76311225 -135.49736687 503.61219461 -137.8125 502.5 C-138.44220703 502.19191406 -139.07191406 501.88382812 -139.72070312 501.56640625 C-142.24597426 500.33159371 -144.7743149 499.10562367 -147.3203125 497.9140625 C-149.38354917 496.79127789 -150.72964012 495.22312868 -152.33984375 493.5390625 C-154.46812404 491.56602148 -156.76329693 489.93645084 -159.125 488.25 C-170.10403185 480.39940196 -180.57440992 471.67363193 -190 462 C-190.76183594 461.27103516 -190.76183594 461.27103516 -191.5390625 460.52734375 C-195.95895849 456.25881406 -199.83799474 451.66410468 -203.68359375 446.875 C-205.17495378 445.0240034 -206.68661746 443.18909151 -208.22265625 441.375 C-219.67041487 427.80728608 -228.58730291 412.58326955 -237 397 C-237.4655127 396.14003418 -237.93102539 395.28006836 -238.41064453 394.39404297 C-245.07722809 381.85423482 -250.03611403 368.86567533 -254.5625 355.4375 C-254.95260254 354.29388504 -254.95260254 354.29388504 -255.35058594 353.12716675 C-259.27281741 341.54299975 -262.19554164 330.3561489 -262 318 C-261.34 318 -260.68 318 -260 318 C-259.82573486 318.64622314 -259.65146973 319.29244629 -259.47192383 319.95825195 C-255.78726213 333.35028604 -251.49685377 345.94199525 -245.4375 358.4375 C-244.64339722 360.07682495 -244.64339722 360.07682495 -243.83325195 361.74926758 C-238.61901695 373.90652284 -238.61901695 373.90652284 -230 383 C-230 384.32 -230 385.64 -230 387 C-229.071875 387.11601563 -229.071875 387.11601563 -228.125 387.234375 C-226 388 -226 388 -224.9375 389.828125 C-224.628125 390.62734375 -224.31875 391.4265625 -224 392.25 C-221.6726198 397.32324832 -218.59080472 401.03156307 -214.8125 405.0625 C-214.0090918 405.92053223 -214.0090918 405.92053223 -213.18945312 406.79589844 C-210.39337819 409.78202502 -210.39337819 409.78202502 -207 412 C-207 412.66 -207 413.32 -207 414 C-206.34 414 -205.68 414 -205 414 C-205 414.66 -205 415.32 -205 416 C-204.34 416 -203.68 416 -203 416 C-201.97388051 417.65071396 -200.97691857 419.31970006 -200 421 C-197.25950381 424.23876823 -193.77798615 426.26788806 -189.875 427.875 C-188 429 -188 429 -186.75 431.25 C-183.79198503 435.89830924 -179.21824417 439.26058528 -174 441 C-173.2471875 441.75667969 -172.494375 442.51335937 -171.71875 443.29296875 C-168.87832962 446.12114594 -165.88481727 448.21801696 -162.5 450.3125 C-161.88906494 450.69567383 -161.27812988 451.07884766 -160.64868164 451.47363281 C-159.38475192 452.26511567 -158.11920112 453.05401563 -156.85205078 453.84033203 C-155.10557829 454.93389179 -153.37823726 456.05783591 -151.65234375 457.18359375 C-144.35237811 461.87579523 -137.14731952 465.08421591 -129 468 C-126.42848584 468.9986528 -123.87060817 470.03007822 -121.3125 471.0625 C-120.66966064 471.31845947 -120.02682129 471.57441895 -119.36450195 471.83813477 C-116.73547102 472.88602282 -114.11901312 473.94727267 -111.53125 475.09375 C-76.69237616 490.30508928 -29.45675909 491.22133289 5.91552734 477.82177734 C13.70308895 474.75162832 21.37339407 471.4489449 29 468 C29.66805664 467.70367676 30.33611328 467.40735352 31.02441406 467.10205078 C46.53300144 460.16836113 59.7888051 449.65755494 72.3894043 438.41723633 C74.73856052 436.35010704 77.14513372 434.35166764 79.55249023 432.3527832 C81.17684032 430.96239802 81.17684032 430.96239802 82.4375 428.5625 C84.0140734 425.97691962 85.38492789 424.73892935 87.69921875 422.8359375 C91.83601284 419.27162338 95.11983436 415.43013241 98.375 411.0625 C98.92518799 410.33683838 99.47537598 409.61117676 100.04223633 408.86352539 C104.36664331 403.06950793 108.2645116 397.05696141 111.92919922 390.82641602 C112.90434903 389.18779008 113.94573631 387.58888017 115 386 C115.66 386 116.32 386 117 386 C117.51820313 384.20949219 117.51820313 384.20949219 118.046875 382.3828125 C120.11233923 376.19367555 123.18699554 370.53174308 126.23703003 364.78646851 C127.95324751 361.54797599 129.64048023 358.29439194 131.33203125 355.04296875 C131.98127126 353.7973574 132.63052211 352.55175169 133.27978516 351.30615234 C152.62830833 314.11942217 159.96176885 272.62920235 147.33325195 231.88208008 C143.81213706 221.07787464 139.55772892 210.90725589 134 201 C133.35804688 199.84757812 133.35804688 199.84757812 132.703125 198.671875 C129.5472496 193.35444111 125.66787247 188.52087483 121.890625 183.63671875 C120 181 120 181 119 178 C118.01 177.67 117.02 177.34 116 177 C115.06629731 175.33267377 114.13604187 173.66323873 113.23046875 171.98046875 C109.95248497 166.7044758 105.84341192 163.06238068 100 161 C99.67 160.01 99.34 159.02 99 158 C96.79242098 156.33067816 96.79242098 156.33067816 94.0625 154.75 C90.43506637 152.53657234 86.99809636 150.26764423 83.625 147.6875 C52.84670299 126.03050496 12.19320536 120.3478042 -24.265625 126.37451172 C-64.56840558 133.95886253 -98.11458083 157.2890339 -122 190 C-122.62003906 190.84691406 -123.24007812 191.69382813 -123.87890625 192.56640625 C-129.48544718 200.61721571 -134.56503741 209.81673267 -138 219 C-148.81137083 220.12980563 -159.18688437 219.79688494 -170 219 C-164.88049613 203.32713289 -157.28339432 188.62259886 -148 175 C-147.443125 173.948125 -146.88625 172.89625 -146.3125 171.8125 C-142.13111291 164.36233014 -136.0568362 157.95305863 -130 152 C-129.23300781 151.20980469 -128.46601563 150.41960937 -127.67578125 149.60546875 C-122.81646639 144.63370693 -117.8553801 140.10137228 -112.32421875 135.88671875 C-109.91307816 134.00743902 -109.91307816 134.00743902 -107.67578125 131.58984375 C-104.52496211 128.5402188 -101.16888998 126.25069708 -97.5 123.875 C-96.52353516 123.23111328 -96.52353516 123.23111328 -95.52734375 122.57421875 C-85.75511539 116.15810922 -85.75511539 116.15810922 -80.3125 114.125 C-76.96077917 112.83023904 -73.83802051 111.4095587 -70.6875 109.6875 C-59.46129543 103.96849013 -46.77804215 100.48700375 -34.5625 97.5625 C-33.88372803 97.3987085 -33.20495605 97.23491699 -32.50561523 97.06616211 C-28.60609324 96.18689182 -24.99247857 95.84573112 -21 96 C-21 95.34 -21 94.68 -21 94 C-20.34 94 -19.68 94 -19 94 C-18.95400665 93.40542496 -18.90801331 92.81084991 -18.86062622 92.19825745 C-18.2907183 85.6752956 -17.16195104 79.41405046 -15.7421875 73.02734375 C-15.40603676 71.48244766 -15.40603676 71.48244766 -15.06309509 69.90634155 C-14.33877543 66.5822693 -13.60688976 63.25991279 -12.875 59.9375 C-12.37526559 57.6494701 -11.87616431 55.36130183 -11.37768555 53.07299805 C-10.62956951 49.63907741 -9.88107758 46.20524454 -9.13047791 42.77186584 C-6.98579399 32.96017834 -4.88762036 23.13910355 -2.8125 13.3125 C-2.51875547 11.9237387 -2.22497431 10.53498515 -1.93115234 9.14624023 C-1.28658967 6.09767084 -0.64278319 3.04894499 0 0 Z " fill="#DEA463" transform="translate(597,10)"/>
<path d="M0 0 C0.92468582 -0.01606293 1.84937164 -0.03212585 2.80207825 -0.04867554 C7.03292127 -0.09310935 11.26360715 -0.13418958 15.49462891 -0.15722656 C17.72650579 -0.17378905 19.95832957 -0.20108271 22.18994141 -0.23925781 C25.40644877 -0.29400485 28.6217126 -0.31589761 31.83862305 -0.33056641 C32.83461014 -0.35323578 33.83059723 -0.37590515 34.85676575 -0.39926147 C41.80126351 -0.37807405 41.80126351 -0.37807405 45.64404297 2.60058594 C48.80355672 6.92541732 48.75297198 10.28797485 48.7878418 15.50537109 C48.8084668 16.26527344 48.8290918 17.02517578 48.8503418 17.80810547 C48.88250856 22.43609796 48.54750627 25.44485436 45.5378418 29.19287109 C42.5378418 31.19287109 42.5378418 31.19287109 38.5378418 31.19287109 C38.5378418 47.69287109 38.5378418 64.19287109 38.5378418 81.19287109 C41.1778418 81.19287109 43.8178418 81.19287109 46.5378418 81.19287109 C46.5790918 80.14099609 46.6203418 79.08912109 46.6628418 78.00537109 C47.55977715 74.09729565 48.4413754 72.64578885 51.56762695 70.20727539 C55.53476742 68.16471422 59.80281022 68.56038395 64.1628418 68.69287109 C65.10385742 68.69029297 66.04487305 68.68771484 67.0144043 68.68505859 C73.99292746 68.78418534 73.99292746 68.78418534 78.5378418 72.19287109 C78.8678418 58.99287109 79.1978418 45.79287109 79.5378418 32.19287109 C77.5578418 31.86287109 75.5778418 31.53287109 73.5378418 31.19287109 C69.8605936 27.95567874 68.29402745 25.7803706 67.90893555 20.88037109 C67.90498946 19.31771929 67.92765914 17.75480022 67.9753418 16.19287109 C67.96438477 15.41169922 67.95342773 14.63052734 67.94213867 13.82568359 C68.00915167 8.51825418 69.03074094 5.38828147 72.5378418 1.19287109 C75.77205217 -0.42423409 79.31526209 0.04490441 82.86897278 0.04570007 C83.741034 0.04202339 84.61309523 0.0383467 85.51158255 0.03455859 C88.45108693 0.02349323 91.390556 0.01967311 94.33007812 0.01586914 C96.43060927 0.0096067 98.53113929 0.0029601 100.63166809 -0.00404358 C106.35070739 -0.02147245 112.06973832 -0.03201024 117.78879762 -0.04024911 C121.35915095 -0.0453947 124.92950165 -0.0514706 128.49985313 -0.05776024 C139.66285387 -0.0768166 150.82584797 -0.09104743 161.98886186 -0.09937221 C174.88939488 -0.10915071 187.7897566 -0.13548445 200.69022924 -0.1758731 C210.6520502 -0.20599499 220.61382195 -0.22083731 230.57568759 -0.22415322 C236.53000045 -0.22650798 242.48413039 -0.23552385 248.43839455 -0.2606144 C254.03867965 -0.28383172 259.63866057 -0.28815386 265.23898125 -0.27785301 C267.29612869 -0.27735601 269.35329078 -0.28372448 271.41039276 -0.29740906 C274.21588301 -0.31503012 277.02027002 -0.30807016 279.82575989 -0.2948761 C280.64249438 -0.30584534 281.45922886 -0.31681459 282.30071288 -0.32811624 C286.09111705 -0.2849892 288.29334887 0.03664151 291.51984692 2.09835529 C294.96284967 5.67191424 294.72586143 8.69665919 294.77612305 13.43115234 C294.78419479 14.14893356 294.79226654 14.86671478 294.80058289 15.60624695 C294.81441965 17.12687772 294.82514364 18.6475395 294.83300781 20.16821289 C294.85020022 22.48628151 294.8940836 24.80291579 294.93823242 27.12060547 C294.94836157 28.59911062 294.95687698 30.07762788 294.96362305 31.55615234 C294.98113113 32.24590652 294.99863922 32.93566071 295.01667786 33.64631653 C294.9952388 38.43785258 293.92238541 40.82959162 290.5378418 44.19287109 C287.32332911 45.80012744 284.10171644 45.25035294 280.5378418 45.19287109 C280.54569702 46.17682861 280.54569702 46.17682861 280.55371094 47.18066406 C280.57445451 50.14305672 280.58749356 53.10543412 280.6003418 56.06787109 C280.6087207 57.10041016 280.61709961 58.13294922 280.62573242 59.19677734 C280.63056641 60.67597656 280.63056641 60.67597656 280.63549805 62.18505859 C280.64335327 63.55186768 280.64335327 63.55186768 280.65136719 64.94628906 C280.5378418 67.19287109 280.5378418 67.19287109 279.5378418 69.19287109 C280.53364258 69.21414063 280.53364258 69.21414063 281.54956055 69.23583984 C282.43256836 69.28353516 283.31557617 69.33123047 284.2253418 69.38037109 C285.53051758 69.43257812 285.53051758 69.43257812 286.86206055 69.48583984 C290.65299827 70.48753288 292.08719347 72.15528796 294.5378418 75.19287109 C295.02648545 77.98749692 295.21929423 80.15977948 295.16674805 82.94287109 C295.16916 83.67860352 295.17157196 84.41433594 295.17405701 85.17236328 C295.17308095 86.722223 295.15974452 88.27211862 295.13476562 89.82177734 C295.10043763 92.18627022 295.11411865 94.54702523 295.13354492 96.91162109 C295.126646 98.42205357 295.11697319 99.93247646 295.10424805 101.44287109 C295.10920792 102.14508789 295.11416779 102.84730469 295.11927795 103.57080078 C295.00519817 108.35540484 293.97957279 110.86944351 290.5378418 114.19287109 C286.93004134 115.39547124 283.61413439 115.36403094 279.85693359 115.38574219 C278.68567429 115.39800842 278.68567429 115.39800842 277.49075317 115.41052246 C274.90619672 115.43533877 272.32169502 115.45188224 269.73706055 115.46630859 C268.85366312 115.47163227 267.97026569 115.47695595 267.06009865 115.48244095 C262.38480116 115.50915538 257.70953022 115.52853627 253.03417969 115.54296875 C249.16675183 115.55631256 245.29985103 115.58417539 241.43261719 115.625 C236.76067915 115.67431793 232.08921948 115.69908855 227.41703224 115.70619583 C225.63843374 115.7129073 223.85984587 115.72812674 222.0813961 115.75208664 C219.58934386 115.78374667 217.09913457 115.78377447 214.60693359 115.77636719 C213.87580856 115.79277252 213.14468353 115.80917786 212.3914032 115.82608032 C208.54648667 115.77941981 206.06933427 115.19788979 203.09602356 112.84390259 C199.11016967 108.71338131 199.35337638 105.3773885 199.2878418 99.81787109 C199.24916992 97.85720703 199.24916992 97.85720703 199.2097168 95.85693359 C199.55311061 92.0223694 200.21846496 90.21358331 202.5378418 87.19287109 C205.50024428 85.04512929 206.85231036 84.19287109 210.5378418 84.19287109 C210.2078418 70.33287109 209.8778418 56.47287109 209.5378418 42.19287109 C208.2178418 43.18287109 206.8978418 44.17287109 205.5378418 45.19287109 C202.80070485 45.56747925 200.31758596 45.3318583 197.5378418 45.19287109 C197.8678418 45.85287109 198.1978418 46.51287109 198.5378418 47.19287109 C198.80425042 50.62429493 198.76940583 54.06475827 198.7878418 57.50537109 C198.8187793 58.93139648 198.8187793 58.93139648 198.8503418 60.38623047 C198.90072356 69.39826803 198.90072356 69.39826803 195.5378418 73.19287109 C192.11263406 75.41018595 189.26659286 75.4261612 185.2409668 75.38818359 C184.03569336 75.38173828 182.83041992 75.37529297 181.58862305 75.36865234 C179.70723633 75.34351563 179.70723633 75.34351563 177.7878418 75.31787109 C176.51811523 75.30884766 175.24838867 75.29982422 173.94018555 75.29052734 C170.80588087 75.26696114 167.67195639 75.23405942 164.5378418 75.19287109 C164.5378418 78.16287109 164.5378418 81.13287109 164.5378418 84.19287109 C165.4453418 84.27537109 166.3528418 84.35787109 167.2878418 84.44287109 C170.98731851 85.29659649 172.20832155 86.25940115 174.5378418 89.19287109 C175.73451383 92.78288719 175.74323061 95.78335499 175.7878418 99.56787109 C175.82651367 101.52853516 175.82651367 101.52853516 175.8659668 103.52880859 C175.44964307 108.17775688 174.19275049 110.59531075 170.86551571 113.80724525 C167.66269689 115.7138304 165.27855766 115.5704798 161.5606842 115.57382202 C160.50729289 115.58084198 160.50729289 115.58084198 159.43262094 115.58800375 C157.07956297 115.59996935 154.72708573 115.59049072 152.37402344 115.58105469 C150.68698283 115.58511974 148.99994488 115.59046125 147.31291199 115.59698486 C142.73024838 115.6106732 138.14778717 115.60535329 133.56511998 115.59584761 C128.77081964 115.58825763 123.97653674 115.59529489 119.18223572 115.6000061 C111.12959682 115.60546611 103.07704043 115.59826616 95.02441406 115.58398438 C85.71423255 115.56766293 76.40424817 115.5729417 67.09407145 115.58946359 C59.10245421 115.60307808 51.11089631 115.60499813 43.11927122 115.59714758 C38.34545787 115.59247015 33.57173717 115.59184804 28.79792976 115.60175705 C24.30894433 115.61042368 19.82021295 115.60441035 15.33125496 115.58707428 C13.68370994 115.58310758 12.03614354 115.58424663 10.38860703 115.59086227 C8.13944376 115.59906095 5.89109444 115.58877722 3.64198303 115.57382202 C2.38340013 115.57269094 1.12481722 115.57155987 -0.17190456 115.57039452 C-3.72996284 115.16214321 -5.60504712 114.30541788 -8.4621582 112.19287109 C-11.27459172 108.58174045 -10.79335062 104.13313459 -10.7746582 99.75537109 C-10.79077148 99.00449219 -10.80688477 98.25361328 -10.82348633 97.47998047 C-10.82744978 92.97353323 -10.64515437 89.6611052 -7.4621582 86.19287109 C-3.9971582 85.20287109 -3.9971582 85.20287109 -0.4621582 84.19287109 C-0.4621582 66.70287109 -0.4621582 49.21287109 -0.4621582 31.19287109 C-2.4421582 30.86287109 -4.4221582 30.53287109 -6.4621582 30.19287109 C-9.01701153 28.0467943 -10.24902818 26.40434701 -10.83325195 23.08349609 C-11.00140248 20.60635168 -11.00777221 18.17503311 -10.9621582 15.69287109 C-10.97762695 14.85111328 -10.9930957 14.00935547 -11.0090332 13.14208984 C-10.98285252 8.9859058 -10.81243826 6.74987381 -8.5559082 3.16162109 C-5.5852947 0.36835765 -3.97045493 0.06261952 0 0 Z M117.5378418 32.19287109 C117.5378418 49.35287109 117.5378418 66.51287109 117.5378418 84.19287109 C123.09594784 85.6001067 123.09594784 85.6001067 126.5378418 84.19287109 C126.5378418 66.70287109 126.5378418 49.21287109 126.5378418 31.19287109 C122.30514683 29.71997488 122.30514683 29.71997488 117.5378418 32.19287109 Z M164.5378418 34.19287109 C164.5378418 36.50287109 164.5378418 38.81287109 164.5378418 41.19287109 C169.4878418 41.19287109 174.4378418 41.19287109 179.5378418 41.19287109 C178.8778418 38.88287109 178.2178418 36.57287109 177.5378418 34.19287109 C173.2478418 34.19287109 168.9578418 34.19287109 164.5378418 34.19287109 Z M248.5378418 34.19287109 C248.5378418 35.84287109 248.5378418 37.49287109 248.5378418 39.19287109 C252.8278418 39.19287109 257.1178418 39.19287109 261.5378418 39.19287109 C261.2078418 37.54287109 260.8778418 35.89287109 260.5378418 34.19287109 C256.5778418 34.19287109 252.6178418 34.19287109 248.5378418 34.19287109 Z M248.5378418 73.19287109 C248.5378418 75.83287109 248.5378418 78.47287109 248.5378418 81.19287109 C252.8278418 81.19287109 257.1178418 81.19287109 261.5378418 81.19287109 C262.1978418 78.55287109 262.8578418 75.91287109 263.5378418 73.19287109 C258.5878418 73.19287109 253.6378418 73.19287109 248.5378418 73.19287109 Z " fill="#FFFFFF" transform="translate(25.462158203125,228.80712890625)"/>
<path d="M0 0 C0.99 0.33 1.98 0.66 3 1 C2.89042969 1.61101562 2.78085937 2.22203125 2.66796875 2.8515625 C1.45354707 9.86163888 0.41738823 16.89120736 -0.5625 23.9375 C-0.68923096 24.82969238 -0.81596191 25.72188477 -0.9465332 26.64111328 C-2.55979656 38.41207908 -3.12677709 50.16093211 -3.38870239 62.02996826 C-3.71912849 76.63938945 -4.50920643 91.14084163 -5.83227539 105.69873047 C-5.9850107 107.79433901 -6 109.89883288 -6 112 C-6.66 112 -7.32 112 -8 112 C-8.12955078 112.94746094 -8.12955078 112.94746094 -8.26171875 113.9140625 C-11.33213906 133.46334409 -20.66176118 152.42981017 -34 167 C-34.69480469 167.82371094 -35.38960937 168.64742187 -36.10546875 169.49609375 C-46.6695414 181.83046636 -58.85110337 190.29118847 -73 198 C-73.90492188 198.50273437 -74.80984375 199.00546875 -75.7421875 199.5234375 C-80.71022888 202.14964119 -85.88006022 204.19137693 -91.125 206.1875 C-91.78250244 206.43790039 -92.44000488 206.68830078 -93.11743164 206.94628906 C-96.42266986 208.16772727 -99.66725017 209.18705886 -103.10546875 209.96484375 C-106.86192352 210.86318617 -109.86897005 212.36722363 -113.1875 214.375 C-114.17105469 214.96023438 -115.15460937 215.54546875 -116.16796875 216.1484375 C-120.45018476 218.9481208 -124.02474914 221.47108271 -126.625 225.9375 C-127.03621094 226.62714844 -127.44742188 227.31679688 -127.87109375 228.02734375 C-128.81727036 229.68069734 -129.75357765 231.33969361 -130.6875 233 C-131.3371875 233.99 -131.3371875 233.99 -132 235 C-132.66 235 -133.32 235 -134 235 C-133.48877408 227.91341688 -132.31392785 221.24025066 -130.5 214.375 C-130.24226807 213.39442627 -129.98453613 212.41385254 -129.71899414 211.40356445 C-125.87491243 197.31306675 -120.8924567 183.449019 -114.20117188 170.45703125 C-113.00697392 168.01426534 -112.00653484 165.55822622 -111.03515625 163.01953125 C-108.94448303 157.64846469 -106.26339087 152.70240755 -103.4375 147.6875 C-102.95603516 146.82060547 -102.47457031 145.95371094 -101.97851562 145.06054688 C-100.66370784 142.7004036 -99.33323875 140.34975911 -98 138 C-97.43410156 136.97519531 -96.86820313 135.95039063 -96.28515625 134.89453125 C-95.86105469 134.26933594 -95.43695312 133.64414063 -95 133 C-94.34 133 -93.68 133 -93 133 C-92.72615479 132.26064209 -92.45230957 131.52128418 -92.17016602 130.75952148 C-91.07614276 128.17956219 -89.87957014 126.13473359 -88.27734375 123.84765625 C-87.74302734 123.07760254 -87.20871094 122.30754883 -86.65820312 121.51416016 C-85.80645508 120.30058838 -85.80645508 120.30058838 -84.9375 119.0625 C-80.10389182 112.10783175 -75.44635451 105.09077001 -71 97.8828125 C-68.91363406 94.87551159 -66.6042568 92.5653292 -64 90 C-61.99626939 87.61333421 -60.09065047 85.15473512 -58.1875 82.6875 C-57.68541016 82.04232422 -57.18332031 81.39714844 -56.66601562 80.73242188 C-55.44094319 79.15732875 -54.2200368 77.57899684 -53 76 C-62.82898364 82.55265576 -71.44916341 90.89340042 -80 99 C-80.75410156 99.7115625 -81.50820313 100.423125 -82.28515625 101.15625 C-87.67300204 106.38342445 -92.31200325 112.14792298 -97 118 C-98.64422123 120.00132553 -100.29001106 122.00136358 -101.9375 124 C-104.09931602 126.62315594 -106.11339797 129.17009695 -108 132 C-108.66 132 -109.32 132 -110 132 C-110.2784375 133.3921875 -110.2784375 133.3921875 -110.5625 134.8125 C-111.52502759 138.13878582 -112.96511547 140.68140898 -114.875 143.5625 C-123.84408906 157.19476325 -131.43963238 171.65898574 -137 187 C-137.66046487 188.66913402 -138.32479794 190.3367729 -139 192 C-139.99 192 -140.98 192 -142 192 C-142.96880403 188.89900685 -143.92299652 185.79368811 -144.875 182.6875 C-145.14441406 181.82576172 -145.41382813 180.96402344 -145.69140625 180.07617188 C-149.3540408 168.0609439 -150.37297924 156.8294346 -150.37060547 144.33154297 C-150.37496847 141.76852397 -150.41136549 139.20724619 -150.44921875 136.64453125 C-150.52099858 126.08716455 -149.34525838 117.04033169 -146 107 C-145.62174072 105.84508057 -145.24348145 104.69016113 -144.85375977 103.50024414 C-133.77321045 70.90810084 -105.38096974 51.10898897 -76.046875 36.49365234 C-63.16853306 30.18037542 -50.09353868 24.40857263 -36.8125 19 C-18.44828894 11.80032419 -18.44828894 11.80032419 -1.92871094 1.29077148 C-1.29223633 0.86481689 -0.65576172 0.4388623 0 0 Z " fill="#DDA362" transform="translate(942,71)"/>
<path d="M0 0 C2.36143517 21.79012401 4.46034017 43.59258213 6.25 65.4375 C6.38287415 67.04055496 6.38287415 67.04055496 6.51843262 68.67599487 C6.77146473 71.74072105 7.01952262 74.80580409 7.265625 77.87109375 C7.34043091 78.77794922 7.41523682 79.68480469 7.49230957 80.61914062 C7.89705022 85.76523263 8.0703696 90.83794085 8 96 C8.66 96 9.32 96 10 96 C9.67 99.96 9.34 103.92 9 108 C4.86194139 106.96548535 3.76045104 106.17970079 0.75 103.375 C-0.03503906 102.65570313 -0.82007813 101.93640625 -1.62890625 101.1953125 C-2.80259766 100.10863281 -2.80259766 100.10863281 -4 99 C-8.47748868 94.95319535 -12.8759969 91.20250194 -18 88 C-18.99 90.97 -19.98 93.94 -21 97 C-21.66 97 -22.32 97 -23 97 C-23.37125 98.2375 -23.37125 98.2375 -23.75 99.5 C-34.94291195 130.84015345 -59.81548973 165.28921528 -85 187 C-85.66 187 -86.32 187 -87 187 C-87.26941406 187.59425781 -87.53882813 188.18851563 -87.81640625 188.80078125 C-96.69424018 205.29655849 -123.97037117 221.26722748 -140.4296875 229.1875 C-143.08707718 230.49882134 -145.64144138 231.9348174 -148.1953125 233.4375 C-186.61407835 255.86807994 -229.94595723 264.77998862 -274 265 C-274 264.34 -274 263.68 -274 263 C-273.00709961 262.72289185 -273.00709961 262.72289185 -271.99414062 262.44018555 C-247.88007153 255.61298309 -222.81724754 246.50850141 -202.609375 231.1875 C-201 230 -201 230 -199 230 C-199 229.34 -199 228.68 -199 228 C-198.51273438 227.76667969 -198.02546875 227.53335938 -197.5234375 227.29296875 C-188.37962598 222.58806209 -180.63894561 215.85430579 -172.76171875 209.3203125 C-171.30185547 208.10988281 -171.30185547 208.10988281 -169.8125 206.875 C-168.52279297 205.78832031 -168.52279297 205.78832031 -167.20703125 204.6796875 C-165 203 -165 203 -162 202 C-161.30892404 200.67915321 -160.64507739 199.34391123 -160 198 C-156.28290493 194.00958912 -152.04600309 190.9217652 -147.3125 188.25 C-138.5392408 183.21148737 -131.10537461 176.131309 -124 169 C-122.58432087 167.61664799 -121.16855284 166.23338423 -119.75047302 164.85249329 C-104.22210012 149.71350324 -90.94289818 135.17844454 -79.984375 116.3515625 C-78.38539182 113.65091768 -76.72956431 111.07247941 -74.9375 108.5 C-66.66761685 96.2542115 -60.90070382 82.48467405 -55 69 C-56.15000488 68.78065796 -56.15000488 68.78065796 -57.32324219 68.55688477 C-60.79905249 67.89325876 -64.27452866 67.22789879 -67.75 66.5625 C-68.9565625 66.33240234 -70.163125 66.10230469 -71.40625 65.86523438 C-72.56640625 65.64287109 -73.7265625 65.42050781 -74.921875 65.19140625 C-75.99018555 64.98717041 -77.05849609 64.78293457 -78.15917969 64.57250977 C-80.46168559 64.10848636 -82.72901666 63.59649246 -85 63 C-85 62.01 -85 61.02 -85 60 C-83.64916992 58.68823242 -83.64916992 58.68823242 -81.73046875 57.35546875 C-81.01600586 56.85055908 -80.30154297 56.34564941 -79.56542969 55.82543945 C-78.78071289 55.28491943 -77.99599609 54.74439941 -77.1875 54.1875 C-75.52919401 53.01929863 -73.87166697 51.84999088 -72.21484375 50.6796875 C-71.35358887 50.07479492 -70.49233398 49.46990234 -69.60498047 48.84667969 C-65.44201591 45.89553968 -61.34785438 42.85305876 -57.25 39.8125 C-51.86433918 35.83014135 -46.46255816 31.87623962 -41 28 C-35.40502844 24.02338122 -29.84778592 19.99681761 -24.3125 15.9375 C-23.09324829 15.04393799 -23.09324829 15.04393799 -21.84936523 14.13232422 C-16.41277236 10.11871729 -11.19674431 5.95057684 -6.12890625 1.4765625 C-4 0 -4 0 0 0 Z " fill="#DEA463" transform="translate(879,286)"/>
<path d="M0 0 C2.40461344 1.19428064 4.35774015 1.83446055 6.92578125 2.453125 C7.52390625 3.071875 8.12203125 3.690625 8.73828125 4.328125 C10.83255105 6.36255852 11.97665797 6.99864173 14.61328125 8.015625 C15.70640625 8.49 16.79953125 8.964375 17.92578125 9.453125 C18.25578125 10.443125 18.58578125 11.433125 18.92578125 12.453125 C20.57580953 13.80699436 22.24321995 15.13990642 23.92578125 16.453125 C24.91578125 17.938125 24.91578125 17.938125 25.92578125 19.453125 C27.69708336 20.41928979 29.46876692 21.38480714 31.24609375 22.33984375 C33.62583968 23.91711722 34.64115753 25.95148933 35.92578125 28.453125 C36.58578125 28.783125 37.24578125 29.113125 37.92578125 29.453125 C38.40015625 30.4225 38.87453125 31.391875 39.36328125 32.390625 C40.72210967 35.67055675 40.72210967 35.67055675 43.92578125 37.453125 C44.61331426 39.11129284 45.28139408 40.77771836 45.92578125 42.453125 C46.58578125 42.783125 47.24578125 43.113125 47.92578125 43.453125 C47.92578125 44.773125 47.92578125 46.093125 47.92578125 47.453125 C47.28320374 47.46121185 46.64062622 47.46929871 45.97857666 47.47763062 C39.29508555 47.56363821 32.61189233 47.6631404 25.92871094 47.77050781 C23.43397013 47.80880854 20.93917389 47.84365946 18.44433594 47.875 C14.8598244 47.92062624 11.27569485 47.9786256 7.69140625 48.0390625 C6.57461487 48.05061371 5.45782349 48.06216492 4.30718994 48.07406616 C3.26641296 48.09393585 2.22563599 48.11380554 1.15332031 48.13427734 C0.23842834 48.14760101 -0.67646362 48.16092468 -1.61907959 48.1746521 C-4.25866313 48.47404551 -5.85237005 49.01054092 -8.07421875 50.453125 C-10.47540934 54.05491088 -10.51193197 56.96178869 -10.69921875 61.140625 C-10.75722656 62.1934668 -10.75722656 62.1934668 -10.81640625 63.26757812 C-10.91045215 64.99567155 -10.99341555 66.72436175 -11.07421875 68.453125 C-11.81542969 67.70933594 -12.55664062 66.96554688 -13.3203125 66.19921875 C-25.52924825 54.02491828 -36.99108985 47.64847349 -54.38671875 47.078125 C-70.96517879 47.34551952 -83.68987489 54.97189311 -95.07421875 66.453125 C-95.1 65.56109375 -95.12578125 64.6690625 -95.15234375 63.75 C-95.2090625 62.57953125 -95.26578125 61.4090625 -95.32421875 60.203125 C-95.370625 59.04296875 -95.41703125 57.8828125 -95.46484375 56.6875 C-96.16900836 52.9500109 -97.13271597 51.77536404 -100.07421875 49.453125 C-102.38683578 48.29681648 -103.77733977 48.30272262 -106.3527832 48.26025391 C-107.23742752 48.24419098 -108.12207184 48.22812805 -109.03352356 48.21157837 C-113.08117927 48.16712785 -117.12867097 48.12606359 -121.17651367 48.10302734 C-123.31139018 48.08646659 -125.44621121 48.05917512 -127.58081055 48.02099609 C-130.65833305 47.96623167 -133.73455586 47.94435387 -136.8125 47.9296875 C-138.2408593 47.89568344 -138.2408593 47.89568344 -139.69807434 47.86099243 C-144.25083187 47.87550481 -146.40242339 47.96376185 -150.17138672 50.70922852 C-152.05596004 53.42679581 -152.71136812 54.641046 -152.78125 57.87890625 C-152.81025391 58.67490234 -152.83925781 59.47089844 -152.86914062 60.29101562 C-152.87494141 61.10763672 -152.88074219 61.92425781 -152.88671875 62.765625 C-152.91185547 63.60158203 -152.93699219 64.43753906 -152.96289062 65.29882812 C-153.02148865 67.34975909 -153.05078368 69.40149093 -153.07421875 71.453125 C-155.56951354 69.02801583 -157.45782561 66.58970737 -159.32421875 63.640625 C-159.865625 62.80917969 -160.40703125 61.97773438 -160.96484375 61.12109375 C-162.41669169 57.6295017 -162.15077669 56.07427442 -161.07421875 52.453125 C-159.78968255 49.65514354 -158.28334007 47.02873062 -156.69921875 44.390625 C-156.25441162 43.64619141 -155.80960449 42.90175781 -155.35131836 42.13476562 C-148.90428764 31.62499109 -141.40459931 22.95932626 -131.58203125 15.453125 C-128.9909364 13.47073974 -128.9909364 13.47073974 -126.62109375 10.9453125 C-94.27416586 -20.70704945 -37.53750776 -19.91609408 0 0 Z " fill="#DDA261" transform="translate(654.07421875,181.546875)"/>
<path d="M0 0 C0.33 0 0.66 0 1 0 C1.34611328 1.55847656 1.34611328 1.55847656 1.69921875 3.1484375 C5.45329127 19.47032146 11.72189554 32.08344076 26.30078125 41.52734375 C39.42985569 48.69038436 55.75711767 49.1143847 70 45 C80.25388074 41.05426648 87.37450931 34.65953306 95 27 C95.03867187 28.42892578 95.03867187 28.42892578 95.078125 29.88671875 C95.13484375 31.14097656 95.1915625 32.39523437 95.25 33.6875 C95.29640625 34.92886719 95.3428125 36.17023438 95.390625 37.44921875 C96.13209341 41.76969817 96.65829415 43.13740039 100 46 C103.98309101 46.7790693 107.93621397 46.72101253 111.984375 46.70703125 C113.15510559 46.72215256 114.32583618 46.73727386 115.53204346 46.75285339 C119.27155651 46.79584329 123.0102641 46.80457988 126.75 46.8125 C129.28517783 46.83563532 131.82033639 46.86099862 134.35546875 46.88867188 C140.57032004 46.95163604 146.78485513 46.98648051 153 47 C151.60637154 50.64136769 150.13631805 53.39140925 147.6875 56.4375 C147.07003906 57.21222656 146.45257812 57.98695313 145.81640625 58.78515625 C144.27286199 60.66728441 142.70709913 62.5253739 141.125 64.375 C138.84638349 66.87564378 138.84638349 66.87564378 138 70 C136.8553125 70.680625 136.8553125 70.680625 135.6875 71.375 C132.91066874 72.83153029 132.91066874 72.83153029 131.2578125 75.26953125 C128.55520523 78.53790925 125.60688172 80.83724953 122.1875 83.3125 C121.53458984 83.78816406 120.88167969 84.26382813 120.20898438 84.75390625 C113.49781629 89.53200104 106.41332097 93.42812717 99 97 C97.93652344 97.51304687 96.87304688 98.02609375 95.77734375 98.5546875 C90.89775458 100.60452329 85.72488578 101.54936463 80.5625 102.625 C79.56412109 102.8415625 78.56574219 103.058125 77.53710938 103.28125 C59.86712599 107.04527013 42.71150701 106.99882326 25.02392578 103.39257812 C23.17059369 103.03308983 21.30204168 102.75451205 19.43359375 102.484375 C3.28398089 99.86450733 -13.78952587 89.80049908 -25 78 C-26.28494995 76.88802408 -27.57731569 75.78458807 -28.875 74.6875 C-33.00274855 71.11063518 -36.49025994 67.17195517 -40 63 C-40.5259375 62.4121875 -41.051875 61.824375 -41.59375 61.21875 C-45.13934664 57.23899867 -48.94326851 52.96276006 -51 48 C-50.66328176 45.6941194 -50.04139872 44.08279744 -49 42 C-48.79588946 39.04622888 -48.67617455 36.14399311 -48.625 33.1875 C-48.56892578 31.97610352 -48.56892578 31.97610352 -48.51171875 30.74023438 C-48.44765483 26.39456494 -48.57592744 24.56178685 -51.2734375 20.98828125 C-54.00960626 18.73151553 -54.00960626 18.73151553 -58 18 C-58 14.37 -58 10.74 -58 7 C-55.04241238 9.95758762 -53.13391763 12.92863864 -51.0625 16.5 C-47.32560284 22.83282361 -43.48221247 29.09114752 -39.5625 35.3125 C-39.04244385 36.14265625 -38.5223877 36.9728125 -37.98657227 37.828125 C-37.25265259 38.99021484 -37.25265259 38.99021484 -36.50390625 40.17578125 C-36.06892822 40.86583252 -35.6339502 41.55588379 -35.18579102 42.2668457 C-33.98129855 44.14157371 -33.98129855 44.14157371 -32 46 C-27.5604565 46.48817749 -23.08830017 46.37040813 -18.625 46.375 C-17.37976563 46.39949219 -16.13453125 46.42398438 -14.8515625 46.44921875 C-13.6553125 46.45308594 -12.4590625 46.45695312 -11.2265625 46.4609375 C-10.12908691 46.46915527 -9.03161133 46.47737305 -7.90087891 46.48583984 C-4.96646226 46.17900679 -4.96646226 46.17900679 -2.64892578 44.56982422 C-0.13685015 40.6547949 -0.39686837 36.98536827 -0.390625 32.421875 C-0.37408875 31.4953009 -0.35755249 30.56872681 -0.34051514 29.61407471 C-0.29199274 26.659316 -0.27065476 23.70507211 -0.25 20.75 C-0.22184387 18.74476571 -0.19191695 16.73955544 -0.16015625 14.734375 C-0.08623255 9.82295904 -0.03668376 4.91182959 0 0 Z " fill="#DBA160" transform="translate(548,296)"/>
<path d="M0 0 C10.56 0 21.12 0 32 0 C32 0.66 32 1.32 32 2 C32.66 2.33 33.32 2.66 34 3 C34.67578125 4.85546875 34.67578125 4.85546875 35.3125 7.1875 C36.3157849 10.41746311 37.31414008 12.71728868 39.5625 15.25 C41.88053723 17.86522148 42.80650429 19.78674233 44 23 C44.66 23.33 45.32 23.66 46 24 C46.66666667 25.66666667 47.33333333 27.33333333 48 29 C48.66 29.33 49.32 29.66 50 30 C50.96047872 31.68911775 51.91837879 33.37982663 52.85546875 35.08203125 C54.91804402 38.53842871 57.34763714 42.17381857 61 44 C61.4125 44.7425 61.825 45.485 62.25 46.25 C64.93029451 50.46189137 68.1849705 53.39499017 73 55 C73 55.99 73 56.98 73 58 C73.53109375 58.23589844 74.0621875 58.47179687 74.609375 58.71484375 C77.07817489 60.04202539 79.26888481 61.60421117 81.515625 63.27441406 C93.73457927 72.34918922 106.786996 79.51875182 121 85 C122.78664063 85.69609375 122.78664063 85.69609375 124.609375 86.40625 C134.06354909 89.83687857 143.03758675 91.11582297 153 92 C154.47982237 92.20362356 155.95915487 92.41091479 157.4375 92.625 C189.09378658 95.94770184 219.90594701 88.97883118 247.296875 72.96484375 C249.44967938 71.74525044 251.67038796 70.82663653 254 70 C250.6701784 87.14101347 223.86173331 103.97060079 210.25 113.4375 C188.80732632 127.1011586 161.53961316 125.8799926 137.43359375 120.9296875 C132.24645882 119.77262221 127.11692985 118.43372914 122 117 C121.32952637 116.81598633 120.65905273 116.63197266 119.96826172 116.44238281 C102.67887294 111.57960177 86.62755302 102.93426786 71.71191406 93.08154297 C70.01922336 92.01214482 68.25469052 91.05932095 66.4921875 90.109375 C62.46266894 87.8394617 59.30617988 84.82786176 56 81.625 C54.83463326 80.51165857 53.6679679 79.39967484 52.5 78.2890625 C51.92725342 77.7432251 51.35450684 77.1973877 50.7644043 76.63500977 C48.97343926 74.97538712 47.13525757 73.39123578 45.26953125 71.81640625 C42.87048791 69.78186768 40.70692443 67.73472067 38.6875 65.3125 C35.04347115 61.00891841 31.2016385 56.90976805 27.33203125 52.80859375 C25.21064107 50.25368665 23.56820977 47.70350396 21.98071289 44.79223633 C20.70006588 42.45187543 19.29762179 40.1890577 17.90478516 37.91430664 C14.12769305 31.72693336 10.5378194 25.45826638 7.125 19.0625 C6.57162964 18.03503662 6.57162964 18.03503662 6.00708008 16.98681641 C0 5.5914587 0 5.5914587 0 0 Z " fill="#DEA565" transform="translate(428,343)"/>

<path d="M0 0 C6.83932146 -0.15608221 13.41641695 0.22864694 20.1875 1.1875 C21.13383301 1.3213208 22.08016602 1.4551416 23.05517578 1.59301758 C55.7709523 6.42952053 87.5080173 16.99736121 116.44140625 33.08984375 C119.8690024 34.98337127 123.37856157 36.5132061 127 38 C127 38.66 127 39.32 127 40 C127.99 40 128.98 40 130 40 C130 40.66 130 41.32 130 42 C130.99 42 131.98 42 133 42 C133.33 43.32 133.66 44.64 134 46 C135.32 46 136.64 46 138 46 C138.66 46.99 139.32 47.98 140 49 C142.05925139 49.72382467 142.05925139 49.72382467 144 50 C144 50.66 144 51.32 144 52 C144.66 52 145.32 52 146 52 C146 52.66 146 53.32 146 54 C146.99 54 147.98 54 149 54 C149.66 54.99 150.32 55.98 151 57 C151.99 57.33 152.98 57.66 154 58 C154.474375 58.66 154.94875 59.32 155.4375 60 C156.79119668 62.16770291 156.79119668 62.16770291 158.9375 62.4375 C162.02470709 63.27946557 163.08557248 65.52977095 165 68 C165.99 68.33 166.98 68.66 168 69 C168 69.66 168 70.32 168 71 C168.66 71 169.32 71 170 71 C170 71.66 170 72.32 170 73 C170.66 73 171.32 73 172 73 C172.33 73.99 172.66 74.98 173 76 C173.66 76.33 174.32 76.66 175 77 C175 77.66 175 78.32 175 79 C175.66 79 176.32 79 177 79 C177 79.66 177 80.32 177 81 C177.66 81 178.32 81 179 81 C179 81.66 179 82.32 179 83 C179.66 83 180.32 83 181 83 C181 83.66 181 84.32 181 85 C181.66 85 182.32 85 183 85 C183.61875 86.0828125 183.61875 86.0828125 184.25 87.1875 C185.8624954 89.77901047 186.8299908 90.75266965 189.1875 92.5 C192 95 192 95 192.6875 97.5625 C192 100 192 100 189.83984375 101.66015625 C186.20337588 104.65636568 183.65536725 108.09619663 180.875 111.875 C180.35035156 112.56980469 179.82570313 113.26460938 179.28515625 113.98046875 C176.41766267 117.83525126 173.9982081 121.60394217 172 126 C167.99806952 124.47801302 166.36096135 122.07673374 163.9375 118.625 C156.3509 108.12390906 147.21355678 99.07205165 138 90 C137.19691406 89.18144531 136.39382813 88.36289063 135.56640625 87.51953125 C123.79543652 75.9635564 110.20122942 67.31818032 95.98291016 59.14306641 C94.70751517 58.40785349 93.43598893 57.66586594 92.16943359 56.91552734 C88.22359993 54.59774883 84.22198946 52.7553129 80 51 C78.70317418 50.40659384 77.40899884 49.8073696 76.1171875 49.203125 C53.83647934 38.88261241 30.38239941 32.08230332 6 29 C0 5.26213592 0 5.26213592 0 0 Z " fill="#DEA463" transform="translate(620,25)"/>

<path d="M0 0 C0.2408831 6.44362304 -0.64700392 12.2103966 -2 18.5 C-2.19078125 19.4178125 -2.3815625 20.335625 -2.578125 21.28125 C-3.04503453 23.52241577 -3.51910692 25.76180083 -4 28 C-4.63687744 28.08975098 -5.27375488 28.17950195 -5.92993164 28.27197266 C-17.94994674 29.9981771 -29.81057709 31.96821029 -41.5625 35.0625 C-42.49392822 35.30758301 -43.42535645 35.55266602 -44.38500977 35.80517578 C-49.71527806 37.25628224 -54.90806012 38.84773675 -60 41 C-60.33 41.66 -60.66 42.32 -61 43 C-62.6106245 43.20051952 -64.22152919 43.39895328 -65.83349609 43.58837891 C-70.22226494 44.42221531 -74.24226942 46.39722289 -78.3125 48.1875 C-79.24876221 48.59387695 -80.18502441 49.00025391 -81.1496582 49.41894531 C-86.6357643 51.83932851 -91.85391979 54.41444185 -96.89453125 57.6796875 C-99.1561443 59.09791609 -101.46358747 60.23175575 -103.875 61.375 C-109.96195047 64.34658212 -115.44389568 68.14682596 -121 72 C-121.70640625 72.47824219 -122.4128125 72.95648438 -123.140625 73.44921875 C-126.8313683 75.99262229 -129.85076684 78.8274737 -133 82 C-147.987878 95.93491796 -147.987878 95.93491796 -154.44921875 100.87109375 C-157.14102476 103.1177006 -159.23293904 105.46421881 -161.4375 108.1875 C-162.15808594 109.06792969 -162.87867188 109.94835937 -163.62109375 110.85546875 C-166.0416166 114.05501045 -168.24024764 117.34547408 -170.44458008 120.69506836 C-171.9075204 122.86295717 -173.43040202 124.9574095 -175.0078125 127.04296875 C-189.76076593 146.58040979 -201.37047549 168.38039175 -208 192 C-208.55833926 193.91788285 -209.12049464 195.83466131 -209.6875 197.75 C-209.91824219 198.54921875 -210.14898437 199.3484375 -210.38671875 200.171875 C-211 202 -211 202 -212 203 C-214.18639453 203.07258946 -216.37500389 203.08373783 -218.5625 203.0625 C-219.76003906 203.05347656 -220.95757812 203.04445312 -222.19140625 203.03515625 C-223.11824219 203.02355469 -224.04507812 203.01195312 -225 203 C-220.45331344 167.78014437 -202.52598782 126.84375533 -179 100 C-178.34 100 -177.68 100 -177 100 C-176.74605469 99.43796875 -176.49210937 98.8759375 -176.23046875 98.296875 C-174.83156789 95.68559339 -173.1777572 93.55133894 -171.3125 91.25 C-170.66925781 90.45078125 -170.02601563 89.6515625 -169.36328125 88.828125 C-163.79890894 82.16927285 -158.00856886 75.82686619 -151.875 69.6875 C-151.18535156 68.98560547 -150.49570312 68.28371094 -149.78515625 67.56054688 C-146.37442994 64.14003837 -143.26072239 61.33907901 -139 59 C-137.35226677 57.69486477 -135.72868986 56.35888985 -134.125 55 C-100.01355232 26.83290647 -59.76229384 10.1257415 -16.5 1.625 C-15.21838989 1.37290771 -15.21838989 1.37290771 -13.91088867 1.11572266 C-9.19037096 0.24268879 -4.79972949 -0.16773248 0 0 Z " fill="#DEA667" transform="translate(578,26)"/>





<path d="M0 0 C6.83957613 4.35245754 10.65575278 11.41187556 13.03515625 18.92578125 C15.62168849 31.99108511 14.92653117 46.1059222 7.91015625 57.67578125 C4.44806558 61.87225479 1.0168888 64.491101 -4.15234375 66.17578125 C-7.7109375 66.51171875 -7.7109375 66.51171875 -11.58984375 66.55078125 C-12.86730469 66.57914062 -14.14476562 66.6075 -15.4609375 66.63671875 C-21.44532051 65.88946246 -25.32423392 62.62984448 -28.98828125 57.9375 C-36.29783528 46.87505413 -36.6579392 32.00042954 -34.69140625 19.16796875 C-32.80595408 12.09197765 -29.10307983 4.92063108 -22.96484375 0.67578125 C-16.00655025 -3.03530862 -7.2684234 -3.14915264 0 0 Z " fill="#FFFFFF" transform="translate(611.15234375,253.82421875)"/>

<path d="M0 0 C4.25385196 1.57207572 6.08882907 4.04798293 8.15234375 8.06640625 C12.4795342 17.9371863 12.29697291 29.82059614 9 40 C7.1666142 44.62711655 5.45319339 47.63708106 1 50 C-4.61090789 50.83268675 -9.30373778 51.17699828 -14.0625 47.875 C-20.86822596 37.77618084 -21.42714905 25.78764216 -19.50390625 13.9453125 C-18.0535433 8.55356774 -15.94381671 4.94381671 -12 1 C-8.30537248 -0.84731376 -4.04109854 -0.33835422 0 0 Z " fill="#D99F5D" transform="translate(605,261)"/>
<path d="M0 0 C0.66 0.33 1.32 0.66 2 1 C1.9278125 1.75539063 1.855625 2.51078125 1.78125 3.2890625 C0.32854312 20.51978027 0.80867832 37.76838284 2 55 C-4.625 55.125 -4.625 55.125 -8 54 C-9.42285156 52.31689453 -9.42285156 52.31689453 -10.890625 50.1328125 C-11.43589844 49.3284375 -11.98117187 48.5240625 -12.54296875 47.6953125 C-13.10628906 46.84710938 -13.66960937 45.99890625 -14.25 45.125 C-14.79785156 44.31546875 -15.34570312 43.5059375 -15.91015625 42.671875 C-20.05345313 36.52000094 -24.04168769 30.27205788 -28 24 C-27.28082397 23.06148193 -27.28082397 23.06148193 -26.54711914 22.10400391 C-24.38385892 19.27898189 -22.22315005 16.45201876 -20.0625 13.625 C-18.93038086 12.14773438 -18.93038086 12.14773438 -17.77539062 10.640625 C-17.05673828 9.69960938 -16.33808594 8.75859375 -15.59765625 7.7890625 C-14.93258057 6.91975098 -14.26750488 6.05043945 -13.58227539 5.15478516 C-11.97867975 3.09812678 -11.97867975 3.09812678 -11 1 C-7.10835652 -0.29721449 -4.10570774 -0.13033993 0 0 Z " fill="#DCA465" transform="translate(448,259)"/>
<path d="M0 0 C5.754375 -0.0928125 5.754375 -0.0928125 11.625 -0.1875 C13.42251709 -0.22846802 13.42251709 -0.22846802 15.25634766 -0.27026367 C20.895494 -0.31429731 25.18567788 -0.3138584 30 3 C33.04085379 6.24357738 33.2366922 9.21245825 33.375 13.5 C33.2366922 17.78754175 33.04085379 20.75642262 30 24 C24.2394245 27.96519614 18.32471744 27.34019626 11.625 27.1875 C7.78875 27.125625 3.9525 27.06375 0 27 C0 18.09 0 9.18 0 0 Z " fill="#FFFFFF" transform="translate(682,292)"/>
<path d="M0 0 C2.805 -0.061875 5.61 -0.12375 8.5 -0.1875 C9.8003418 -0.22846802 9.8003418 -0.22846802 11.12695312 -0.27026367 C16.76457557 -0.32968104 20.8743039 0.61138066 26 3 C28.96346663 6.25981329 29.90073307 8.19168354 30.4375 12.5625 C29.84961163 17.1816229 28.49092728 19.69543863 25 22.75 C21.73021813 24.79361367 19.09513046 25.12162503 15.33203125 25.09765625 C14.52741455 25.09515869 13.72279785 25.09266113 12.89379883 25.09008789 C11.36855591 25.07643188 11.36855591 25.07643188 9.8125 25.0625 C4.9553125 25.0315625 4.9553125 25.0315625 0 25 C0 16.75 0 8.5 0 0 Z " fill="#FFFFFF" transform="translate(682,253)"/>
<path d="M0 0 C1.98 0.66 3.96 1.32 6 2 C6 19.82 6 37.64 6 56 C4.68 56 3.36 56 2 56 C1.68063424 54.25123994 1.37002651 52.50088083 1.0625 50.75 C0.88847656 49.77546875 0.71445312 48.8009375 0.53515625 47.796875 C-0.88734109 37.70441216 -1.15735594 27.68133626 -1.125 17.5 C-1.12886719 16.2521875 -1.13273437 15.004375 -1.13671875 13.71875 C-1.13542969 12.5225 -1.13414062 11.32625 -1.1328125 10.09375 C-1.13168457 9.01802734 -1.13055664 7.94230469 -1.12939453 6.83398438 C-1.01733293 4.37962382 -0.71053309 2.33974949 0 0 Z " fill="#E0AA6F" transform="translate(349,258)"/>
<path d="M0 0 C2.31 0.66 4.62 1.32 7 2 C7 20.15 7 38.3 7 57 C3.535 57.495 3.535 57.495 0 58 C0.27714844 57.17757812 0.55429687 56.35515625 0.83984375 55.5078125 C3.07743485 48.61189118 4.75446642 42.24857829 5 35 C5.03996094 33.90816406 5.07992187 32.81632812 5.12109375 31.69140625 C5.32923085 20.51321938 3.84651153 10.490486 0 0 Z " fill="#6D6753" transform="translate(647,257)"/>
<path d="M0 0 C2.12493141 -0.02693575 4.24995912 -0.04636628 6.375 -0.0625 C7.55835938 -0.07410156 8.74171875 -0.08570313 9.9609375 -0.09765625 C13 0 13 0 15 1 C15.1875 4.375 15.1875 4.375 15 8 C11.47320901 10.35119399 9.97120515 10.21443452 5.8125 10.125 C4.72582031 10.10695313 3.63914062 10.08890625 2.51953125 10.0703125 C1.27236328 10.03550781 1.27236328 10.03550781 0 10 C0 6.7 0 3.4 0 0 Z " fill="#CF9A5C" transform="translate(691,301)"/>
<path d="M0 0 C1.65 0 3.3 0 5 0 C5.18175781 0.61746094 5.36351562 1.23492187 5.55078125 1.87109375 C7.69318398 9.08934296 9.89676111 16.25349968 12.6875 23.25 C13.83404101 26.52583147 14.31896146 28.59774448 14 32 C11 31 11 31 9.86499023 28.90209961 C9.51637939 27.99468018 9.16776855 27.08726074 8.80859375 26.15234375 C8.22754883 24.65477539 8.22754883 24.65477539 7.63476562 23.12695312 C7.23966797 22.07443359 6.84457031 21.02191406 6.4375 19.9375 C5.83905273 18.39932617 5.83905273 18.39932617 5.22851562 16.83007812 C3.09812215 11.27113821 1.29080313 5.81210274 0 0 Z " fill="#E6CAA9" transform="translate(358,343)"/>
<path d="M0 0 C0.33 0 0.66 0 1 0 C1.33919096 3.66614909 1.67028081 7.3329879 2 11 C2.09539063 12.02996094 2.19078125 13.05992187 2.2890625 14.12109375 C2.79321351 19.77478726 3.109151 25.32414798 3 31 C3.66 31 4.32 31 5 31 C4.67 34.96 4.34 38.92 4 43 C-0.17747833 41.95563042 -1.32788192 41.09397688 -4.375 38.25 C-7.84462254 35.06138821 -11.35759685 31.98863848 -15 29 C-10.63541582 29 -8.49675087 31.68722385 -5.375 34.4375 C-4.776875 34.95376953 -4.17875 35.47003906 -3.5625 36.00195312 C0.63058036 39.63058036 0.63058036 39.63058036 2 41 C1.85613451 38.41654307 1.71041648 35.83322641 1.5625 33.25 C1.51810791 32.47374268 1.47371582 31.69748535 1.42797852 30.89770508 C1.16855163 26.48562425 0.84772724 22.08865222 0.4375 17.6875 C-0.08631011 11.78645174 -0.09446909 5.9200627 0 0 Z " fill="#F0D8BE" transform="translate(884,351)"/>
<path d="M0 0 C1.4370809 -0.05422947 2.87475462 -0.09289723 4.3125 -0.125 C5.11300781 -0.14820313 5.91351562 -0.17140625 6.73828125 -0.1953125 C9 0 9 0 12 2 C12 3.32 12 4.64 12 6 C9.47524538 7.26237731 7.68799534 7.09856404 4.875 7.0625 C3.96492187 7.05347656 3.05484375 7.04445313 2.1171875 7.03515625 C1.41851563 7.02355469 0.71984375 7.01195312 0 7 C0 4.69 0 2.38 0 0 Z " fill="#D19B5C" transform="translate(691,262)"/>
<path d="M0 0 C2.99597751 2.99597751 5.03277207 6.09109153 7.1875 9.6875 C7.55552734 10.29400391 7.92355469 10.90050781 8.30273438 11.52539062 C9.20564926 13.01461388 10.10334696 14.50699815 11 16 C10.34 16.33 9.68 16.66 9 17 C7.88625 15.7934375 7.88625 15.7934375 6.75 14.5625 C4.10501953 11.68347114 4.10501953 11.68347114 0 11 C0 7.37 0 3.74 0 0 Z " fill="#C2935B" transform="translate(490,303)"/>
<path d="M0 0 C1.37344385 4.39844322 0.24307502 7.92504555 -0.9375 12.25 C-1.23043945 13.36761719 -1.23043945 13.36761719 -1.52929688 14.5078125 C-2.01104198 16.34079386 -2.50439225 18.17071818 -3 20 C-2.01 19.67 -1.02 19.34 0 19 C-0.8125 21.9375 -0.8125 21.9375 -2 25 C-2.99 25.33 -3.98 25.66 -5 26 C-4.56901343 17.03547936 -2.30110566 8.62647053 0 0 Z " fill="#EED2B4" transform="translate(813,280)"/>
<path d="M0 0 C0.33 0 0.66 0 1 0 C1 5.28 1 10.56 1 16 C-0.98 16.66 -2.96 17.32 -5 18 C-3.35 12.06 -1.7 6.12 0 0 Z " fill="#CB985C" transform="translate(652,297)"/>
<path d="M0 0 C0.66 0 1.32 0 2 0 C3.03411477 2.74564964 4.05251157 5.4954861 5.0625 8.25 C5.35705078 9.02730469 5.65160156 9.80460937 5.95507812 10.60546875 C6.22900391 11.35957031 6.50292969 12.11367188 6.78515625 12.890625 C7.17006226 13.92751465 7.17006226 13.92751465 7.56274414 14.98535156 C8.06952056 17.32031471 7.74214139 18.75375603 7 21 C3.55629555 14.08630327 1.11332019 7.66030756 0 0 Z " fill="#DFA96D" transform="translate(363,354)"/>
<path d="M0 0 C0.556875 0.474375 1.11375 0.94875 1.6875 1.4375 C4.18346074 3.12395996 6.0446237 3.58953107 9 4 C9 7.3 9 10.6 9 14 C6.51600034 11.51600034 4.74074728 9.32749037 2.8125 6.4375 C2.28269531 5.65246094 1.75289063 4.86742187 1.20703125 4.05859375 C0 2 0 2 0 0 Z " fill="#C2935B" transform="translate(502,256)"/>
<path d="M0 0 C1.01320313 0.52400391 1.01320313 0.52400391 2.046875 1.05859375 C2.93890625 1.51363281 3.8309375 1.96867187 4.75 2.4375 C5.63171875 2.88996094 6.5134375 3.34242187 7.421875 3.80859375 C9.64198566 4.83455398 11.61444619 5.51508603 14 6 C14 6.66 14 7.32 14 8 C14.99 8 15.98 8 17 8 C17 8.66 17 9.32 17 10 C17.99 10 18.98 10 20 10 C20.33 11.32 20.66 12.64 21 14 C17.99017445 12.35067641 14.99366929 10.67845893 12 9 C10.92105469 8.39929688 9.84210937 7.79859375 8.73046875 7.1796875 C7.64378906 6.56351563 6.55710937 5.94734375 5.4375 5.3125 C4.40496094 4.73113281 3.37242187 4.14976563 2.30859375 3.55078125 C1.54675781 3.03902344 0.78492188 2.52726562 0 2 C0 1.34 0 0.68 0 0 Z " fill="#F2DEC8" transform="translate(733,57)"/>
<path d="M0 0 C1.98 0.66 3.96 1.32 6 2 C6 6.95 6 11.9 6 17 C4.39577281 13.79154562 3.09692547 10.7330322 1.875 7.375 C1.52179687 6.41335938 1.16859375 5.45171875 0.8046875 4.4609375 C0 2 0 2 0 0 Z " fill="#D19B5C" transform="translate(647,257)"/>
<path d="M0 0 C1.32 0 2.64 0 4 0 C5.37868281 1.62935241 6.71274093 3.29749607 8 5 C8.99 5.33 9.98 5.66 11 6 C11 6.66 11 7.32 11 8 C11.66 8 12.32 8 13 8 C13 8.66 13 9.32 13 10 C13.66 10 14.32 10 15 10 C15 10.99 15 11.98 15 13 C11.90290533 11.62804139 9.84129475 10.06207499 7.5 7.625 C6.90058594 7.00753906 6.30117188 6.39007813 5.68359375 5.75390625 C5.12800781 5.17511719 4.57242188 4.59632812 4 4 C3.195625 3.195625 2.39125 2.39125 1.5625 1.5625 C1.046875 1.046875 0.53125 0.53125 0 0 Z " fill="#F6E8D8" transform="translate(777,88)"/>
<path d="M0 0 C1.8125 0.5625 1.8125 0.5625 4 2 C5.05352843 4.30965848 6.05719096 6.6429774 7 9 C7.66 9.33 8.32 9.66 9 10 C9.66666667 11.66666667 10.33333333 13.33333333 11 15 C11.66 15.33 12.32 15.66 13 16 C13 16.99 13 17.98 13 19 C12.34 19 11.68 19 11 19 C9.2734375 16.953125 9.2734375 16.953125 7.375 14.25 C6.74335938 13.36828125 6.11171875 12.4865625 5.4609375 11.578125 C4 9 4 9 4 5 C3.34 4.67 2.68 4.34 2 4 C0.875 1.9375 0.875 1.9375 0 0 Z " fill="#F2DCC4" transform="translate(465,357)"/>
<path d="M0 0 C1.32 0 2.64 0 4 0 C3.68806536 1.72926874 3.37542638 3.45841044 3.0625 5.1875 C2.88847656 6.15042969 2.71445312 7.11335938 2.53515625 8.10546875 C2.0476265 10.74239972 1.53328895 13.3719905 1 16 C0.67 16 0.34 16 0 16 C0 10.72 0 5.44 0 0 Z " fill="#776C53" transform="translate(548,260)"/>
<path d="M0 0 C1.98 0.66 3.96 1.32 6 2 C6 2.66 6 3.32 6 4 C6.99 4 7.98 4 9 4 C12.38751913 7.04008127 15.22388067 10.40132679 18 14 C13.90667449 12.18074422 10.38325725 9.58463422 6.75 7 C6.1003125 6.54882812 5.450625 6.09765625 4.78125 5.6328125 C3.14924291 4.47395032 1.5695175 3.24218497 0 2 C0 1.34 0 0.68 0 0 Z " fill="#F3E0CA" transform="translate(698,133)"/>
<path d="M0 0 C-0.56589844 0.19335938 -1.13179687 0.38671875 -1.71484375 0.5859375 C-2.44832031 0.84632812 -3.18179688 1.10671875 -3.9375 1.375 C-5.03384766 1.75785156 -5.03384766 1.75785156 -6.15234375 2.1484375 C-8.18682116 2.85271413 -8.18682116 2.85271413 -9 5 C-11.28515625 5.4140625 -11.28515625 5.4140625 -14.0625 5.625 C-14.98160156 5.69976562 -15.90070313 5.77453125 -16.84765625 5.8515625 C-17.91306641 5.92503906 -17.91306641 5.92503906 -19 6 C-15.84690341 3.35595756 -12.83152644 2.0431835 -8.9375 0.75 C-7.89464844 0.39421875 -6.85179687 0.0384375 -5.77734375 -0.328125 C-3 -1 -3 -1 0 0 Z " fill="#EED2B3" transform="translate(526,64)"/>
<path d="M0 0 C0.33 0 0.66 0 1 0 C1 3.63 1 7.26 1 11 C0.34 11 -0.32 11 -1 11 C-1.66 14.3 -2.32 17.6 -3 21 C-4.06140282 17.81579155 -3.95892549 16.91540891 -3.22265625 13.76953125 C-3.03896484 12.96708984 -2.85527344 12.16464844 -2.66601562 11.33789062 C-2.36727539 10.08782227 -2.36727539 10.08782227 -2.0625 8.8125 C-1.86720703 7.96751953 -1.67191406 7.12253906 -1.47070312 6.25195312 C-0.98758736 4.166307 -0.49472096 2.08292386 0 0 Z " fill="#F2DEC6" transform="translate(779,337)"/>
<path d="M0 0 C0.66 0.33 1.32 0.66 2 1 C-1.3 4.3 -4.6 7.6 -8 11 C-8.33 10.01 -8.66 9.02 -9 8 C-6.03 5.36 -3.06 2.72 0 0 Z " fill="#E2B27B" transform="translate(522,197)"/>
<path d="M0 0 C1.41750563 0.11509661 2.83401169 0.24253658 4.25 0.375 C5.03890625 0.44460938 5.8278125 0.51421875 6.640625 0.5859375 C9.085877 1.01507113 10.84836903 1.78600638 13 3 C11.02 3.33 9.04 3.66 7 4 C7 3.34 7 2.68 7 2 C5.35 2.33 3.7 2.66 2 3 C2 2.34 2 1.68 2 1 C1.34 0.67 0.68 0.34 0 0 Z " fill="#F3DFC9" transform="translate(510,533)"/>
<path d="M0 0 C0.92425781 0.46986328 0.92425781 0.46986328 1.8671875 0.94921875 C3.96999776 2.02605238 3.96999776 2.02605238 6.125 2.8125 C8.67232367 4.42580499 9.1119086 6.18771058 10 9 C6.78956118 7.61811547 4.95063635 6.07578097 2.75 3.375 C2.22921875 2.74335938 1.7084375 2.11171875 1.171875 1.4609375 C0.78515625 0.97882813 0.3984375 0.49671875 0 0 Z " fill="#F8EDE2" transform="translate(401,435)"/>
<path d="M0 0 C0.33 0.66 0.66 1.32 1 2 C-0.3125 4.625 -0.3125 4.625 -2 7 C-2.66 7 -3.32 7 -4 7 C-4 5.35 -4 3.7 -4 2 C-2.68 1.34 -1.36 0.68 0 0 Z " fill="#EBC9A3" transform="translate(812,299)"/>
<path d="M0 0 C0.66 0 1.32 0 2 0 C1.34 2.97 0.68 5.94 0 9 C-0.33 9 -0.66 9 -1 9 C-1.09765625 2.84765625 -1.09765625 2.84765625 -1 1 C-0.67 0.67 -0.34 0.34 0 0 Z " fill="#D09A5C" transform="translate(550,260)"/>
</svg>
