<?xml version="1.0" encoding="UTF-8"?>
<svg version="1.1" xmlns="http://www.w3.org/2000/svg" width="965" height="565">
<path d="M0 0 C0.99 0 1.98 0 3 0 C3.17128418 0.78238037 3.34256836 1.56476074 3.51904297 2.37084961 C4.29567228 5.89504763 5.08515087 9.41624239 5.875 12.9375 C6.14441406 14.16919922 6.41382813 15.40089844 6.69140625 16.66992188 C6.95566406 17.83974609 7.21992187 19.00957031 7.4921875 20.21484375 C7.85352783 21.84087524 7.85352783 21.84087524 8.22216797 23.49975586 C8.47885254 24.32483643 8.73553711 25.14991699 9 26 C9.66 26.33 10.32 26.66 11 27 C10.93304932 27.87688477 10.86609863 28.75376953 10.79711914 29.65722656 C10.80867179 35.76504313 12.71471678 41.61741467 14.24609375 47.484375 C14.58070276 48.78979856 14.91459926 50.09540495 15.24781799 51.40118408 C16.12278447 54.82139544 17.00794529 58.23888871 17.8951416 61.65594482 C18.61849853 64.44883846 19.33474233 67.2435324 20.05059719 70.03835678 C21.52956337 75.81229214 23.01412673 81.58478897 24.50952148 87.35449219 C24.77377426 88.37484558 25.03802704 89.39519897 25.31028748 90.44647217 C25.81484401 92.31449561 26.3881104 94.16433119 27 96 C27.67297119 96.0424585 28.34594238 96.08491699 29.03930664 96.12866211 C35.7462858 96.63301202 41.96824241 97.74600603 48.4375 99.5625 C49.374729 99.82208496 50.31195801 100.08166992 51.27758789 100.34912109 C63.71117277 103.9146881 75.83239323 108.44389254 87 115 C88.67697961 115.69610475 90.35408042 116.3919716 92.03515625 117.078125 C95.43737353 118.67439394 98.58115056 120.70748839 101.765625 122.6953125 C104.04603204 124.12939324 104.04603204 124.12939324 107 125 C107 125.66 107 126.32 107 127 C107.99 127 108.98 127 110 127 C111.76811934 128.61656626 113.37097596 130.2501532 115 132 C116.36760446 133.42380739 117.74302738 134.84013436 119.125 136.25 C119.78757812 136.93578125 120.45015625 137.6215625 121.1328125 138.328125 C122.99636642 140.21948202 122.99636642 140.21948202 126 141 C127.68359375 142.70703125 127.68359375 142.70703125 129.4375 144.8125 C131.37967334 147.11265868 133.2782916 149.27115592 135.4375 151.375 C137 153 137 153 137 155 C137.54785156 155.19335938 138.09570312 155.38671875 138.66015625 155.5859375 C142.01958172 157.61617459 144.09551488 160.54576037 146.4375 163.625 C146.92323486 164.25510986 147.40896973 164.88521973 147.90942383 165.53442383 C157 177.4414102 157 177.4414102 157 182 C157.66 182 158.32 182 159 182 C163.41735486 190.51750605 167.58525921 199.09321471 171.3125 207.9375 C171.63734375 208.70489502 171.9621875 209.47229004 172.296875 210.26293945 C175.69515639 218.43696951 178.31175923 226.75684503 180.5625 235.3125 C180.77068359 236.07755859 180.97886719 236.84261719 181.19335938 237.63085938 C188.90196935 266.79791969 188.22856817 297.92375815 183.62109375 327.515625 C183.08586384 331.04270934 182.86562085 334.42434599 183 338 C182.34 338 181.68 338 181 338 C180.89333008 338.58555664 180.78666016 339.17111328 180.67675781 339.77441406 C176.92245421 359.52127695 170.479241 378.07151502 160.82055664 395.67138672 C158.94500123 399.11238409 157.33204069 402.50375916 156 406.1875 C149.90873953 422.17705874 135.83509626 437.00552829 125 450 C124.17628906 451.0209375 123.35257813 452.041875 122.50390625 453.09375 C118.39323209 458.17113429 114.29475698 462.93666929 109.24609375 467.1015625 C106.88982625 469.09312077 104.65943325 471.18328224 102.41821289 473.30200195 C96.78950704 478.60944405 91.04220162 483.41699014 84.78125 487.97265625 C82.21839897 489.84080188 79.73066088 491.77481625 77.25 493.75 C71.72372684 498.05929604 66.29834277 501.46907529 59.82958984 504.18310547 C56.90379226 505.48944637 54.16110477 507.1087073 51.375 508.6875 C14.94735195 528.56301725 -29.51968818 535.53517608 -70.26953125 527.65625 C-73.61499567 527.06772851 -76.61541608 526.87248035 -80 527 C-80 526.34 -80 525.68 -80 525 C-81.65 525.33 -83.3 525.66 -85 526 C-85 525.34 -85 524.68 -85 524 C-86.87422152 523.51779737 -88.74941754 523.03938167 -90.625 522.5625 C-91.66914063 522.29566406 -92.71328125 522.02882813 -93.7890625 521.75390625 C-96.84891124 521.03547461 -99.8948051 520.48023284 -103 520 C-103 519.34 -103 518.68 -103 518 C-103.69738281 517.88785156 -104.39476562 517.77570312 -105.11328125 517.66015625 C-108.34434937 516.92125163 -111.15088351 515.76154023 -114.1875 514.4375 C-117.9666504 512.63354906 -117.9666504 512.63354906 -122 512 C-122.433125 511.525625 -122.86625 511.05125 -123.3125 510.5625 C-125.4462981 508.58676102 -127.18956072 508.5177125 -130 508 C-130.33 507.34 -130.66 506.68 -131 506 C-133.25498639 504.76311225 -135.49736687 503.61219461 -137.8125 502.5 C-138.44220703 502.19191406 -139.07191406 501.88382812 -139.72070312 501.56640625 C-142.24597426 500.33159371 -144.7743149 499.10562367 -147.3203125 497.9140625 C-149.38354917 496.79127789 -150.72964012 495.22312868 -152.33984375 493.5390625 C-154.46812404 491.56602148 -156.76329693 489.93645084 -159.125 488.25 C-170.10403185 480.39940196 -180.57440992 471.67363193 -190 462 C-190.76183594 461.27103516 -190.76183594 461.27103516 -191.5390625 460.52734375 C-195.95895849 456.25881406 -199.83799474 451.66410468 -203.68359375 446.875 C-205.17495378 445.0240034 -206.68661746 443.18909151 -208.22265625 441.375 C-219.67041487 427.80728608 -228.58730291 412.58326955 -237 397 C-237.4655127 396.14003418 -237.93102539 395.28006836 -238.41064453 394.39404297 C-245.07722809 381.85423482 -250.03611403 368.86567533 -254.5625 355.4375 C-254.95260254 354.29388504 -254.95260254 354.29388504 -255.35058594 353.12716675 C-259.27281741 341.54299975 -262.19554164 330.3561489 -262 318 C-261.34 318 -260.68 318 -260 318 C-259.82573486 318.64622314 -259.65146973 319.29244629 -259.47192383 319.95825195 C-255.78726213 333.35028604 -251.49685377 345.94199525 -245.4375 358.4375 C-244.64339722 360.07682495 -244.64339722 360.07682495 -243.83325195 361.74926758 C-238.61901695 373.90652284 -238.61901695 373.90652284 -230 383 C-230 384.32 -230 385.64 -230 387 C-229.071875 387.11601563 -229.071875 387.11601563 -228.125 387.234375 C-226 388 -226 388 -224.9375 389.828125 C-224.628125 390.62734375 -224.31875 391.4265625 -224 392.25 C-221.6726198 397.32324832 -218.59080472 401.03156307 -214.8125 405.0625 C-214.0090918 405.92053223 -214.0090918 405.92053223 -213.18945312 406.79589844 C-210.39337819 409.78202502 -210.39337819 409.78202502 -207 412 C-207 412.66 -207 413.32 -207 414 C-206.34 414 -205.68 414 -205 414 C-205 414.66 -205 415.32 -205 416 C-204.34 416 -203.68 416 -203 416 C-201.97388051 417.65071396 -200.97691857 419.31970006 -200 421 C-197.25950381 424.23876823 -193.77798615 426.26788806 -189.875 427.875 C-188 429 -188 429 -186.75 431.25 C-183.79198503 435.89830924 -179.21824417 439.26058528 -174 441 C-173.2471875 441.75667969 -172.494375 442.51335937 -171.71875 443.29296875 C-168.87832962 446.12114594 -165.88481727 448.21801696 -162.5 450.3125 C-161.88906494 450.69567383 -161.27812988 451.07884766 -160.64868164 451.47363281 C-159.38475192 452.26511567 -158.11920112 453.05401563 -156.85205078 453.84033203 C-155.10557829 454.93389179 -153.37823726 456.05783591 -151.65234375 457.18359375 C-144.35237811 461.87579523 -137.14731952 465.08421591 -129 468 C-126.42848584 468.9986528 -123.87060817 470.03007822 -121.3125 471.0625 C-120.66966064 471.31845947 -120.02682129 471.57441895 -119.36450195 471.83813477 C-116.73547102 472.88602282 -114.11901312 473.94727267 -111.53125 475.09375 C-76.69237616 490.30508928 -29.45675909 491.22133289 5.91552734 477.82177734 C13.70308895 474.75162832 21.37339407 471.4489449 29 468 C29.66805664 467.70367676 30.33611328 467.40735352 31.02441406 467.10205078 C46.53300144 460.16836113 59.7888051 449.65755494 72.3894043 438.41723633 C74.73856052 436.35010704 77.14513372 434.35166764 79.55249023 432.3527832 C81.17684032 430.96239802 81.17684032 430.96239802 82.4375 428.5625 C84.0140734 425.97691962 85.38492789 424.73892935 87.69921875 422.8359375 C91.83601284 419.27162338 95.11983436 415.43013241 98.375 411.0625 C98.92518799 410.33683838 99.47537598 409.61117676 100.04223633 408.86352539 C104.36664331 403.06950793 108.2645116 397.05696141 111.92919922 390.82641602 C112.90434903 389.18779008 113.94573631 387.58888017 115 386 C115.66 386 116.32 386 117 386 C117.51820313 384.20949219 117.51820313 384.20949219 118.046875 382.3828125 C120.11233923 376.19367555 123.18699554 370.53174308 126.23703003 364.78646851 C127.95324751 361.54797599 129.64048023 358.29439194 131.33203125 355.04296875 C131.98127126 353.7973574 132.63052211 352.55175169 133.27978516 351.30615234 C152.62830833 314.11942217 159.96176885 272.62920235 147.33325195 231.88208008 C143.81213706 221.07787464 139.55772892 210.90725589 134 201 C133.35804688 199.84757812 133.35804688 199.84757812 132.703125 198.671875 C129.5472496 193.35444111 125.66787247 188.52087483 121.890625 183.63671875 C120 181 120 181 119 178 C118.01 177.67 117.02 177.34 116 177 C115.06629731 175.33267377 114.13604187 173.66323873 113.23046875 171.98046875 C109.95248497 166.7044758 105.84341192 163.06238068 100 161 C99.67 160.01 99.34 159.02 99 158 C96.79242098 156.33067816 96.79242098 156.33067816 94.0625 154.75 C90.43506637 152.53657234 86.99809636 150.26764423 83.625 147.6875 C52.84670299 126.03050496 12.19320536 120.3478042 -24.265625 126.37451172 C-64.56840558 133.95886253 -98.11458083 157.2890339 -122 190 C-122.62003906 190.84691406 -123.24007812 191.69382813 -123.87890625 192.56640625 C-131.27885878 203.19249613 -136.65949138 214.85283788 -141 227 C-140.23856689 226.98839844 -139.47713379 226.97679687 -138.69262695 226.96484375 C-135.23151356 226.93530892 -131.7735588 226.96702009 -128.3125 227 C-126.51522461 226.97099609 -126.51522461 226.97099609 -124.68164062 226.94140625 C-115.96232198 227.08713302 -115.96232198 227.08713302 -113.05224609 229.84765625 C-111.79225957 231.86363469 -110.81375337 233.76987762 -110 236 C-108.18713024 233.28069535 -106.7604352 230.54098624 -105.33642578 227.60644531 C-97.67978634 211.85501826 -88.6226574 197.82889098 -74.54296875 187.03515625 C-71.92238775 185.02213925 -71.92238775 185.02213925 -69.54296875 182.48828125 C-50.75999747 164.10924483 -20.18816622 157.61974256 4.91186523 157.69726562 C23.65027978 158.01285998 40.51553012 162.7614116 57.07421875 171.546875 C59.47883219 172.74115564 61.4319589 173.38133555 64 174 C64.598125 174.61875 65.19625 175.2375 65.8125 175.875 C67.9067698 177.90943352 69.05087672 178.54551673 71.6875 179.5625 C72.780625 180.036875 73.87375 180.51125 75 181 C75.33 181.99 75.66 182.98 76 184 C77.65002828 185.35386936 79.3174387 186.68678142 81 188 C81.66 188.99 82.32 189.98 83 191 C84.77130211 191.96616479 86.54298567 192.93168214 88.3203125 193.88671875 C90.70005843 195.46399222 91.71537628 197.49836433 93 200 C93.66 200.33 94.32 200.66 95 201 C95.7115625 202.4540625 95.7115625 202.4540625 96.4375 203.9375 C97.79632842 207.21743175 97.79632842 207.21743175 101 209 C101.68753301 210.65816784 102.35561283 212.32459336 103 214 C103.66 214.33 104.32 214.66 105 215 C105.39171753 216.65391846 105.72057545 218.32345271 106 220 C106.33 220.99 106.66 221.98 107 223 C107.66 223 108.32 223 109 223 C109.33 224.65 109.66 226.3 110 228 C110.76183594 228.1959375 111.52367187 228.391875 112.30859375 228.59375 C121.46236808 231.24503045 127.69307078 235.08971115 133.0625 243.0625 C135.23788768 249.57366037 135.38796667 258.1845196 133.05078125 264.609375 C130.70218337 268.5508705 127.80023858 271.39412212 124 274 C124.53109375 274.37511719 125.0621875 274.75023437 125.609375 275.13671875 C131.67046195 279.52768868 136.34096693 283.39609844 138 291 C138.76169768 298.97474387 138.25764837 306.0602737 134 313 C129.20680061 318.75404811 123.15032931 321.99402526 116 324 C114.81535156 324.07476562 113.63070313 324.14953125 112.41015625 324.2265625 C108.81634684 324.65472594 108.81634684 324.65472594 107.03125 327.625 C106.5259375 328.73875 106.020625 329.8525 105.5 331 C102.21461655 337.72545985 98.31622697 343.11112559 93.484375 348.77734375 C91.41246686 351.21243119 90.02473863 352.92578412 89 356 C88.236875 356.45375 87.47375 356.9075 86.6875 357.375 C83.91066874 358.83153029 83.91066874 358.83153029 82.2578125 361.26953125 C79.55520523 364.53790925 76.60688172 366.83724953 73.1875 369.3125 C72.53458984 369.78816406 71.88167969 370.26382812 71.20898438 370.75390625 C64.49781629 375.53200104 57.41332097 379.42812717 50 383 C48.40478516 383.76957031 48.40478516 383.76957031 46.77734375 384.5546875 C41.89775458 386.60452329 36.72488578 387.54936463 31.5625 388.625 C30.06493164 388.94984375 30.06493164 388.94984375 28.53710938 389.28125 C10.86712599 393.04527013 -6.28849299 392.99882326 -23.97607422 389.39257812 C-25.82940631 389.03308983 -27.69795832 388.75451205 -29.56640625 388.484375 C-45.71601911 385.86450733 -62.78952587 375.80049908 -74 364 C-75.28494995 362.88802408 -76.57731569 361.78458807 -77.875 360.6875 C-82.00170074 357.11154315 -85.49624209 353.17469028 -89 349 C-89.4738916 348.50685303 -89.9477832 348.01370605 -90.43603516 347.50561523 C-93.38011924 344.34265875 -95.26743175 341.76638658 -96.5078125 337.59765625 C-98.27571 332.25994354 -100.01965133 327.99158953 -105 325 C-116.38177536 322.16053241 -129.44734955 324.00933736 -141 325 C-140.01 326.485 -140.01 326.485 -139 328 C-139 329.32 -139 330.64 -139 332 C-138.34 332 -137.68 332 -137 332 C-137 332.99 -137 333.98 -137 335 C-136.34 335.33 -135.68 335.66 -135 336 C-134.32421875 337.85546875 -134.32421875 337.85546875 -133.6875 340.1875 C-132.6842151 343.41746311 -131.68585992 345.71728868 -129.4375 348.25 C-127.11946277 350.86522148 -126.19349571 352.78674233 -125 356 C-124.34 356.33 -123.68 356.66 -123 357 C-122.33333333 358.66666667 -121.66666667 360.33333333 -121 362 C-120.34 362.33 -119.68 362.66 -119 363 C-118.03952128 364.68911775 -117.08162121 366.37982663 -116.14453125 368.08203125 C-114.08195598 371.53842871 -111.65236286 375.17381857 -108 377 C-107.38125 378.11375 -107.38125 378.11375 -106.75 379.25 C-104.06970549 383.46189137 -100.8150295 386.39499017 -96 388 C-96 388.99 -96 389.98 -96 391 C-95.46890625 391.23589844 -94.9378125 391.47179687 -94.390625 391.71484375 C-91.92182511 393.04202539 -89.73111519 394.60421117 -87.484375 396.27441406 C-75.26542073 405.34918922 -62.213004 412.51875182 -48 418 C-46.21335937 418.69609375 -46.21335937 418.69609375 -44.390625 419.40625 C-34.93645091 422.83687857 -25.96241325 424.11582297 -16 425 C-14.52017763 425.20362356 -13.04084513 425.41091479 -11.5625 425.625 C20.09378658 428.94770184 50.90594701 421.97883118 78.296875 405.96484375 C80.44967938 404.74525044 82.67038796 403.82663653 85 403 C81.6701784 420.14101347 54.86173331 436.97060079 41.25 446.4375 C19.80732632 460.1011586 -7.46038684 458.8799926 -31.56640625 453.9296875 C-36.75354118 452.77262221 -41.88307015 451.43372914 -47 450 C-47.67047363 449.81598633 -48.34094727 449.63197266 -49.03173828 449.44238281 C-66.32112706 444.57960177 -82.37244698 435.93426786 -97.28808594 426.08154297 C-98.98077664 425.01214482 -100.74530948 424.05932095 -102.5078125 423.109375 C-106.53733106 420.8394617 -109.69382012 417.82786176 -113 414.625 C-114.16536674 413.51165857 -115.3320321 412.39967484 -116.5 411.2890625 C-117.35911987 410.4703064 -117.35911987 410.4703064 -118.2355957 409.63500977 C-120.02656074 407.97538712 -121.86474243 406.39123578 -123.73046875 404.81640625 C-126.12951209 402.78186768 -128.29307557 400.73472067 -130.3125 398.3125 C-133.95652885 394.00891841 -137.7983615 389.90976805 -141.66796875 385.80859375 C-143.78935893 383.25368665 -145.43179023 380.70350396 -147.01928711 377.79223633 C-148.29957801 375.45252623 -149.70144189 373.19026173 -151.09448242 370.91650391 C-172 336.6514407 -172 336.6514407 -172 325 C-177.94 325 -183.88 325 -190 325 C-190 320.71 -190 316.42 -190 312 C-188.68 311.67 -187.36 311.34 -186 311 C-186.4846875 310.28344238 -186.969375 309.56688477 -187.46875 308.82861328 C-189.2615047 306.17352634 -191.05011422 303.51570999 -192.8359375 300.85595703 C-193.61032184 299.70445012 -194.38635802 298.55405231 -195.1640625 297.40478516 C-196.28036178 295.7545417 -197.39027855 294.09998645 -198.5 292.4453125 C-199.1703125 291.45031738 -199.840625 290.45532227 -200.53125 289.43017578 C-202 287 -202 287 -202 285 C-205.63 285 -209.26 285 -213 285 C-213 293.58 -213 302.16 -213 311 C-209.7 311.33 -206.4 311.66 -203 312 C-203 316.29 -203 320.58 -203 325 C-213.56 325 -224.12 325 -235 325 C-231.89493407 339.80698488 -231.89493407 339.80698488 -227.1484375 354.1328125 C-225.66177183 357.89810592 -224.61822972 360.92778373 -225 365 C-228 364 -228 364 -229.10327148 361.98144531 C-229.60709351 360.66805176 -229.60709351 360.66805176 -230.12109375 359.328125 C-230.49758057 358.35907227 -230.87406738 357.39001953 -231.26196289 356.39160156 C-231.64989014 355.35487305 -232.03781738 354.31814453 -232.4375 353.25 C-232.83638428 352.20553711 -233.23526855 351.16107422 -233.64624023 350.08496094 C-241 330.62986738 -241 330.62986738 -241 325 C-241.66 325 -242.32 325 -243 325 C-243.10957031 324.12601562 -243.21914063 323.25203125 -243.33203125 322.3515625 C-244.35345962 314.42926438 -245.52038739 306.55637563 -246.9465332 298.69580078 C-257.56405806 238.01822307 -238.08553289 173.27876787 -203.5 123.4375 C-202.98300537 122.69145508 -202.46601074 121.94541016 -201.93334961 121.17675781 C-200.67582388 119.41173587 -199.34446715 117.69972983 -198 116 C-197.34 116 -196.68 116 -196 116 C-195.74605469 115.43796875 -195.49210937 114.8759375 -195.23046875 114.296875 C-193.83156789 111.68559339 -192.1777572 109.55133894 -190.3125 107.25 C-189.66925781 106.45078125 -189.02601563 105.6515625 -188.36328125 104.828125 C-182.79890894 98.16927285 -177.00856886 91.82686619 -170.875 85.6875 C-170.18535156 84.98560547 -169.49570312 84.28371094 -168.78515625 83.56054688 C-165.37442994 80.14003837 -162.26072239 77.33907901 -158 75 C-156.35226677 73.69486477 -154.72868986 72.35888985 -153.125 71 C-119.01355232 42.83290647 -78.76229384 26.1257415 -35.5 17.625 C-34.64559326 17.45693848 -33.79118652 17.28887695 -32.91088867 17.11572266 C-28.19037096 16.24268879 -23.79972949 15.83226752 -19 16 C-18.7591169 22.44362304 -19.64700392 28.2103966 -21 34.5 C-21.19078125 35.4178125 -21.3815625 36.335625 -21.578125 37.28125 C-22.04503453 39.52241577 -22.51910692 41.76180083 -23 44 C-23.95531616 44.13462646 -23.95531616 44.13462646 -24.92993164 44.27197266 C-36.94994674 45.9981771 -48.81057709 47.96821029 -60.5625 51.0625 C-61.49392822 51.30758301 -62.42535645 51.55266602 -63.38500977 51.80517578 C-68.71527806 53.25628224 -73.90806012 54.84773675 -79 57 C-79.33 57.66 -79.66 58.32 -80 59 C-81.6106245 59.20051952 -83.22152919 59.39895328 -84.83349609 59.58837891 C-89.22226494 60.42221531 -93.24226942 62.39722289 -97.3125 64.1875 C-98.71689331 64.79706543 -98.71689331 64.79706543 -100.1496582 65.41894531 C-105.6357643 67.83932851 -110.85391979 70.41444185 -115.89453125 73.6796875 C-118.1561443 75.09791609 -120.46358747 76.23175575 -122.875 77.375 C-128.96195047 80.34658212 -134.44389568 84.14682596 -140 88 C-140.70640625 88.47824219 -141.4128125 88.95648438 -142.140625 89.44921875 C-145.8313683 91.99262229 -148.85076684 94.8274737 -152 98 C-166.987878 111.93491796 -166.987878 111.93491796 -173.44921875 116.87109375 C-176.14102476 119.1177006 -178.23293904 121.46421881 -180.4375 124.1875 C-181.15808594 125.06792969 -181.87867188 125.94835937 -182.62109375 126.85546875 C-185.0416166 130.05501045 -187.24024764 133.34547408 -189.44458008 136.69506836 C-190.9075204 138.86295717 -192.43040202 140.9574095 -194.0078125 143.04296875 C-208.79315826 162.62330718 -220.26758441 184.37350784 -227 208 C-227.77412425 210.59743716 -228.5557073 213.19255417 -229.33862305 215.78735352 C-230.56455057 219.85659219 -231.78134308 223.92857801 -233 228 C-223.1 228 -213.2 228 -203 228 C-203 232.29 -203 236.58 -203 241 C-206.3 241.33 -209.6 241.66 -213 242 C-213 250.25 -213 258.5 -213 267 C-205.67042131 266.78476391 -205.67042131 266.78476391 -203.17724609 264.56054688 C-202.79648926 263.95275391 -202.41573242 263.34496094 -202.0234375 262.71875 C-201.58298096 262.04521484 -201.14252441 261.37167969 -200.6887207 260.67773438 C-200.25519287 259.95908203 -199.82166504 259.24042969 -199.375 258.5 C-198.67733521 257.41428711 -198.67733521 257.41428711 -197.96557617 256.30664062 C-197.0449632 254.87118476 -196.13439898 253.42922591 -195.23486328 251.98046875 C-193.6543066 249.44557831 -191.98856356 246.97249093 -190.3125 244.5 C-189.54036938 243.33419151 -188.7688965 242.16794405 -188 241 C-189.65 240.67 -191.3 240.34 -193 240 C-193 236.04 -193 232.08 -193 228 C-186.07 228 -179.14 228 -172 228 C-171.34 224.7 -170.68 221.4 -170 218 C-168.90995307 214.92222043 -167.79357538 211.98475565 -166.5 209 C-165.98421387 207.79210815 -165.98421387 207.79210815 -165.45800781 206.55981445 C-160.62145058 195.51419254 -154.72857235 184.99839693 -148 175 C-147.443125 173.948125 -146.88625 172.89625 -146.3125 171.8125 C-142.13111291 164.36233014 -136.0568362 157.95305863 -130 152 C-129.23300781 151.20980469 -128.46601563 150.41960937 -127.67578125 149.60546875 C-122.81646639 144.63370693 -117.8553801 140.10137228 -112.32421875 135.88671875 C-109.91307816 134.00743902 -109.91307816 134.00743902 -107.67578125 131.58984375 C-104.52496211 128.5402188 -101.16888998 126.25069708 -97.5 123.875 C-96.52353516 123.23111328 -96.52353516 123.23111328 -95.52734375 122.57421875 C-85.75511539 116.15810922 -85.75511539 116.15810922 -80.3125 114.125 C-76.96077917 112.83023904 -73.83802051 111.4095587 -70.6875 109.6875 C-59.46129543 103.96849013 -46.77804215 100.48700375 -34.5625 97.5625 C-33.88372803 97.3987085 -33.20495605 97.23491699 -32.50561523 97.06616211 C-28.60609324 96.18689182 -24.99247857 95.84573112 -21 96 C-21 95.34 -21 94.68 -21 94 C-20.34 94 -19.68 94 -19 94 C-18.95400665 93.40542496 -18.90801331 92.81084991 -18.86062622 92.19825745 C-18.2907183 85.6752956 -17.16195104 79.41405046 -15.7421875 73.02734375 C-15.40603676 71.48244766 -15.40603676 71.48244766 -15.06309509 69.90634155 C-14.33877543 66.5822693 -13.60688976 63.25991279 -12.875 59.9375 C-12.37526559 57.6494701 -11.87616431 55.36130183 -11.37768555 53.07299805 C-10.62956951 49.63907741 -9.88107758 46.20524454 -9.13047791 42.77186584 C-6.98579399 32.96017834 -4.88762036 23.13910355 -2.8125 13.3125 C-2.51875547 11.9237387 -2.22497431 10.53498515 -1.93115234 9.14624023 C-1.28658967 6.09767084 -0.64278319 3.04894499 0 0 Z M-236 242 C-241.17606355 263.63467544 -242.76892393 289.15912988 -238 311 C-236.35 311 -234.7 311 -233 311 C-233 288.23 -233 265.46 -233 242 C-233.99 242 -234.98 242 -236 242 Z M-146 242 C-153.94626812 257.89253624 -149.78991213 286.99579106 -147 304 C-146.67 304.33 -146.34 304.66 -146 305 C-146.495 305.99 -146.495 305.99 -147 307 C-146.10636395 309.60931266 -146.10636395 309.60931266 -145 312 C-140.545 311.505 -140.545 311.505 -136 311 C-136 288.56 -136 266.12 -136 243 C-139.3 242.67 -142.6 242.34 -146 242 Z M-116 262 C-116 278.17 -116 294.34 -116 311 C-113.69 311.33 -111.38 311.66 -109 312 C-109.12117187 311.40574219 -109.24234375 310.81148438 -109.3671875 310.19921875 C-109.72424951 308.4331351 -110.07670183 306.66611629 -110.42578125 304.8984375 C-110.78834817 303.0683378 -111.15959451 301.23991678 -111.54296875 299.4140625 C-113.72654116 288.4797826 -114.21525429 277.42013726 -113.83984375 266.29296875 C-113.7619587 263.8006285 -113.7619587 263.8006285 -116 262 Z M-180 263 C-181.27937606 264.34996233 -182.49935309 265.7565883 -183.6875 267.1875 C-184.35136719 267.96480469 -185.01523437 268.74210937 -185.69921875 269.54296875 C-187.3169183 271.93895153 -187.3169183 271.93895153 -186.3671875 274.5625 C-185.1444335 276.74249571 -183.91031531 278.79452321 -182.4375 280.8125 C-182.00308594 281.41707031 -181.56867188 282.02164062 -181.12109375 282.64453125 C-180.56615234 283.31548828 -180.56615234 283.31548828 -180 284 C-179.67 284 -179.34 284 -179 284 C-179 277.07 -179 270.14 -179 263 C-179.33 263 -179.66 263 -180 263 Z " fill="#DDA362" transform="translate(597,10)"/>
<path d="M0 0 C0.99 0.33 1.98 0.66 3 1 C2.89042969 1.61101562 2.78085937 2.22203125 2.66796875 2.8515625 C1.45354707 9.86163888 0.41738823 16.89120736 -0.5625 23.9375 C-0.68923096 24.82969238 -0.81596191 25.72188477 -0.9465332 26.64111328 C-2.55979656 38.41207908 -3.12677709 50.16093211 -3.38870239 62.02996826 C-3.71912849 76.63938945 -4.50920643 91.14084163 -5.83227539 105.69873047 C-5.9850107 107.79433901 -6 109.89883288 -6 112 C-6.66 112 -7.32 112 -8 112 C-8.12955078 112.94746094 -8.12955078 112.94746094 -8.26171875 113.9140625 C-11.33213906 133.46334409 -20.66176118 152.42981017 -34 167 C-34.69480469 167.82371094 -35.38960937 168.64742187 -36.10546875 169.49609375 C-46.6695414 181.83046636 -58.85110337 190.29118847 -73 198 C-73.90492188 198.50273437 -74.80984375 199.00546875 -75.7421875 199.5234375 C-80.71022888 202.14964119 -85.88006022 204.19137693 -91.125 206.1875 C-91.78250244 206.43790039 -92.44000488 206.68830078 -93.11743164 206.94628906 C-96.42266986 208.16772727 -99.66725017 209.18705886 -103.10546875 209.96484375 C-106.86192352 210.86318617 -109.86897005 212.36722363 -113.1875 214.375 C-114.17105469 214.96023438 -115.15460937 215.54546875 -116.16796875 216.1484375 C-120.45018476 218.9481208 -124.02474914 221.47108271 -126.625 225.9375 C-127.03621094 226.62714844 -127.44742188 227.31679688 -127.87109375 228.02734375 C-128.81727036 229.68069734 -129.75357765 231.33969361 -130.6875 233 C-131.3371875 233.99 -131.3371875 233.99 -132 235 C-132.66 235 -133.32 235 -134 235 C-133.48877408 227.91341688 -132.31392785 221.24025066 -130.5 214.375 C-130.24226807 213.39442627 -129.98453613 212.41385254 -129.71899414 211.40356445 C-125.87491243 197.31306675 -120.8924567 183.449019 -114.20117188 170.45703125 C-113.00697392 168.01426534 -112.00653484 165.55822622 -111.03515625 163.01953125 C-108.94448303 157.64846469 -106.26339087 152.70240755 -103.4375 147.6875 C-102.95603516 146.82060547 -102.47457031 145.95371094 -101.97851562 145.06054688 C-100.66370784 142.7004036 -99.33323875 140.34975911 -98 138 C-97.43410156 136.97519531 -96.86820313 135.95039063 -96.28515625 134.89453125 C-95.86105469 134.26933594 -95.43695312 133.64414063 -95 133 C-94.34 133 -93.68 133 -93 133 C-92.72615479 132.26064209 -92.45230957 131.52128418 -92.17016602 130.75952148 C-91.07614276 128.17956219 -89.87957014 126.13473359 -88.27734375 123.84765625 C-87.74302734 123.07760254 -87.20871094 122.30754883 -86.65820312 121.51416016 C-85.80645508 120.30058838 -85.80645508 120.30058838 -84.9375 119.0625 C-80.10389182 112.10783175 -75.44635451 105.09077001 -71 97.8828125 C-68.91363406 94.87551159 -66.6042568 92.5653292 -64 90 C-61.99626939 87.61333421 -60.09065047 85.15473512 -58.1875 82.6875 C-57.68541016 82.04232422 -57.18332031 81.39714844 -56.66601562 80.73242188 C-55.44094319 79.15732875 -54.2200368 77.57899684 -53 76 C-62.82898364 82.55265576 -71.44916341 90.89340042 -80 99 C-80.75410156 99.7115625 -81.50820313 100.423125 -82.28515625 101.15625 C-87.67300204 106.38342445 -92.31200325 112.14792298 -97 118 C-98.64422123 120.00132553 -100.29001106 122.00136358 -101.9375 124 C-104.09931602 126.62315594 -106.11339797 129.17009695 -108 132 C-108.66 132 -109.32 132 -110 132 C-110.2784375 133.3921875 -110.2784375 133.3921875 -110.5625 134.8125 C-111.52502759 138.13878582 -112.96511547 140.68140898 -114.875 143.5625 C-123.84408906 157.19476325 -131.43963238 171.65898574 -137 187 C-137.66046487 188.66913402 -138.32479794 190.3367729 -139 192 C-139.99 192 -140.98 192 -142 192 C-142.96880403 188.89900685 -143.92299652 185.79368811 -144.875 182.6875 C-145.14441406 181.82576172 -145.41382813 180.96402344 -145.69140625 180.07617188 C-149.3540408 168.0609439 -150.37297924 156.8294346 -150.37060547 144.33154297 C-150.37496847 141.76852397 -150.41136549 139.20724619 -150.44921875 136.64453125 C-150.52099858 126.08716455 -149.34525838 117.04033169 -146 107 C-145.62174072 105.84508057 -145.24348145 104.69016113 -144.85375977 103.50024414 C-133.77321045 70.90810084 -105.38096974 51.10898897 -76.046875 36.49365234 C-63.16853306 30.18037542 -50.09353868 24.40857263 -36.8125 19 C-18.44828894 11.80032419 -18.44828894 11.80032419 -1.92871094 1.29077148 C-1.29223633 0.86481689 -0.65576172 0.4388623 0 0 Z " fill="#DDA362" transform="translate(942,71)"/>
<path d="M0 0 C2.36143517 21.79012401 4.46034017 43.59258213 6.25 65.4375 C6.38287415 67.04055496 6.38287415 67.04055496 6.51843262 68.67599487 C6.77146473 71.74072105 7.01952262 74.80580409 7.265625 77.87109375 C7.34043091 78.77794922 7.41523682 79.68480469 7.49230957 80.61914062 C7.89705022 85.76523263 8.0703696 90.83794085 8 96 C8.66 96 9.32 96 10 96 C9.67 99.96 9.34 103.92 9 108 C4.86194139 106.96548535 3.76045104 106.17970079 0.75 103.375 C-0.03503906 102.65570313 -0.82007813 101.93640625 -1.62890625 101.1953125 C-2.80259766 100.10863281 -2.80259766 100.10863281 -4 99 C-8.47748868 94.95319535 -12.8759969 91.20250194 -18 88 C-18.99 90.97 -19.98 93.94 -21 97 C-21.66 97 -22.32 97 -23 97 C-23.37125 98.2375 -23.37125 98.2375 -23.75 99.5 C-34.94291195 130.84015345 -59.81548973 165.28921528 -85 187 C-85.66 187 -86.32 187 -87 187 C-87.26941406 187.59425781 -87.53882813 188.18851563 -87.81640625 188.80078125 C-96.69424018 205.29655849 -123.97037117 221.26722748 -140.4296875 229.1875 C-143.08707718 230.49882134 -145.64144138 231.9348174 -148.1953125 233.4375 C-186.61407835 255.86807994 -229.94595723 264.77998862 -274 265 C-274 264.34 -274 263.68 -274 263 C-273.00709961 262.72289185 -273.00709961 262.72289185 -271.99414062 262.44018555 C-247.88007153 255.61298309 -222.81724754 246.50850141 -202.609375 231.1875 C-201 230 -201 230 -199 230 C-199 229.34 -199 228.68 -199 228 C-198.51273438 227.76667969 -198.02546875 227.53335938 -197.5234375 227.29296875 C-188.37962598 222.58806209 -180.63894561 215.85430579 -172.76171875 209.3203125 C-171.30185547 208.10988281 -171.30185547 208.10988281 -169.8125 206.875 C-168.52279297 205.78832031 -168.52279297 205.78832031 -167.20703125 204.6796875 C-165 203 -165 203 -162 202 C-161.30892404 200.67915321 -160.64507739 199.34391123 -160 198 C-156.28290493 194.00958912 -152.04600309 190.9217652 -147.3125 188.25 C-138.5392408 183.21148737 -131.10537461 176.131309 -124 169 C-122.58432087 167.61664799 -121.16855284 166.23338423 -119.75047302 164.85249329 C-104.22210012 149.71350324 -90.94289818 135.17844454 -79.984375 116.3515625 C-78.38539182 113.65091768 -76.72956431 111.07247941 -74.9375 108.5 C-66.66761685 96.2542115 -60.90070382 82.48467405 -55 69 C-56.15000488 68.78065796 -56.15000488 68.78065796 -57.32324219 68.55688477 C-60.79905249 67.89325876 -64.27452866 67.22789879 -67.75 66.5625 C-68.9565625 66.33240234 -70.163125 66.10230469 -71.40625 65.86523438 C-72.56640625 65.64287109 -73.7265625 65.42050781 -74.921875 65.19140625 C-75.99018555 64.98717041 -77.05849609 64.78293457 -78.15917969 64.57250977 C-80.46168559 64.10848636 -82.72901666 63.59649246 -85 63 C-85 62.01 -85 61.02 -85 60 C-83.64916992 58.68823242 -83.64916992 58.68823242 -81.73046875 57.35546875 C-81.01600586 56.85055908 -80.30154297 56.34564941 -79.56542969 55.82543945 C-78.78071289 55.28491943 -77.99599609 54.74439941 -77.1875 54.1875 C-75.52919401 53.01929863 -73.87166697 51.84999088 -72.21484375 50.6796875 C-71.35358887 50.07479492 -70.49233398 49.46990234 -69.60498047 48.84667969 C-65.44201591 45.89553968 -61.34785438 42.85305876 -57.25 39.8125 C-51.86433918 35.83014135 -46.46255816 31.87623962 -41 28 C-35.40502844 24.02338122 -29.84778592 19.99681761 -24.3125 15.9375 C-23.09324829 15.04393799 -23.09324829 15.04393799 -21.84936523 14.13232422 C-16.41277236 10.11871729 -11.19674431 5.95057684 -6.12890625 1.4765625 C-4 0 -4 0 0 0 Z " fill="#DEA463" transform="translate(879,286)"/>
<path d="M0 0 C0.2408831 6.44362304 -0.64700392 12.2103966 -2 18.5 C-2.19078125 19.4178125 -2.3815625 20.335625 -2.578125 21.28125 C-3.04503453 23.52241577 -3.51910692 25.76180083 -4 28 C-4.63687744 28.08975098 -5.27375488 28.17950195 -5.92993164 28.27197266 C-17.94994674 29.9981771 -29.81057709 31.96821029 -41.5625 35.0625 C-42.49392822 35.30758301 -43.42535645 35.55266602 -44.38500977 35.80517578 C-49.71527806 37.25628224 -54.90806012 38.84773675 -60 41 C-60.33 41.66 -60.66 42.32 -61 43 C-62.6106245 43.20051952 -64.22152919 43.39895328 -65.83349609 43.58837891 C-70.22226494 44.42221531 -74.24226942 46.39722289 -78.3125 48.1875 C-79.24876221 48.59387695 -80.18502441 49.00025391 -81.1496582 49.41894531 C-86.6357643 51.83932851 -91.85391979 54.41444185 -96.89453125 57.6796875 C-99.1561443 59.09791609 -101.46358747 60.23175575 -103.875 61.375 C-109.96195047 64.34658212 -115.44389568 68.14682596 -121 72 C-121.70640625 72.47824219 -122.4128125 72.95648438 -123.140625 73.44921875 C-126.8313683 75.99262229 -129.85076684 78.8274737 -133 82 C-147.987878 95.93491796 -147.987878 95.93491796 -154.44921875 100.87109375 C-157.14102476 103.1177006 -159.23293904 105.46421881 -161.4375 108.1875 C-162.15808594 109.06792969 -162.87867188 109.94835937 -163.62109375 110.85546875 C-166.0416166 114.05501045 -168.24024764 117.34547408 -170.44458008 120.69506836 C-171.9075204 122.86295717 -173.43040202 124.9574095 -175.0078125 127.04296875 C-189.79315826 146.62330718 -201.26758441 168.37350784 -208 192 C-208.77412425 194.59743716 -209.5557073 197.19255417 -210.33862305 199.78735352 C-211.56455057 203.85659219 -212.78134308 207.92857801 -214 212 C-204.1 212 -194.2 212 -184 212 C-184 216.29 -184 220.58 -184 225 C-187.3 225.33 -190.6 225.66 -194 226 C-194 234.25 -194 242.5 -194 251 C-186.67042131 250.78476391 -186.67042131 250.78476391 -184.17724609 248.56054688 C-183.79648926 247.95275391 -183.41573242 247.34496094 -183.0234375 246.71875 C-182.58298096 246.04521484 -182.14252441 245.37167969 -181.6887207 244.67773438 C-181.25519287 243.95908203 -180.82166504 243.24042969 -180.375 242.5 C-179.67733521 241.41428711 -179.67733521 241.41428711 -178.96557617 240.30664062 C-178.0449632 238.87118476 -177.13439898 237.42922591 -176.23486328 235.98046875 C-174.6543066 233.44557831 -172.98856356 230.97249093 -171.3125 228.5 C-170.54036938 227.33419151 -169.7688965 226.16794405 -169 225 C-170.65 224.67 -172.3 224.34 -174 224 C-174 220.04 -174 216.08 -174 212 C-167.07 212 -160.14 212 -153 212 C-152.67 211.01 -152.34 210.02 -152 209 C-152 209.99 -152 210.98 -152 212 C-146.39 212 -140.78 212 -135 212 C-135 215.96 -135 219.92 -135 224 C-136.4025 224 -137.805 224 -139.25 224 C-146.89383038 225.41066397 -150.48191828 232.29669091 -154.62890625 238.27734375 C-160.73477089 247.31084859 -159.60517086 261.62800968 -158 272 C-155.93796058 277.59610406 -152.42808226 282.01150899 -148.42504883 286.36303711 C-146.91559728 288.09695396 -145.69650844 289.91051593 -144.4375 291.83203125 C-140.89448567 296.43681429 -138.56404032 296.2525916 -133 297 C-133 300.63 -133 304.26 -133 308 C-139.27 308 -145.54 308 -152 308 C-152.33 308.99 -152.66 309.98 -153 311 C-153 310.34 -153 309.68 -153 309 C-158.94 309 -164.88 309 -171 309 C-171 304.71 -171 300.42 -171 296 C-169.68 295.67 -168.36 295.34 -167 295 C-167.72703125 293.92516357 -167.72703125 293.92516357 -168.46875 292.82861328 C-170.2615047 290.17352634 -172.05011422 287.51570999 -173.8359375 284.85595703 C-174.61032184 283.70445012 -175.38635802 282.55405231 -176.1640625 281.40478516 C-177.28036178 279.7545417 -178.39027855 278.09998645 -179.5 276.4453125 C-180.1703125 275.45031738 -180.840625 274.45532227 -181.53125 273.43017578 C-183 271 -183 271 -183 269 C-186.63 269 -190.26 269 -194 269 C-194 277.58 -194 286.16 -194 295 C-190.7 295.33 -187.4 295.66 -184 296 C-184 300.29 -184 304.58 -184 309 C-194.56 309 -205.12 309 -216 309 C-212.89493407 323.80698488 -212.89493407 323.80698488 -208.1484375 338.1328125 C-206.66177183 341.89810592 -205.61822972 344.92778373 -206 349 C-209 348 -209 348 -210.10327148 345.98144531 C-210.43915283 345.10584961 -210.77503418 344.23025391 -211.12109375 343.328125 C-211.49758057 342.35907227 -211.87406738 341.39001953 -212.26196289 340.39160156 C-212.64989014 339.35487305 -213.03781738 338.31814453 -213.4375 337.25 C-213.83638428 336.20553711 -214.23526855 335.16107422 -214.64624023 334.08496094 C-222 314.62986738 -222 314.62986738 -222 309 C-222.66 309 -223.32 309 -224 309 C-224.10957031 308.12601562 -224.21914063 307.25203125 -224.33203125 306.3515625 C-225.35345962 298.42926438 -226.52038739 290.55637563 -227.9465332 282.69580078 C-238.56405806 222.01822307 -219.08553289 157.27876787 -184.5 107.4375 C-183.98300537 106.69145508 -183.46601074 105.94541016 -182.93334961 105.17675781 C-181.67582388 103.41173587 -180.34446715 101.69972983 -179 100 C-178.34 100 -177.68 100 -177 100 C-176.74605469 99.43796875 -176.49210937 98.8759375 -176.23046875 98.296875 C-174.83156789 95.68559339 -173.1777572 93.55133894 -171.3125 91.25 C-170.66925781 90.45078125 -170.02601563 89.6515625 -169.36328125 88.828125 C-163.79890894 82.16927285 -158.00856886 75.82686619 -151.875 69.6875 C-151.18535156 68.98560547 -150.49570312 68.28371094 -149.78515625 67.56054688 C-146.37442994 64.14003837 -143.26072239 61.33907901 -139 59 C-137.35226677 57.69486477 -135.72868986 56.35888985 -134.125 55 C-100.01355232 26.83290647 -59.76229384 10.1257415 -16.5 1.625 C-15.21838989 1.37290771 -15.21838989 1.37290771 -13.91088867 1.11572266 C-9.19037096 0.24268879 -4.79972949 -0.16773248 0 0 Z M-217 226 C-222.17606355 247.63467544 -223.76892393 273.15912988 -219 295 C-217.35 295 -215.7 295 -214 295 C-214 272.23 -214 249.46 -214 226 C-214.99 226 -215.98 226 -217 226 Z M-161 247 C-162.27937606 248.34996233 -163.49935309 249.7565883 -164.6875 251.1875 C-165.35136719 251.96480469 -166.01523437 252.74210938 -166.69921875 253.54296875 C-168.3169183 255.93895153 -168.3169183 255.93895153 -167.3671875 258.5625 C-166.1444335 260.74249571 -164.91031531 262.79452321 -163.4375 264.8125 C-163.00308594 265.41707031 -162.56867188 266.02164062 -162.12109375 266.64453125 C-161.56615234 267.31548828 -161.56615234 267.31548828 -161 268 C-160.67 268 -160.34 268 -160 268 C-160 261.07 -160 254.14 -160 247 C-160.33 247 -160.66 247 -161 247 Z " fill="#DEA668" transform="translate(578,26)"/>
<path d="M0 0 C2.0436316 1.7361137 3.96540476 3.53583193 5.86328125 5.4296875 C6.40984375 5.96464844 6.95640625 6.49960938 7.51953125 7.05078125 C17.72198162 17.9038981 19.64681865 32.68789742 19.2421875 47.00390625 C18.58835164 57.64104228 14.73481742 68.25492896 7.86328125 76.4296875 C7.33992187 77.06261719 6.8165625 77.69554687 6.27734375 78.34765625 C0.42925274 84.78604752 -8.58651881 89.76875195 -17.32641602 90.65063477 C-19.85060992 90.77059192 -22.35968487 90.80940124 -24.88671875 90.8046875 C-25.77762207 90.80307617 -26.66852539 90.80146484 -27.58642578 90.79980469 C-34.13014412 90.67762653 -39.43495776 89.8224709 -45.13671875 86.4296875 C-46.68359375 85.5634375 -46.68359375 85.5634375 -48.26171875 84.6796875 C-58.37009139 76.76878717 -66.00295436 66.2494099 -67.92578125 53.23828125 C-69.15893637 36.81904921 -68.45094023 21.08540769 -58.13671875 7.4296875 C-43.15528072 -8.84493655 -18.71614454 -13.75482652 0 0 Z " fill="#FEFDFC" transform="translate(625.13671875,244.5703125)"/>
<path d="M0 0 C6.83932146 -0.15608221 13.41641695 0.22864694 20.1875 1.1875 C21.13383301 1.3213208 22.08016602 1.4551416 23.05517578 1.59301758 C55.7709523 6.42952053 87.5080173 16.99736121 116.44140625 33.08984375 C119.8690024 34.98337127 123.37856157 36.5132061 127 38 C127 38.66 127 39.32 127 40 C127.99 40 128.98 40 130 40 C130 40.66 130 41.32 130 42 C130.99 42 131.98 42 133 42 C133.33 43.32 133.66 44.64 134 46 C135.32 46 136.64 46 138 46 C138.66 46.99 139.32 47.98 140 49 C142.05925139 49.72382467 142.05925139 49.72382467 144 50 C144 50.66 144 51.32 144 52 C144.66 52 145.32 52 146 52 C146 52.66 146 53.32 146 54 C146.99 54 147.98 54 149 54 C149.66 54.99 150.32 55.98 151 57 C151.99 57.33 152.98 57.66 154 58 C154.474375 58.66 154.94875 59.32 155.4375 60 C156.79119668 62.16770291 156.79119668 62.16770291 158.9375 62.4375 C162.02470709 63.27946557 163.08557248 65.52977095 165 68 C165.99 68.33 166.98 68.66 168 69 C168 69.66 168 70.32 168 71 C168.66 71 169.32 71 170 71 C170 71.66 170 72.32 170 73 C170.66 73 171.32 73 172 73 C172.33 73.99 172.66 74.98 173 76 C173.66 76.33 174.32 76.66 175 77 C175 77.66 175 78.32 175 79 C175.66 79 176.32 79 177 79 C177 79.66 177 80.32 177 81 C177.66 81 178.32 81 179 81 C179 81.66 179 82.32 179 83 C179.66 83 180.32 83 181 83 C181 83.66 181 84.32 181 85 C181.66 85 182.32 85 183 85 C183.61875 86.0828125 183.61875 86.0828125 184.25 87.1875 C185.8624954 89.77901047 186.8299908 90.75266965 189.1875 92.5 C192 95 192 95 192.6875 97.5625 C192 100 192 100 189.83984375 101.66015625 C186.20337588 104.65636568 183.65536725 108.09619663 180.875 111.875 C180.35035156 112.56980469 179.82570313 113.26460938 179.28515625 113.98046875 C176.41766267 117.83525126 173.9982081 121.60394217 172 126 C167.99806952 124.47801302 166.36096135 122.07673374 163.9375 118.625 C156.3509 108.12390906 147.21355678 99.07205165 138 90 C137.19691406 89.18144531 136.39382813 88.36289063 135.56640625 87.51953125 C123.79543652 75.9635564 110.20122942 67.31818032 95.98291016 59.14306641 C94.70751517 58.40785349 93.43598893 57.66586594 92.16943359 56.91552734 C88.22359993 54.59774883 84.22198946 52.7553129 80 51 C78.70317418 50.40659384 77.40899884 49.8073696 76.1171875 49.203125 C53.83647934 38.88261241 30.38239941 32.08230332 6 29 C0 5.26213592 0 5.26213592 0 0 Z " fill="#DEA463" transform="translate(620,25)"/>
<path d="M0 0 C0.928125 0.61875 0.928125 0.61875 1.875 1.25 C4.55014718 2.74808242 6.94609574 3.72533777 9.8125 4.75 C16.4165637 7.34234142 21.06580593 11.0987089 25 17 C27.24694141 23.51908659 27.39800563 32.1569228 25.05078125 38.609375 C22.70218337 42.5508705 19.80023858 45.39412212 16 48 C16.53109375 48.37511719 17.0621875 48.75023437 17.609375 49.13671875 C23.67046195 53.52768868 28.34096693 57.39609844 30 65 C30.76169768 72.97474387 30.25764837 80.0602737 26 87 C19.91577773 94.30387051 11.74099279 97.70258709 2.45141602 98.80969238 C-2.48663069 99.19304139 -7.4281957 98.99852591 -12.375 98.87890625 C-14.1226062 98.84348976 -14.1226062 98.84348976 -15.90551758 98.80735779 C-19.60381633 98.73116834 -23.30188164 98.6469528 -27 98.5625 C-29.5169159 98.50923451 -32.03384298 98.45649446 -34.55078125 98.40429688 C-40.7006669 98.27561405 -46.85035597 98.13973583 -53 98 C-53 94.37 -53 90.74 -53 87 C-49.12315913 85.80712589 -46.08378077 85 -42 85 C-42 62.23 -42 39.46 -42 16 C-44.97 15.67 -47.94 15.34 -51 15 C-51.66 14.67 -52.32 14.34 -53 14 C-53 10.04 -53 6.08 -53 2 C-35.51 2 -18.02 2 0 2 C0 1.34 0 0.68 0 0 Z " fill="#FEFDFD" transform="translate(705,236)"/>
<path d="M0 0 C4.32761014 -0.18426252 8.64155323 -0.34314836 12.9699707 -0.43945312 C14.43984127 -0.47958611 15.90939433 -0.53411158 17.37817383 -0.60351562 C29.68946867 -1.17051058 29.68946867 -1.17051058 33.03369141 1.81640625 C34.36328125 4.03125 34.36328125 4.03125 35.2668457 6.26757812 C35.50878662 6.83927734 35.75072754 7.41097656 36 8 C36.66 8 37.32 8 38 8 C38.09498779 9.02907471 38.18997559 10.05814941 38.2878418 11.1184082 C39.03828477 15.20866973 40.20425077 17.60051627 42.39453125 21.10546875 C42.74198898 21.6696199 43.08944672 22.23377106 43.44743347 22.8150177 C44.55803074 24.61301947 45.68451404 26.40036776 46.8125 28.1875 C47.52652451 29.33458143 48.23942207 30.48236514 48.95117188 31.63085938 C49.67498047 32.79810547 50.39878906 33.96535156 51.14453125 35.16796875 C56.85940662 44.38625122 62.41975968 53.69959946 68 63 C68.33 47.16 68.66 31.32 69 15 C66.36 14.67 63.72 14.34 61 14 C60.34 13.67 59.68 13.34 59 13 C59 8.71 59 4.42 59 0 C72.2 0 85.4 0 99 0 C99 4.29 99 8.58 99 13 C90.25 15 90.25 15 88 15 C88 41.73 88 68.46 88 96 C81.73 96 75.46 96 69 96 C63.86128304 90.16686183 63.86128304 90.16686183 62.42578125 86.9140625 C59.61522757 81.01025912 56.13016162 75.52718611 52.69900513 69.97247314 C51.19309233 67.52450051 49.70795421 65.06424956 48.22306824 62.60348511 C44.1337926 55.82734403 39.97926227 49.09470873 35.69165039 42.44189453 C33 38.21326584 33 38.21326584 33 36 C32.34 36 31.68 36 31 36 C30.67 51.51 30.34 67.02 30 83 C31.98 83 33.96 83 36 83 C38.29296875 83.65234375 38.29296875 83.65234375 40 85 C40.86328125 87.56640625 40.86328125 87.56640625 41.3125 90.5625 C41.55419922 92.04943359 41.55419922 92.04943359 41.80078125 93.56640625 C41.89939453 94.77103516 41.89939453 94.77103516 42 96 C40.19358047 97.80641953 37.72659033 97.12857958 35.32241821 97.13894653 C34.52766083 97.1369223 33.73290344 97.13489807 32.9140625 97.1328125 C31.69497696 97.13424759 31.69497696 97.13424759 30.45126343 97.13571167 C28.72792483 97.13639361 27.00458369 97.13453838 25.28125 97.13037109 C22.64317025 97.12503674 20.00526182 97.13030848 17.3671875 97.13671875 C15.69531212 97.1360577 14.02343685 97.13477598 12.3515625 97.1328125 C11.56085358 97.13483673 10.77014465 97.13686096 9.95547485 97.13894653 C6.71052868 97.12507375 4.10047084 97.03349028 1 96 C1 92.04 1 88.08 1 84 C5.455 83.505 5.455 83.505 10 83 C10 60.56 10 38.12 10 15 C6.7 14.67 3.4 14.34 0 14 C0 9.38 0 4.76 0 0 Z " fill="#FEFEFD" transform="translate(451,238)"/>
<path d="M0 0 C1 4 1 4 -3 17 C6.9 17 16.8 17 27 17 C27 21.29 27 25.58 27 30 C23.7 30.33 20.4 30.66 17 31 C17 39.25 17 47.5 17 56 C24.32957869 55.78476391 24.32957869 55.78476391 26.82275391 53.56054688 C27.20351074 52.95275391 27.58426758 52.34496094 27.9765625 51.71875 C28.41701904 51.04521484 28.85747559 50.37167969 29.3112793 49.67773438 C29.74480713 48.95908203 30.17833496 48.24042969 30.625 47.5 C31.09010986 46.77619141 31.55521973 46.05238281 32.03442383 45.30664062 C32.9550368 43.87118476 33.86560102 42.42922591 34.76513672 40.98046875 C36.3456934 38.44557831 38.01143644 35.97249093 39.6875 33.5 C40.45963062 32.33419151 41.2311035 31.16794405 42 30 C40.35 29.67 38.7 29.34 37 29 C37 25.04 37 21.08 37 17 C43.93 17 50.86 17 58 17 C58.495 15.515 58.495 15.515 59 14 C59 14.99 59 15.98 59 17 C64.61 17 70.22 17 76 17 C76 20.96 76 24.92 76 29 C74.5975 29 73.195 29 71.75 29 C64.10616962 30.41066397 60.51808172 37.29669091 56.37109375 43.27734375 C50.26522911 52.31084859 51.39482914 66.62800968 53 77 C55.06203942 82.59610406 58.57191774 87.01150899 62.57495117 91.36303711 C64.08440272 93.09695396 65.30349156 94.91051593 66.5625 96.83203125 C70.10551433 101.43681429 72.43595968 101.2525916 78 102 C78 105.63 78 109.26 78 113 C71.73 113 65.46 113 59 113 C58.505 114.485 58.505 114.485 58 116 C58 115.34 58 114.68 58 114 C52.06 114 46.12 114 40 114 C40 109.71 40 105.42 40 101 C41.98 100.505 41.98 100.505 44 100 C43.5153125 99.28344238 43.030625 98.56688477 42.53125 97.82861328 C40.7384953 95.17352634 38.94988578 92.51570999 37.1640625 89.85595703 C36.38967816 88.70445012 35.61364198 87.55405231 34.8359375 86.40478516 C33.71963822 84.7545417 32.60972145 83.09998645 31.5 81.4453125 C30.8296875 80.45031738 30.159375 79.45532227 29.46875 78.43017578 C28 76 28 76 28 74 C24.37 74 20.74 74 17 74 C17 82.58 17 91.16 17 100 C20.3 100.33 23.6 100.66 27 101 C27 105.29 27 109.58 27 114 C16.44 114 5.88 114 -5 114 C-1.89493407 128.80698488 -1.89493407 128.80698488 2.8515625 143.1328125 C4.33822817 146.89810592 5.38177028 149.92778373 5 154 C2 153 2 153 0.89672852 150.98144531 C0.56084717 150.10584961 0.22496582 149.23025391 -0.12109375 148.328125 C-0.68582397 146.8745459 -0.68582397 146.8745459 -1.26196289 145.39160156 C-1.64989014 144.35487305 -2.03781738 143.31814453 -2.4375 142.25 C-2.83638428 141.20553711 -3.23526855 140.16107422 -3.64624023 139.08496094 C-11 119.62986738 -11 119.62986738 -11 114 C-11.66 114 -12.32 114 -13 114 C-13.495 106.575 -13.495 106.575 -14 99 C-13.67 99.99 -13.34 100.98 -13 102 C-11.68 102 -10.36 102 -9 102 C-9 99.69 -9 97.38 -9 95 C-8.67 95 -8.34 95 -8 95 C-8 96.65 -8 98.3 -8 100 C-6.35 100 -4.7 100 -3 100 C-3 77.23 -3 54.46 -3 31 C-3.99 31 -4.98 31 -6 31 C-6.33 31.66 -6.66 32.32 -7 33 C-7 32.01 -7 31.02 -7 30 C-7.804375 30.020625 -8.60875 30.04125 -9.4375 30.0625 C-12 30 -12 30 -13 29 C-13.07244053 26.98035801 -13.08377188 24.95832876 -13.0625 22.9375 C-13.05347656 21.83277344 -13.04445313 20.72804687 -13.03515625 19.58984375 C-13.02355469 18.73519531 -13.01195312 17.88054687 -13 17 C-10.03 17 -7.06 17 -4 17 C-3.8453125 15.576875 -3.8453125 15.576875 -3.6875 14.125 C-3.0089081 9.26508446 -1.4914524 4.66196126 0 0 Z M50 52 C48.72062394 53.34996233 47.50064691 54.7565883 46.3125 56.1875 C45.64863281 56.96480469 44.98476563 57.74210937 44.30078125 58.54296875 C42.6830817 60.93895153 42.6830817 60.93895153 43.6328125 63.5625 C44.8555665 65.74249571 46.08968469 67.79452321 47.5625 69.8125 C47.99691406 70.41707031 48.43132812 71.02164063 48.87890625 71.64453125 C49.43384766 72.31548828 49.43384766 72.31548828 50 73 C50.33 73 50.66 73 51 73 C51 66.07 51 59.14 51 52 C50.67 52 50.34 52 50 52 Z " fill="#FEFEFD" transform="translate(367,221)"/>
<path d="M0 0 C25.41 0 50.82 0 77 0 C77 8.91 77 17.82 77 27 C71.72 27 66.44 27 61 27 C61 23.37 61 19.74 61 16 C51.1 16 41.2 16 31 16 C31 23.59 31 31.18 31 39 C41.56 39 52.12 39 63 39 C63 44.28 63 49.56 63 55 C52.44 55 41.88 55 31 55 C31 63.58 31 72.16 31 81 C40.9 81 50.8 81 61 81 C61 78.36 61 75.72 61 73 C61.495 71.515 61.495 71.515 62 70 C66.95 70 71.9 70 77 70 C77 78.91 77 87.82 77 97 C51.59 97 26.18 97 0 97 C0 92.71 0 88.42 0 84 C4.95 83.01 4.95 83.01 10 82 C10.33 59.56 10.66 37.12 11 14 C7.7 13.67 4.4 13.34 1 13 C0.67 12.67 0.34 12.34 0 12 C0 8.04 0 4.08 0 0 Z " fill="#FFFFFF" transform="translate(234,238)"/>
<path d="M0 0 C25.41 0 50.82 0 77 0 C77 8.91 77 17.82 77 27 C74.545625 27.020625 72.09125 27.04125 69.5625 27.0625 C68.4014978 27.07615601 68.4014978 27.07615601 67.21704102 27.09008789 C65.47778283 27.09724913 63.73854696 27.05024702 62 27 C61.67 26.67 61.34 26.34 61 26 C61 22.7 61 19.4 61 16 C50.77 16 40.54 16 30 16 C30 24.25 30 32.5 30 41 C41.22 41 52.44 41 64 41 C64 46.28 64 51.56 64 57 C52.78 57 41.56 57 30 57 C30.33 65.25 30.66 73.5 31 82 C34.3 82.66 37.6 83.32 41 84 C41 88.29 41 92.58 41 97 C27.47 97 13.94 97 0 97 C0 92.71 0 88.42 0 84 C4.455 83.01 4.455 83.01 9 82 C9.33 59.56 9.66 37.12 10 14 C7.03 13.67 4.06 13.34 1 13 C0.67 12.67 0.34 12.34 0 12 C0 8.04 0 4.08 0 0 Z " fill="#FFFFFF" transform="translate(151,238)"/>
<path d="M0 0 C13.53 0 27.06 0 41 0 C41 4.29 41 8.58 41 13 C37.7 13.66 34.4 14.32 31 15 C31 36.78 31 58.56 31 81 C39.58 81 48.16 81 57 81 C57 77.7 57 74.4 57 71 C57.33 70.34 57.66 69.68 58 69 C62.95 69 67.9 69 73 69 C73 78.24 73 87.48 73 97 C48.91 97 24.82 97 0 97 C0 92.71 0 88.42 0 84 C4.455 83.01 4.455 83.01 9 82 C9.33 59.89 9.66 37.78 10 15 C6.7 14.34 3.4 13.68 0 13 C0 8.71 0 4.42 0 0 Z " fill="#FFFFFF" transform="translate(24,238)"/>
<path d="M0 0 C6.75160459 4.29647565 10.94928965 11.49308653 13.03515625 19.05078125 C15.48537211 31.36415418 14.88570041 45.67043102 8.47265625 56.67578125 C5.15321869 61.4661073 1.38777413 64.35732809 -4.15234375 66.17578125 C-7.7109375 66.51171875 -7.7109375 66.51171875 -11.58984375 66.55078125 C-12.86730469 66.57914062 -14.14476562 66.6075 -15.4609375 66.63671875 C-21.4493929 65.88895395 -25.306821 62.62823597 -28.98828125 57.94921875 C-36.50710867 46.49436087 -36.58158595 32.15625218 -34.69140625 18.95703125 C-32.8157979 11.98418137 -29.00280655 4.85128787 -22.96484375 0.67578125 C-16.00655025 -3.03530862 -7.2684234 -3.14915264 0 0 Z " fill="#DDA15F" transform="translate(611.15234375,253.82421875)"/>
<path d="M0 0 C13.53 0 27.06 0 41 0 C41 4.62 41 9.24 41 14 C37.7 14.33 34.4 14.66 31 15 C31 37.44 31 59.88 31 83 C34.3 83.33 37.6 83.66 41 84 C41 88.29 41 92.58 41 97 C27.47 97 13.94 97 0 97 C0 92.71 0 88.42 0 84 C5.445 83.505 5.445 83.505 11 83 C11 60.56 11 38.12 11 15 C7.37 14.67 3.74 14.34 0 14 C0 9.38 0 4.76 0 0 Z " fill="#FFFFFF" transform="translate(103,238)"/>
<path d="M0 0 C5.754375 -0.0928125 5.754375 -0.0928125 11.625 -0.1875 C13.42251709 -0.22846802 13.42251709 -0.22846802 15.25634766 -0.27026367 C25.30089581 -0.34869717 25.30089581 -0.34869717 30 3 C33.23874935 7.85812402 32.47597944 12.92262799 31.60546875 18.55078125 C30.46237244 23.05679314 30.46237244 23.05679314 29 25 C22.64207645 28.22231125 17.02289015 28.37490237 10 28.1875 C6.7 28.125625 3.4 28.06375 0 28 C0 18.76 0 9.52 0 0 Z " fill="#DDA260" transform="translate(682,292)"/>
<path d="M0 0 C2.805 -0.061875 5.61 -0.12375 8.5 -0.1875 C9.8003418 -0.22846802 9.8003418 -0.22846802 11.12695312 -0.27026367 C16.76457557 -0.32968104 20.8743039 0.61138066 26 3 C28.96346663 6.25981329 29.90073307 8.19168354 30.4375 12.5625 C29.84961163 17.1816229 28.49092728 19.69543863 25 22.75 C21.73021813 24.79361367 19.09513046 25.12162503 15.33203125 25.09765625 C14.52741455 25.09515869 13.72279785 25.09266113 12.89379883 25.09008789 C11.36855591 25.07643188 11.36855591 25.07643188 9.8125 25.0625 C4.9553125 25.0315625 4.9553125 25.0315625 0 25 C0 16.75 0 8.5 0 0 Z " fill="#DDA25F" transform="translate(682,253)"/>
<path d="M0 0 C2.475 0.495 2.475 0.495 5 1 C5 2.65 5 4.3 5 6 C5.66 6 6.32 6 7 6 C7.18175781 6.83402344 7.36351562 7.66804688 7.55078125 8.52734375 C9.20513266 15.93374777 11.05084932 23.0959725 13.85546875 30.15234375 C15.34593108 33.90998822 16.38112397 36.93467763 16 41 C13 40 13 40 11.89672852 37.98144531 C11.56084717 37.10584961 11.22496582 36.23025391 10.87890625 35.328125 C10.50241943 34.35915283 10.12593262 33.39018066 9.73803711 32.3918457 C9.35010986 31.35503662 8.96218262 30.31822754 8.5625 29.25 C8.16361572 28.20481201 7.76473145 27.15962402 7.35375977 26.08276367 C0 6.61710654 0 6.61710654 0 0 Z " fill="#E9C49C" transform="translate(356,334)"/>
<path d="M0 0 C0.33 0 0.66 0 1 0 C1.33919096 3.66614909 1.67028081 7.3329879 2 11 C2.09539063 12.02996094 2.19078125 13.05992187 2.2890625 14.12109375 C2.79321351 19.77478726 3.109151 25.32414798 3 31 C3.66 31 4.32 31 5 31 C4.67 34.96 4.34 38.92 4 43 C-0.17747833 41.95563042 -1.32788192 41.09397688 -4.375 38.25 C-7.84462254 35.06138821 -11.35759685 31.98863848 -15 29 C-10.63541582 29 -8.49675087 31.68722385 -5.375 34.4375 C-4.776875 34.95376953 -4.17875 35.47003906 -3.5625 36.00195312 C0.63058036 39.63058036 0.63058036 39.63058036 2 41 C1.85613451 38.41654307 1.71041648 35.83322641 1.5625 33.25 C1.51810791 32.47374268 1.47371582 31.69748535 1.42797852 30.89770508 C1.16855163 26.48562425 0.84772724 22.08865222 0.4375 17.6875 C-0.08631011 11.78645174 -0.09446909 5.9200627 0 0 Z " fill="#F0D8BE" transform="translate(884,351)"/>
<path d="M0 0 C1.37344385 4.39844322 0.24307502 7.92504555 -0.9375 12.25 C-1.23043945 13.36761719 -1.23043945 13.36761719 -1.52929688 14.5078125 C-2.01104198 16.34079386 -2.50439225 18.17071818 -3 20 C-2.01 19.67 -1.02 19.34 0 19 C-0.8125 21.9375 -0.8125 21.9375 -2 25 C-2.99 25.33 -3.98 25.66 -5 26 C-4.56901343 17.03547936 -2.30110566 8.62647053 0 0 Z " fill="#EED2B4" transform="translate(813,280)"/>
<path d="M0 0 C0.66 0 1.32 0 2 0 C3.03411477 2.74564964 4.05251157 5.4954861 5.0625 8.25 C5.35705078 9.02730469 5.65160156 9.80460937 5.95507812 10.60546875 C6.22900391 11.35957031 6.50292969 12.11367188 6.78515625 12.890625 C7.17006226 13.92751465 7.17006226 13.92751465 7.56274414 14.98535156 C8.06952056 17.32031471 7.74214139 18.75375603 7 21 C3.55629555 14.08630327 1.11332019 7.66030756 0 0 Z " fill="#DFA96D" transform="translate(363,354)"/>
<path d="M0 0 C1.01320313 0.52400391 1.01320313 0.52400391 2.046875 1.05859375 C2.93890625 1.51363281 3.8309375 1.96867187 4.75 2.4375 C5.63171875 2.88996094 6.5134375 3.34242187 7.421875 3.80859375 C9.64198566 4.83455398 11.61444619 5.51508603 14 6 C14 6.66 14 7.32 14 8 C14.99 8 15.98 8 17 8 C17 8.66 17 9.32 17 10 C17.99 10 18.98 10 20 10 C20.33 11.32 20.66 12.64 21 14 C17.99017445 12.35067641 14.99366929 10.67845893 12 9 C10.92105469 8.39929688 9.84210937 7.79859375 8.73046875 7.1796875 C7.64378906 6.56351563 6.55710937 5.94734375 5.4375 5.3125 C4.40496094 4.73113281 3.37242187 4.14976563 2.30859375 3.55078125 C1.54675781 3.03902344 0.78492188 2.52726562 0 2 C0 1.34 0 0.68 0 0 Z " fill="#F2DEC8" transform="translate(733,57)"/>
<path d="M0 0 C1.32 0 2.64 0 4 0 C5.37868281 1.62935241 6.71274093 3.29749607 8 5 C8.99 5.33 9.98 5.66 11 6 C11 6.66 11 7.32 11 8 C11.66 8 12.32 8 13 8 C13 8.66 13 9.32 13 10 C13.66 10 14.32 10 15 10 C15 10.99 15 11.98 15 13 C11.90290533 11.62804139 9.84129475 10.06207499 7.5 7.625 C6.90058594 7.00753906 6.30117188 6.39007813 5.68359375 5.75390625 C5.12800781 5.17511719 4.57242188 4.59632812 4 4 C3.195625 3.195625 2.39125 2.39125 1.5625 1.5625 C1.046875 1.046875 0.53125 0.53125 0 0 Z " fill="#F6E8D8" transform="translate(777,88)"/>
<path d="M0 0 C1.8125 0.5625 1.8125 0.5625 4 2 C5.05352843 4.30965848 6.05719096 6.6429774 7 9 C7.66 9.33 8.32 9.66 9 10 C9.66666667 11.66666667 10.33333333 13.33333333 11 15 C11.66 15.33 12.32 15.66 13 16 C13 16.99 13 17.98 13 19 C12.34 19 11.68 19 11 19 C9.2734375 16.953125 9.2734375 16.953125 7.375 14.25 C6.74335938 13.36828125 6.11171875 12.4865625 5.4609375 11.578125 C4 9 4 9 4 5 C3.34 4.67 2.68 4.34 2 4 C0.875 1.9375 0.875 1.9375 0 0 Z " fill="#F2DCC4" transform="translate(465,357)"/>
<path d="M0 0 C1.98 0.66 3.96 1.32 6 2 C6 2.66 6 3.32 6 4 C6.99 4 7.98 4 9 4 C12.38751913 7.04008127 15.22388067 10.40132679 18 14 C13.90667449 12.18074422 10.38325725 9.58463422 6.75 7 C6.1003125 6.54882812 5.450625 6.09765625 4.78125 5.6328125 C3.14924291 4.47395032 1.5695175 3.24218497 0 2 C0 1.34 0 0.68 0 0 Z " fill="#F3E0CA" transform="translate(698,133)"/>
<path d="M0 0 C-0.56589844 0.19335938 -1.13179687 0.38671875 -1.71484375 0.5859375 C-2.44832031 0.84632812 -3.18179688 1.10671875 -3.9375 1.375 C-5.03384766 1.75785156 -5.03384766 1.75785156 -6.15234375 2.1484375 C-8.18682116 2.85271413 -8.18682116 2.85271413 -9 5 C-11.28515625 5.4140625 -11.28515625 5.4140625 -14.0625 5.625 C-14.98160156 5.69976562 -15.90070313 5.77453125 -16.84765625 5.8515625 C-17.91306641 5.92503906 -17.91306641 5.92503906 -19 6 C-15.84690341 3.35595756 -12.83152644 2.0431835 -8.9375 0.75 C-7.89464844 0.39421875 -6.85179687 0.0384375 -5.77734375 -0.328125 C-3 -1 -3 -1 0 0 Z " fill="#EED2B3" transform="translate(526,64)"/>
<path d="M0 0 C0.33 0 0.66 0 1 0 C1 3.63 1 7.26 1 11 C0.34 11 -0.32 11 -1 11 C-1.66 14.3 -2.32 17.6 -3 21 C-4.06140282 17.81579155 -3.95892549 16.91540891 -3.22265625 13.76953125 C-3.03896484 12.96708984 -2.85527344 12.16464844 -2.66601562 11.33789062 C-2.36727539 10.08782227 -2.36727539 10.08782227 -2.0625 8.8125 C-1.86720703 7.96751953 -1.67191406 7.12253906 -1.47070312 6.25195312 C-0.98758736 4.166307 -0.49472096 2.08292386 0 0 Z " fill="#F2DEC6" transform="translate(779,337)"/>
<path d="M0 0 C0.66 0.33 1.32 0.66 2 1 C-1.3 4.3 -4.6 7.6 -8 11 C-8.33 10.01 -8.66 9.02 -9 8 C-6.03 5.36 -3.06 2.72 0 0 Z " fill="#E2B27B" transform="translate(522,197)"/>
<path d="M0 0 C1.41750563 0.11509661 2.83401169 0.24253658 4.25 0.375 C5.03890625 0.44460938 5.8278125 0.51421875 6.640625 0.5859375 C9.085877 1.01507113 10.84836903 1.78600638 13 3 C11.02 3.33 9.04 3.66 7 4 C7 3.34 7 2.68 7 2 C5.35 2.33 3.7 2.66 2 3 C2 2.34 2 1.68 2 1 C1.34 0.67 0.68 0.34 0 0 Z " fill="#F3DFC9" transform="translate(510,533)"/>
<path d="M0 0 C0.92425781 0.46986328 0.92425781 0.46986328 1.8671875 0.94921875 C3.96999776 2.02605238 3.96999776 2.02605238 6.125 2.8125 C8.67232367 4.42580499 9.1119086 6.18771058 10 9 C6.78956118 7.61811547 4.95063635 6.07578097 2.75 3.375 C2.22921875 2.74335938 1.7084375 2.11171875 1.171875 1.4609375 C0.78515625 0.97882813 0.3984375 0.49671875 0 0 Z " fill="#F8EDE2" transform="translate(401,435)"/>
<path d="M0 0 C0.33 0.66 0.66 1.32 1 2 C-0.3125 4.625 -0.3125 4.625 -2 7 C-2.66 7 -3.32 7 -4 7 C-4 5.35 -4 3.7 -4 2 C-2.68 1.34 -1.36 0.68 0 0 Z " fill="#EBC9A3" transform="translate(812,299)"/>
</svg>
